G04 #@! TF.GenerationSoftware,KiCad,Pcbnew,(5.0.1-3-g963ef8bb5)*
G04 #@! TF.CreationDate,2019-02-13T00:25:30-08:00*
G04 #@! TF.ProjectId,midi-anything,6D6964692D616E797468696E672E6B69,rev?*
G04 #@! TF.SameCoordinates,Original*
G04 #@! TF.FileFunction,Copper,L1,Top,Signal*
G04 #@! TF.FilePolarity,Positive*
%FSLAX46Y46*%
G04 Gerber Fmt 4.6, Leading zero omitted, Abs format (unit mm)*
G04 Created by KiCad (PCBNEW (5.0.1-3-g963ef8bb5)) date Wednesday, February 13, 2019 at 12:25:30 AM*
%MOMM*%
%LPD*%
G01*
G04 APERTURE LIST*
G04 #@! TA.AperFunction,SMDPad,CuDef*
%ADD10R,8.000000X5.000000*%
G04 #@! TD*
G04 #@! TA.AperFunction,ComponentPad*
%ADD11C,5.000000*%
G04 #@! TD*
G04 #@! TA.AperFunction,SMDPad,CuDef*
%ADD12R,5.000000X8.000000*%
G04 #@! TD*
G04 #@! TA.AperFunction,ComponentPad*
%ADD13C,1.700000*%
G04 #@! TD*
G04 #@! TA.AperFunction,ComponentPad*
%ADD14C,2.200000*%
G04 #@! TD*
G04 #@! TA.AperFunction,ComponentPad*
%ADD15R,1.700000X1.700000*%
G04 #@! TD*
G04 #@! TA.AperFunction,SMDPad,CuDef*
%ADD16R,1.600000X1.200000*%
G04 #@! TD*
G04 #@! TA.AperFunction,ComponentPad*
%ADD17C,1.600000*%
G04 #@! TD*
G04 #@! TA.AperFunction,ComponentPad*
%ADD18R,1.600000X1.600000*%
G04 #@! TD*
G04 #@! TA.AperFunction,Conductor*
%ADD19R,2.900000X0.500000*%
G04 #@! TD*
G04 #@! TA.AperFunction,Conductor*
%ADD20C,0.250000*%
G04 #@! TD*
G04 #@! TA.AperFunction,Conductor*
%ADD21C,0.350000*%
G04 #@! TD*
G04 #@! TA.AperFunction,Conductor*
%ADD22C,0.450000*%
G04 #@! TD*
G04 #@! TA.AperFunction,Conductor*
%ADD23C,0.254000*%
G04 #@! TD*
G04 APERTURE END LIST*
D10*
G04 #@! TO.P,H1,1*
G04 #@! TO.N,Net-(D1-Pad2)*
X100330000Y-64770000D03*
D11*
X104330000Y-64770000D03*
G04 #@! TD*
G04 #@! TO.P,H2,1*
G04 #@! TO.N,Net-(D2-Pad2)*
X104330000Y-72390000D03*
D10*
X100330000Y-72390000D03*
G04 #@! TD*
G04 #@! TO.P,H3,1*
G04 #@! TO.N,Net-(D3-Pad2)*
X100140000Y-80010000D03*
D11*
X104140000Y-80010000D03*
G04 #@! TD*
G04 #@! TO.P,H4,1*
G04 #@! TO.N,Net-(D4-Pad2)*
X104140000Y-87630000D03*
D10*
X100140000Y-87630000D03*
G04 #@! TD*
G04 #@! TO.P,H5,1*
G04 #@! TO.N,Net-(D5-Pad2)*
X100330000Y-95250000D03*
D11*
X104330000Y-95250000D03*
G04 #@! TD*
G04 #@! TO.P,H6,1*
G04 #@! TO.N,Net-(D6-Pad2)*
X104330000Y-102870000D03*
D10*
X100330000Y-102870000D03*
G04 #@! TD*
G04 #@! TO.P,H7,1*
G04 #@! TO.N,Net-(D7-Pad2)*
X100330000Y-110490000D03*
D11*
X104330000Y-110490000D03*
G04 #@! TD*
G04 #@! TO.P,H8,1*
G04 #@! TO.N,Net-(D8-Pad2)*
X104330000Y-118110000D03*
D10*
X100330000Y-118110000D03*
G04 #@! TD*
G04 #@! TO.P,H9,1*
G04 #@! TO.N,Net-(D9-Pad2)*
X100330000Y-125730000D03*
D11*
X104330000Y-125730000D03*
G04 #@! TD*
D12*
G04 #@! TO.P,H10,1*
G04 #@! TO.N,Net-(D10-Pad2)*
X113030000Y-129540000D03*
D11*
X113030000Y-125540000D03*
G04 #@! TD*
G04 #@! TO.P,H11,1*
G04 #@! TO.N,Net-(D13-Pad2)*
X182690000Y-125730000D03*
D10*
X186690000Y-125730000D03*
G04 #@! TD*
G04 #@! TO.P,H12,1*
G04 #@! TO.N,Net-(D14-Pad2)*
X186690000Y-118110000D03*
D11*
X182690000Y-118110000D03*
G04 #@! TD*
G04 #@! TO.P,H13,1*
G04 #@! TO.N,Net-(D15-Pad2)*
X182690000Y-110490000D03*
D10*
X186690000Y-110490000D03*
G04 #@! TD*
D11*
G04 #@! TO.P,H14,1*
G04 #@! TO.N,Net-(D16-Pad2)*
X182690000Y-102870000D03*
D10*
X186690000Y-102870000D03*
G04 #@! TD*
D11*
G04 #@! TO.P,H15,1*
G04 #@! TO.N,Net-(D12-Pad2)*
X175260000Y-64960000D03*
D12*
G04 #@! TO.N,N/C*
X175260000Y-60960000D03*
G04 #@! TD*
G04 #@! TO.P,H16,1*
G04 #@! TO.N,N/C*
X111760000Y-60960000D03*
D11*
G04 #@! TO.N,Net-(D11-Pad2)*
X111760000Y-64960000D03*
G04 #@! TD*
D12*
G04 #@! TO.P,H17,1*
G04 #@! TO.N,Net-(D17-Pad2)*
X173990000Y-129540000D03*
D11*
X173990000Y-125540000D03*
G04 #@! TD*
G04 #@! TO.P,H18,1*
G04 #@! TO.N,Net-(D29-Pad2)*
X166370000Y-125540000D03*
D12*
X166370000Y-129540000D03*
G04 #@! TD*
G04 #@! TO.P,H19,1*
G04 #@! TO.N,Net-(D28-Pad2)*
X158750000Y-129540000D03*
D11*
X158750000Y-125540000D03*
G04 #@! TD*
G04 #@! TO.P,H20,1*
G04 #@! TO.N,Net-(D27-Pad2)*
X151130000Y-125540000D03*
D12*
X151130000Y-129540000D03*
G04 #@! TD*
G04 #@! TO.P,H21,1*
G04 #@! TO.N,Net-(D26-Pad2)*
X143510000Y-129540000D03*
D11*
X143510000Y-125540000D03*
G04 #@! TD*
G04 #@! TO.P,H22,1*
G04 #@! TO.N,Net-(D25-Pad2)*
X135890000Y-125540000D03*
D12*
X135890000Y-129540000D03*
G04 #@! TD*
G04 #@! TO.P,H23,1*
G04 #@! TO.N,Net-(D24-Pad2)*
X128270000Y-129730000D03*
D11*
X128270000Y-125730000D03*
G04 #@! TD*
G04 #@! TO.P,H24,1*
G04 #@! TO.N,Net-(D23-Pad2)*
X120650000Y-125540000D03*
D12*
X120650000Y-129540000D03*
G04 #@! TD*
D10*
G04 #@! TO.P,H25,1*
G04 #@! TO.N,Net-(D22-Pad2)*
X186690000Y-64770000D03*
D11*
X182690000Y-64770000D03*
G04 #@! TD*
G04 #@! TO.P,H26,1*
G04 #@! TO.N,Net-(D21-Pad2)*
X182880000Y-72390000D03*
D10*
X186880000Y-72390000D03*
G04 #@! TD*
G04 #@! TO.P,H27,1*
G04 #@! TO.N,Net-(D20-Pad2)*
X186690000Y-80010000D03*
D11*
X182690000Y-80010000D03*
G04 #@! TD*
G04 #@! TO.P,H28,1*
G04 #@! TO.N,Net-(D19-Pad2)*
X182690000Y-87630000D03*
D10*
X186690000Y-87630000D03*
G04 #@! TD*
G04 #@! TO.P,H29,1*
G04 #@! TO.N,Net-(D18-Pad2)*
X186690000Y-95250000D03*
D11*
X182690000Y-95250000D03*
G04 #@! TD*
D13*
G04 #@! TO.P,U1,RST*
G04 #@! TO.N,Net-(J17-Pad1)*
X151125000Y-107940000D03*
G04 #@! TO.P,U1,A13*
G04 #@! TO.N,Net-(D18-Pad1)*
X151125000Y-105400000D03*
G04 #@! TO.P,U1,B12*
G04 #@! TO.N,Net-(D20-Pad1)*
X151125000Y-100320000D03*
G04 #@! TO.P,U1,A14*
G04 #@! TO.N,Net-(D19-Pad1)*
X151125000Y-102860000D03*
G04 #@! TO.P,U1,B10*
G04 #@! TO.N,Net-(D22-Pad1)*
X151125000Y-95240000D03*
G04 #@! TO.P,U1,B11*
G04 #@! TO.N,Net-(D21-Pad1)*
X151125000Y-97780000D03*
G04 #@! TO.P,U1,B9*
G04 #@! TO.N,Net-(D23-Pad1)*
X151125000Y-90160000D03*
G04 #@! TO.P,U1,B13*
G04 #@! TO.N,Net-(D26-Pad1)*
X151125000Y-82540000D03*
G04 #@! TO.P,U1,B15*
G04 #@! TO.N,Net-(D24-Pad1)*
X151125000Y-87620000D03*
G04 #@! TO.P,U1,B14*
G04 #@! TO.N,Net-(D25-Pad1)*
X151125000Y-85080000D03*
G04 #@! TO.P,U1,B8*
G04 #@! TO.N,Net-(D27-Pad1)*
X151125000Y-80000000D03*
G04 #@! TO.P,U1,A0*
G04 #@! TO.N,Net-(D28-Pad1)*
X151125000Y-77460000D03*
G04 #@! TO.P,U1,A1*
G04 #@! TO.N,Net-(D29-Pad1)*
X151125000Y-74920000D03*
G04 #@! TO.P,U1,3.3V*
G04 #@! TO.N,Net-(J31-Pad1)*
X151125000Y-69840000D03*
G04 #@! TO.P,U1,A3|5v*
G04 #@! TO.N,Net-(U1-PadA3|5v)*
X148585000Y-67300000D03*
G04 #@! TO.P,U1,A2*
G04 #@! TO.N,Net-(D17-Pad1)*
X151125000Y-72380000D03*
G04 #@! TO.P,U1,DFU*
G04 #@! TO.N,Net-(J32-Pad1)*
X151125000Y-67300000D03*
G04 #@! TO.P,U1,GND*
G04 #@! TO.N,Net-(J33-Pad1)*
X151125000Y-64760000D03*
G04 #@! TO.P,U1,A4*
G04 #@! TO.N,Net-(D11-Pad1)*
X135910000Y-95240000D03*
G04 #@! TO.P,U1,A15*
G04 #@! TO.N,Net-(D16-Pad1)*
X135910000Y-107940000D03*
G04 #@! TO.P,U1,A6*
G04 #@! TO.N,Net-(D13-Pad1)*
X135910000Y-100320000D03*
G04 #@! TO.P,U1,A8*
G04 #@! TO.N,Net-(D15-Pad1)*
X135910000Y-105400000D03*
G04 #@! TO.P,U1,A7*
G04 #@! TO.N,Net-(D14-Pad1)*
X135910000Y-102860000D03*
G04 #@! TO.P,U1,A5*
G04 #@! TO.N,Net-(D12-Pad1)*
X135910000Y-97780000D03*
G04 #@! TO.P,U1,B0*
G04 #@! TO.N,Net-(D10-Pad1)*
X135910000Y-90160000D03*
G04 #@! TO.P,U1,B1*
G04 #@! TO.N,Net-(D9-Pad1)*
X135910000Y-87620000D03*
G04 #@! TO.P,U1,B2*
G04 #@! TO.N,Net-(D8-Pad1)*
X135910000Y-85080000D03*
G04 #@! TO.P,U1,B3*
G04 #@! TO.N,Net-(D7-Pad1)*
X135910000Y-82540000D03*
G04 #@! TO.P,U1,B4*
G04 #@! TO.N,Net-(D6-Pad1)*
X135910000Y-80000000D03*
G04 #@! TO.P,U1,B5*
G04 #@! TO.N,Net-(D5-Pad1)*
X135910000Y-77460000D03*
G04 #@! TO.P,U1,CHRG*
G04 #@! TO.N,Net-(U1-PadCHRG)*
X143530000Y-67300000D03*
G04 #@! TO.P,U1,D-*
G04 #@! TO.N,Net-(U1-PadD-)*
X140990000Y-67300000D03*
G04 #@! TO.P,U1,B6*
G04 #@! TO.N,Net-(D4-Pad1)*
X135910000Y-74920000D03*
G04 #@! TO.P,U1,B7*
G04 #@! TO.N,Net-(D3-Pad1)*
X135910000Y-72380000D03*
G04 #@! TO.P,U1,GND*
G04 #@! TO.N,Net-(J33-Pad1)*
X135910000Y-69840000D03*
X135910000Y-67300000D03*
G04 #@! TO.P,U1,D+*
G04 #@! TO.N,Net-(U1-PadD+)*
X138450000Y-67300000D03*
G04 #@! TO.P,U1,A9*
G04 #@! TO.N,Net-(D1-Pad1)*
X135910000Y-62220000D03*
D14*
G04 #@! TO.P,U1,SCRE*
G04 #@! TO.N,N/C*
X136519600Y-59395200D03*
X150515000Y-59395200D03*
D13*
G04 #@! TO.P,U1,A10*
G04 #@! TO.N,Net-(D2-Pad1)*
X135910000Y-64760000D03*
G04 #@! TO.P,U1,5V*
G04 #@! TO.N,Net-(J34-Pad1)*
X151125000Y-62220000D03*
G04 #@! TD*
D15*
G04 #@! TO.P,J1,1*
G04 #@! TO.N,Net-(D1-Pad1)*
X130810000Y-62230000D03*
G04 #@! TD*
G04 #@! TO.P,J2,1*
G04 #@! TO.N,Net-(D2-Pad1)*
X130810000Y-64770000D03*
G04 #@! TD*
G04 #@! TO.P,J3,1*
G04 #@! TO.N,Net-(D3-Pad1)*
X130810000Y-72390000D03*
G04 #@! TD*
G04 #@! TO.P,J4,1*
G04 #@! TO.N,Net-(D4-Pad1)*
X130810000Y-74930000D03*
G04 #@! TD*
G04 #@! TO.P,J5,1*
G04 #@! TO.N,Net-(D5-Pad1)*
X130810000Y-77470000D03*
G04 #@! TD*
G04 #@! TO.P,J6,1*
G04 #@! TO.N,Net-(D6-Pad1)*
X130810000Y-80010000D03*
G04 #@! TD*
G04 #@! TO.P,J7,1*
G04 #@! TO.N,Net-(D7-Pad1)*
X130810000Y-82550000D03*
G04 #@! TD*
G04 #@! TO.P,J8,1*
G04 #@! TO.N,Net-(D8-Pad1)*
X130810000Y-85090000D03*
G04 #@! TD*
G04 #@! TO.P,J9,1*
G04 #@! TO.N,Net-(D9-Pad1)*
X130810000Y-87630000D03*
G04 #@! TD*
G04 #@! TO.P,J10,1*
G04 #@! TO.N,Net-(D10-Pad1)*
X130810000Y-90170000D03*
G04 #@! TD*
G04 #@! TO.P,J11,1*
G04 #@! TO.N,Net-(D11-Pad1)*
X130810000Y-95250000D03*
G04 #@! TD*
G04 #@! TO.P,J12,1*
G04 #@! TO.N,Net-(D12-Pad1)*
X130810000Y-97790000D03*
G04 #@! TD*
G04 #@! TO.P,J13,1*
G04 #@! TO.N,Net-(D13-Pad1)*
X130810000Y-100330000D03*
G04 #@! TD*
G04 #@! TO.P,J14,1*
G04 #@! TO.N,Net-(D14-Pad1)*
X130810000Y-102870000D03*
G04 #@! TD*
G04 #@! TO.P,J15,1*
G04 #@! TO.N,Net-(D15-Pad1)*
X130810000Y-105410000D03*
G04 #@! TD*
G04 #@! TO.P,J16,1*
G04 #@! TO.N,Net-(D16-Pad1)*
X130810000Y-107950000D03*
G04 #@! TD*
G04 #@! TO.P,J17,1*
G04 #@! TO.N,Net-(J17-Pad1)*
X156210000Y-107950000D03*
G04 #@! TD*
G04 #@! TO.P,J18,1*
G04 #@! TO.N,Net-(D18-Pad1)*
X156210000Y-105410000D03*
G04 #@! TD*
G04 #@! TO.P,J19,1*
G04 #@! TO.N,Net-(D19-Pad1)*
X156210000Y-102870000D03*
G04 #@! TD*
G04 #@! TO.P,J20,1*
G04 #@! TO.N,Net-(D20-Pad1)*
X156210000Y-100330000D03*
G04 #@! TD*
G04 #@! TO.P,J21,1*
G04 #@! TO.N,Net-(D21-Pad1)*
X156210000Y-97790000D03*
G04 #@! TD*
G04 #@! TO.P,J22,1*
G04 #@! TO.N,Net-(D22-Pad1)*
X156210000Y-95250000D03*
G04 #@! TD*
G04 #@! TO.P,J23,1*
G04 #@! TO.N,Net-(D23-Pad1)*
X156210000Y-90170000D03*
G04 #@! TD*
G04 #@! TO.P,J24,1*
G04 #@! TO.N,Net-(D24-Pad1)*
X156210000Y-87630000D03*
G04 #@! TD*
G04 #@! TO.P,J25,1*
G04 #@! TO.N,Net-(D25-Pad1)*
X156210000Y-85090000D03*
G04 #@! TD*
G04 #@! TO.P,J26,1*
G04 #@! TO.N,Net-(D26-Pad1)*
X156210000Y-82550000D03*
G04 #@! TD*
G04 #@! TO.P,J27,1*
G04 #@! TO.N,Net-(D27-Pad1)*
X156210000Y-80010000D03*
G04 #@! TD*
G04 #@! TO.P,J28,1*
G04 #@! TO.N,Net-(D28-Pad1)*
X156210000Y-77470000D03*
G04 #@! TD*
G04 #@! TO.P,J29,1*
G04 #@! TO.N,Net-(D29-Pad1)*
X156210000Y-74930000D03*
G04 #@! TD*
G04 #@! TO.P,J30,1*
G04 #@! TO.N,Net-(D17-Pad1)*
X156210000Y-72390000D03*
G04 #@! TD*
G04 #@! TO.P,J31,1*
G04 #@! TO.N,Net-(J31-Pad1)*
X156210000Y-69850000D03*
G04 #@! TD*
G04 #@! TO.P,J32,1*
G04 #@! TO.N,Net-(J32-Pad1)*
X156210000Y-67310000D03*
G04 #@! TD*
G04 #@! TO.P,J33,1*
G04 #@! TO.N,Net-(J33-Pad1)*
X156210000Y-64770000D03*
G04 #@! TD*
G04 #@! TO.P,J34,1*
G04 #@! TO.N,Net-(J34-Pad1)*
X156210000Y-62230000D03*
G04 #@! TD*
G04 #@! TO.P,J35,1*
G04 #@! TO.N,Net-(J35-Pad1)*
X130810000Y-67310000D03*
G04 #@! TD*
G04 #@! TO.P,J36,1*
G04 #@! TO.N,Net-(J36-Pad1)*
X130810000Y-69850000D03*
G04 #@! TD*
D16*
G04 #@! TO.P,D1,1*
G04 #@! TO.N,Net-(D1-Pad1)*
X123320000Y-60960000D03*
G04 #@! TO.P,D1,2*
G04 #@! TO.N,Net-(D1-Pad2)*
X120520000Y-60960000D03*
D17*
X118020000Y-60960000D03*
D18*
G04 #@! TO.P,D1,1*
G04 #@! TO.N,Net-(D1-Pad1)*
X125820000Y-60960000D03*
D19*
G04 #@! TD*
G04 #@! TO.N,Net-(D1-Pad2)*
G04 #@! TO.C,D1*
X119420000Y-60960000D03*
G04 #@! TO.N,Net-(D1-Pad1)*
G04 #@! TO.C,D1*
X124420000Y-60960000D03*
G04 #@! TD*
D16*
G04 #@! TO.P,D2,1*
G04 #@! TO.N,Net-(D2-Pad1)*
X123320000Y-64770000D03*
G04 #@! TO.P,D2,2*
G04 #@! TO.N,Net-(D2-Pad2)*
X120520000Y-64770000D03*
D17*
X118020000Y-64770000D03*
D18*
G04 #@! TO.P,D2,1*
G04 #@! TO.N,Net-(D2-Pad1)*
X125820000Y-64770000D03*
D19*
G04 #@! TD*
G04 #@! TO.N,Net-(D2-Pad2)*
G04 #@! TO.C,D2*
X119420000Y-64770000D03*
G04 #@! TO.N,Net-(D2-Pad1)*
G04 #@! TO.C,D2*
X124420000Y-64770000D03*
G04 #@! TD*
G04 #@! TO.N,Net-(D3-Pad1)*
G04 #@! TO.C,D3*
X124420000Y-68580000D03*
G04 #@! TO.N,Net-(D3-Pad2)*
X119420000Y-68580000D03*
D18*
G04 #@! TD*
G04 #@! TO.P,D3,1*
G04 #@! TO.N,Net-(D3-Pad1)*
X125820000Y-68580000D03*
D17*
G04 #@! TO.P,D3,2*
G04 #@! TO.N,Net-(D3-Pad2)*
X118020000Y-68580000D03*
D16*
X120520000Y-68580000D03*
G04 #@! TO.P,D3,1*
G04 #@! TO.N,Net-(D3-Pad1)*
X123320000Y-68580000D03*
G04 #@! TD*
G04 #@! TO.P,D4,1*
G04 #@! TO.N,Net-(D4-Pad1)*
X123450000Y-72390000D03*
G04 #@! TO.P,D4,2*
G04 #@! TO.N,Net-(D4-Pad2)*
X120650000Y-72390000D03*
D17*
X118150000Y-72390000D03*
D18*
G04 #@! TO.P,D4,1*
G04 #@! TO.N,Net-(D4-Pad1)*
X125950000Y-72390000D03*
D19*
G04 #@! TD*
G04 #@! TO.N,Net-(D4-Pad2)*
G04 #@! TO.C,D4*
X119550000Y-72390000D03*
G04 #@! TO.N,Net-(D4-Pad1)*
G04 #@! TO.C,D4*
X124550000Y-72390000D03*
G04 #@! TD*
G04 #@! TO.N,Net-(D5-Pad1)*
G04 #@! TO.C,D5*
X124550000Y-76200000D03*
G04 #@! TO.N,Net-(D5-Pad2)*
X119550000Y-76200000D03*
D18*
G04 #@! TD*
G04 #@! TO.P,D5,1*
G04 #@! TO.N,Net-(D5-Pad1)*
X125950000Y-76200000D03*
D17*
G04 #@! TO.P,D5,2*
G04 #@! TO.N,Net-(D5-Pad2)*
X118150000Y-76200000D03*
D16*
X120650000Y-76200000D03*
G04 #@! TO.P,D5,1*
G04 #@! TO.N,Net-(D5-Pad1)*
X123450000Y-76200000D03*
G04 #@! TD*
G04 #@! TO.P,D6,1*
G04 #@! TO.N,Net-(D6-Pad1)*
X123450000Y-80010000D03*
G04 #@! TO.P,D6,2*
G04 #@! TO.N,Net-(D6-Pad2)*
X120650000Y-80010000D03*
D17*
X118150000Y-80010000D03*
D18*
G04 #@! TO.P,D6,1*
G04 #@! TO.N,Net-(D6-Pad1)*
X125950000Y-80010000D03*
D19*
G04 #@! TD*
G04 #@! TO.N,Net-(D6-Pad2)*
G04 #@! TO.C,D6*
X119550000Y-80010000D03*
G04 #@! TO.N,Net-(D6-Pad1)*
G04 #@! TO.C,D6*
X124550000Y-80010000D03*
G04 #@! TD*
G04 #@! TO.N,Net-(D7-Pad1)*
G04 #@! TO.C,D7*
X124550000Y-83820000D03*
G04 #@! TO.N,Net-(D7-Pad2)*
X119550000Y-83820000D03*
D18*
G04 #@! TD*
G04 #@! TO.P,D7,1*
G04 #@! TO.N,Net-(D7-Pad1)*
X125950000Y-83820000D03*
D17*
G04 #@! TO.P,D7,2*
G04 #@! TO.N,Net-(D7-Pad2)*
X118150000Y-83820000D03*
D16*
X120650000Y-83820000D03*
G04 #@! TO.P,D7,1*
G04 #@! TO.N,Net-(D7-Pad1)*
X123450000Y-83820000D03*
G04 #@! TD*
G04 #@! TO.P,D8,1*
G04 #@! TO.N,Net-(D8-Pad1)*
X123450000Y-87630000D03*
G04 #@! TO.P,D8,2*
G04 #@! TO.N,Net-(D8-Pad2)*
X120650000Y-87630000D03*
D17*
X118150000Y-87630000D03*
D18*
G04 #@! TO.P,D8,1*
G04 #@! TO.N,Net-(D8-Pad1)*
X125950000Y-87630000D03*
D19*
G04 #@! TD*
G04 #@! TO.N,Net-(D8-Pad2)*
G04 #@! TO.C,D8*
X119550000Y-87630000D03*
G04 #@! TO.N,Net-(D8-Pad1)*
G04 #@! TO.C,D8*
X124550000Y-87630000D03*
G04 #@! TD*
G04 #@! TO.N,Net-(D9-Pad1)*
G04 #@! TO.C,D9*
X124550000Y-91440000D03*
G04 #@! TO.N,Net-(D9-Pad2)*
X119550000Y-91440000D03*
D18*
G04 #@! TD*
G04 #@! TO.P,D9,1*
G04 #@! TO.N,Net-(D9-Pad1)*
X125950000Y-91440000D03*
D17*
G04 #@! TO.P,D9,2*
G04 #@! TO.N,Net-(D9-Pad2)*
X118150000Y-91440000D03*
D16*
X120650000Y-91440000D03*
G04 #@! TO.P,D9,1*
G04 #@! TO.N,Net-(D9-Pad1)*
X123450000Y-91440000D03*
G04 #@! TD*
G04 #@! TO.P,D10,1*
G04 #@! TO.N,Net-(D10-Pad1)*
X123320000Y-95250000D03*
G04 #@! TO.P,D10,2*
G04 #@! TO.N,Net-(D10-Pad2)*
X120520000Y-95250000D03*
D17*
X118020000Y-95250000D03*
D18*
G04 #@! TO.P,D10,1*
G04 #@! TO.N,Net-(D10-Pad1)*
X125820000Y-95250000D03*
D19*
G04 #@! TD*
G04 #@! TO.N,Net-(D10-Pad2)*
G04 #@! TO.C,D10*
X119420000Y-95250000D03*
G04 #@! TO.N,Net-(D10-Pad1)*
G04 #@! TO.C,D10*
X124420000Y-95250000D03*
G04 #@! TD*
G04 #@! TO.N,Net-(D11-Pad1)*
G04 #@! TO.C,D11*
X124420000Y-99060000D03*
G04 #@! TO.N,Net-(D11-Pad2)*
X119420000Y-99060000D03*
D18*
G04 #@! TD*
G04 #@! TO.P,D11,1*
G04 #@! TO.N,Net-(D11-Pad1)*
X125820000Y-99060000D03*
D17*
G04 #@! TO.P,D11,2*
G04 #@! TO.N,Net-(D11-Pad2)*
X118020000Y-99060000D03*
D16*
X120520000Y-99060000D03*
G04 #@! TO.P,D11,1*
G04 #@! TO.N,Net-(D11-Pad1)*
X123320000Y-99060000D03*
G04 #@! TD*
G04 #@! TO.P,D12,1*
G04 #@! TO.N,Net-(D12-Pad1)*
X123320000Y-102870000D03*
G04 #@! TO.P,D12,2*
G04 #@! TO.N,Net-(D12-Pad2)*
X120520000Y-102870000D03*
D17*
X118020000Y-102870000D03*
D18*
G04 #@! TO.P,D12,1*
G04 #@! TO.N,Net-(D12-Pad1)*
X125820000Y-102870000D03*
D19*
G04 #@! TD*
G04 #@! TO.N,Net-(D12-Pad2)*
G04 #@! TO.C,D12*
X119420000Y-102870000D03*
G04 #@! TO.N,Net-(D12-Pad1)*
G04 #@! TO.C,D12*
X124420000Y-102870000D03*
G04 #@! TD*
G04 #@! TO.N,Net-(D13-Pad1)*
G04 #@! TO.C,D13*
X124420000Y-106680000D03*
G04 #@! TO.N,Net-(D13-Pad2)*
X119420000Y-106680000D03*
D18*
G04 #@! TD*
G04 #@! TO.P,D13,1*
G04 #@! TO.N,Net-(D13-Pad1)*
X125820000Y-106680000D03*
D17*
G04 #@! TO.P,D13,2*
G04 #@! TO.N,Net-(D13-Pad2)*
X118020000Y-106680000D03*
D16*
X120520000Y-106680000D03*
G04 #@! TO.P,D13,1*
G04 #@! TO.N,Net-(D13-Pad1)*
X123320000Y-106680000D03*
G04 #@! TD*
D19*
G04 #@! TO.N,Net-(D14-Pad1)*
G04 #@! TO.C,D14*
X124420000Y-110490000D03*
G04 #@! TO.N,Net-(D14-Pad2)*
X119420000Y-110490000D03*
D18*
G04 #@! TD*
G04 #@! TO.P,D14,1*
G04 #@! TO.N,Net-(D14-Pad1)*
X125820000Y-110490000D03*
D17*
G04 #@! TO.P,D14,2*
G04 #@! TO.N,Net-(D14-Pad2)*
X118020000Y-110490000D03*
D16*
X120520000Y-110490000D03*
G04 #@! TO.P,D14,1*
G04 #@! TO.N,Net-(D14-Pad1)*
X123320000Y-110490000D03*
G04 #@! TD*
G04 #@! TO.P,D15,1*
G04 #@! TO.N,Net-(D15-Pad1)*
X123320000Y-114300000D03*
G04 #@! TO.P,D15,2*
G04 #@! TO.N,Net-(D15-Pad2)*
X120520000Y-114300000D03*
D17*
X118020000Y-114300000D03*
D18*
G04 #@! TO.P,D15,1*
G04 #@! TO.N,Net-(D15-Pad1)*
X125820000Y-114300000D03*
D19*
G04 #@! TD*
G04 #@! TO.N,Net-(D15-Pad2)*
G04 #@! TO.C,D15*
X119420000Y-114300000D03*
G04 #@! TO.N,Net-(D15-Pad1)*
G04 #@! TO.C,D15*
X124420000Y-114300000D03*
G04 #@! TD*
G04 #@! TO.N,Net-(D16-Pad1)*
G04 #@! TO.C,D16*
X124420000Y-118110000D03*
G04 #@! TO.N,Net-(D16-Pad2)*
X119420000Y-118110000D03*
D18*
G04 #@! TD*
G04 #@! TO.P,D16,1*
G04 #@! TO.N,Net-(D16-Pad1)*
X125820000Y-118110000D03*
D17*
G04 #@! TO.P,D16,2*
G04 #@! TO.N,Net-(D16-Pad2)*
X118020000Y-118110000D03*
D16*
X120520000Y-118110000D03*
G04 #@! TO.P,D16,1*
G04 #@! TO.N,Net-(D16-Pad1)*
X123320000Y-118110000D03*
G04 #@! TD*
D19*
G04 #@! TO.N,Net-(D17-Pad1)*
G04 #@! TO.C,D17*
X162600000Y-72390000D03*
G04 #@! TO.N,Net-(D17-Pad2)*
X167600000Y-72390000D03*
D18*
G04 #@! TD*
G04 #@! TO.P,D17,1*
G04 #@! TO.N,Net-(D17-Pad1)*
X161200000Y-72390000D03*
D17*
G04 #@! TO.P,D17,2*
G04 #@! TO.N,Net-(D17-Pad2)*
X169000000Y-72390000D03*
D16*
X166500000Y-72390000D03*
G04 #@! TO.P,D17,1*
G04 #@! TO.N,Net-(D17-Pad1)*
X163700000Y-72390000D03*
G04 #@! TD*
G04 #@! TO.P,D18,1*
G04 #@! TO.N,Net-(D18-Pad1)*
X163700000Y-118110000D03*
G04 #@! TO.P,D18,2*
G04 #@! TO.N,Net-(D18-Pad2)*
X166500000Y-118110000D03*
D17*
X169000000Y-118110000D03*
D18*
G04 #@! TO.P,D18,1*
G04 #@! TO.N,Net-(D18-Pad1)*
X161200000Y-118110000D03*
D19*
G04 #@! TD*
G04 #@! TO.N,Net-(D18-Pad2)*
G04 #@! TO.C,D18*
X167600000Y-118110000D03*
G04 #@! TO.N,Net-(D18-Pad1)*
G04 #@! TO.C,D18*
X162600000Y-118110000D03*
G04 #@! TD*
G04 #@! TO.N,Net-(D19-Pad1)*
G04 #@! TO.C,D19*
X162600000Y-114300000D03*
G04 #@! TO.N,Net-(D19-Pad2)*
X167600000Y-114300000D03*
D18*
G04 #@! TD*
G04 #@! TO.P,D19,1*
G04 #@! TO.N,Net-(D19-Pad1)*
X161200000Y-114300000D03*
D17*
G04 #@! TO.P,D19,2*
G04 #@! TO.N,Net-(D19-Pad2)*
X169000000Y-114300000D03*
D16*
X166500000Y-114300000D03*
G04 #@! TO.P,D19,1*
G04 #@! TO.N,Net-(D19-Pad1)*
X163700000Y-114300000D03*
G04 #@! TD*
G04 #@! TO.P,D20,1*
G04 #@! TO.N,Net-(D20-Pad1)*
X163700000Y-110490000D03*
G04 #@! TO.P,D20,2*
G04 #@! TO.N,Net-(D20-Pad2)*
X166500000Y-110490000D03*
D17*
X169000000Y-110490000D03*
D18*
G04 #@! TO.P,D20,1*
G04 #@! TO.N,Net-(D20-Pad1)*
X161200000Y-110490000D03*
D19*
G04 #@! TD*
G04 #@! TO.N,Net-(D20-Pad2)*
G04 #@! TO.C,D20*
X167600000Y-110490000D03*
G04 #@! TO.N,Net-(D20-Pad1)*
G04 #@! TO.C,D20*
X162600000Y-110490000D03*
G04 #@! TD*
G04 #@! TO.N,Net-(D21-Pad1)*
G04 #@! TO.C,D21*
X162600000Y-106680000D03*
G04 #@! TO.N,Net-(D21-Pad2)*
X167600000Y-106680000D03*
D18*
G04 #@! TD*
G04 #@! TO.P,D21,1*
G04 #@! TO.N,Net-(D21-Pad1)*
X161200000Y-106680000D03*
D17*
G04 #@! TO.P,D21,2*
G04 #@! TO.N,Net-(D21-Pad2)*
X169000000Y-106680000D03*
D16*
X166500000Y-106680000D03*
G04 #@! TO.P,D21,1*
G04 #@! TO.N,Net-(D21-Pad1)*
X163700000Y-106680000D03*
G04 #@! TD*
G04 #@! TO.P,D22,1*
G04 #@! TO.N,Net-(D22-Pad1)*
X163700000Y-102870000D03*
G04 #@! TO.P,D22,2*
G04 #@! TO.N,Net-(D22-Pad2)*
X166500000Y-102870000D03*
D17*
X169000000Y-102870000D03*
D18*
G04 #@! TO.P,D22,1*
G04 #@! TO.N,Net-(D22-Pad1)*
X161200000Y-102870000D03*
D19*
G04 #@! TD*
G04 #@! TO.N,Net-(D22-Pad2)*
G04 #@! TO.C,D22*
X167600000Y-102870000D03*
G04 #@! TO.N,Net-(D22-Pad1)*
G04 #@! TO.C,D22*
X162600000Y-102870000D03*
G04 #@! TD*
G04 #@! TO.N,Net-(D23-Pad1)*
G04 #@! TO.C,D23*
X162600000Y-99060000D03*
G04 #@! TO.N,Net-(D23-Pad2)*
X167600000Y-99060000D03*
D18*
G04 #@! TD*
G04 #@! TO.P,D23,1*
G04 #@! TO.N,Net-(D23-Pad1)*
X161200000Y-99060000D03*
D17*
G04 #@! TO.P,D23,2*
G04 #@! TO.N,Net-(D23-Pad2)*
X169000000Y-99060000D03*
D16*
X166500000Y-99060000D03*
G04 #@! TO.P,D23,1*
G04 #@! TO.N,Net-(D23-Pad1)*
X163700000Y-99060000D03*
G04 #@! TD*
G04 #@! TO.P,D24,1*
G04 #@! TO.N,Net-(D24-Pad1)*
X163700000Y-95250000D03*
G04 #@! TO.P,D24,2*
G04 #@! TO.N,Net-(D24-Pad2)*
X166500000Y-95250000D03*
D17*
X169000000Y-95250000D03*
D18*
G04 #@! TO.P,D24,1*
G04 #@! TO.N,Net-(D24-Pad1)*
X161200000Y-95250000D03*
D19*
G04 #@! TD*
G04 #@! TO.N,Net-(D24-Pad2)*
G04 #@! TO.C,D24*
X167600000Y-95250000D03*
G04 #@! TO.N,Net-(D24-Pad1)*
G04 #@! TO.C,D24*
X162600000Y-95250000D03*
G04 #@! TD*
G04 #@! TO.N,Net-(D25-Pad1)*
G04 #@! TO.C,D25*
X162600000Y-91440000D03*
G04 #@! TO.N,Net-(D25-Pad2)*
X167600000Y-91440000D03*
D18*
G04 #@! TD*
G04 #@! TO.P,D25,1*
G04 #@! TO.N,Net-(D25-Pad1)*
X161200000Y-91440000D03*
D17*
G04 #@! TO.P,D25,2*
G04 #@! TO.N,Net-(D25-Pad2)*
X169000000Y-91440000D03*
D16*
X166500000Y-91440000D03*
G04 #@! TO.P,D25,1*
G04 #@! TO.N,Net-(D25-Pad1)*
X163700000Y-91440000D03*
G04 #@! TD*
G04 #@! TO.P,D26,1*
G04 #@! TO.N,Net-(D26-Pad1)*
X163700000Y-87630000D03*
G04 #@! TO.P,D26,2*
G04 #@! TO.N,Net-(D26-Pad2)*
X166500000Y-87630000D03*
D17*
X169000000Y-87630000D03*
D18*
G04 #@! TO.P,D26,1*
G04 #@! TO.N,Net-(D26-Pad1)*
X161200000Y-87630000D03*
D19*
G04 #@! TD*
G04 #@! TO.N,Net-(D26-Pad2)*
G04 #@! TO.C,D26*
X167600000Y-87630000D03*
G04 #@! TO.N,Net-(D26-Pad1)*
G04 #@! TO.C,D26*
X162600000Y-87630000D03*
G04 #@! TD*
G04 #@! TO.N,Net-(D27-Pad1)*
G04 #@! TO.C,D27*
X162600000Y-83820000D03*
G04 #@! TO.N,Net-(D27-Pad2)*
X167600000Y-83820000D03*
D18*
G04 #@! TD*
G04 #@! TO.P,D27,1*
G04 #@! TO.N,Net-(D27-Pad1)*
X161200000Y-83820000D03*
D17*
G04 #@! TO.P,D27,2*
G04 #@! TO.N,Net-(D27-Pad2)*
X169000000Y-83820000D03*
D16*
X166500000Y-83820000D03*
G04 #@! TO.P,D27,1*
G04 #@! TO.N,Net-(D27-Pad1)*
X163700000Y-83820000D03*
G04 #@! TD*
G04 #@! TO.P,D28,1*
G04 #@! TO.N,Net-(D28-Pad1)*
X163700000Y-80010000D03*
G04 #@! TO.P,D28,2*
G04 #@! TO.N,Net-(D28-Pad2)*
X166500000Y-80010000D03*
D17*
X169000000Y-80010000D03*
D18*
G04 #@! TO.P,D28,1*
G04 #@! TO.N,Net-(D28-Pad1)*
X161200000Y-80010000D03*
D19*
G04 #@! TD*
G04 #@! TO.N,Net-(D28-Pad2)*
G04 #@! TO.C,D28*
X167600000Y-80010000D03*
G04 #@! TO.N,Net-(D28-Pad1)*
G04 #@! TO.C,D28*
X162600000Y-80010000D03*
G04 #@! TD*
G04 #@! TO.N,Net-(D29-Pad1)*
G04 #@! TO.C,D29*
X162600000Y-76200000D03*
G04 #@! TO.N,Net-(D29-Pad2)*
X167600000Y-76200000D03*
D18*
G04 #@! TD*
G04 #@! TO.P,D29,1*
G04 #@! TO.N,Net-(D29-Pad1)*
X161200000Y-76200000D03*
D17*
G04 #@! TO.P,D29,2*
G04 #@! TO.N,Net-(D29-Pad2)*
X169000000Y-76200000D03*
D16*
X166500000Y-76200000D03*
G04 #@! TO.P,D29,1*
G04 #@! TO.N,Net-(D29-Pad1)*
X163700000Y-76200000D03*
G04 #@! TD*
D20*
G04 #@! TO.N,Net-(J17-Pad1)*
X156200000Y-107940000D02*
X156210000Y-107950000D01*
X151125000Y-107940000D02*
X156200000Y-107940000D01*
G04 #@! TO.N,Net-(D1-Pad1)*
X130820000Y-62220000D02*
X130810000Y-62230000D01*
X135910000Y-62220000D02*
X130820000Y-62220000D01*
X125820000Y-62010000D02*
X125820000Y-60960000D01*
X126040000Y-62230000D02*
X125820000Y-62010000D01*
X130810000Y-62230000D02*
X126040000Y-62230000D01*
G04 #@! TO.N,Net-(D1-Pad2)*
X106829999Y-67269999D02*
X104330000Y-64770000D01*
X107345001Y-67785001D02*
X106829999Y-67269999D01*
X113116001Y-67785001D02*
X107345001Y-67785001D01*
X117220001Y-61759999D02*
X117220001Y-63681001D01*
X117220001Y-63681001D02*
X113116001Y-67785001D01*
X118020000Y-60960000D02*
X117220001Y-61759999D01*
G04 #@! TO.N,Net-(D2-Pad2)*
X110400000Y-72390000D02*
X104330000Y-72390000D01*
X118020000Y-64770000D02*
X110400000Y-72390000D01*
G04 #@! TO.N,Net-(D2-Pad1)*
X130820000Y-64760000D02*
X130810000Y-64770000D01*
X135910000Y-64760000D02*
X130820000Y-64760000D01*
X130810000Y-64770000D02*
X125820000Y-64770000D01*
G04 #@! TO.N,Net-(D3-Pad1)*
X130820000Y-72380000D02*
X130810000Y-72390000D01*
X135910000Y-72380000D02*
X130820000Y-72380000D01*
X125820000Y-69630000D02*
X125820000Y-68580000D01*
X128580000Y-72390000D02*
X125820000Y-69630000D01*
X130810000Y-72390000D02*
X128580000Y-72390000D01*
G04 #@! TO.N,Net-(D3-Pad2)*
X117220001Y-69379999D02*
X117220001Y-69469999D01*
X118020000Y-68580000D02*
X117220001Y-69379999D01*
X114680001Y-69469999D02*
X104140000Y-80010000D01*
X117220001Y-69469999D02*
X114680001Y-69469999D01*
G04 #@! TO.N,Net-(D4-Pad2)*
X118150000Y-73620000D02*
X104140000Y-87630000D01*
X118150000Y-72390000D02*
X118150000Y-73620000D01*
G04 #@! TO.N,Net-(D4-Pad1)*
X130820000Y-74920000D02*
X130810000Y-74930000D01*
X135910000Y-74920000D02*
X130820000Y-74920000D01*
X125950000Y-73440000D02*
X125950000Y-72390000D01*
X127440000Y-74930000D02*
X125950000Y-73440000D01*
X130810000Y-74930000D02*
X127440000Y-74930000D01*
G04 #@! TO.N,Net-(D5-Pad1)*
X130820000Y-77460000D02*
X130810000Y-77470000D01*
X135910000Y-77460000D02*
X130820000Y-77460000D01*
X125950000Y-77250000D02*
X125950000Y-76200000D01*
X126170000Y-77470000D02*
X125950000Y-77250000D01*
X130810000Y-77470000D02*
X126170000Y-77470000D01*
G04 #@! TO.N,Net-(D5-Pad2)*
X106829999Y-92750001D02*
X104330000Y-95250000D01*
X106965001Y-92614999D02*
X106829999Y-92750001D01*
X106965001Y-87384999D02*
X106965001Y-92614999D01*
X118150000Y-76200000D02*
X106965001Y-87384999D01*
G04 #@! TO.N,Net-(D6-Pad2)*
X106829999Y-100370001D02*
X104330000Y-102870000D01*
X109855000Y-88305000D02*
X109855000Y-97345000D01*
X109855000Y-97345000D02*
X106829999Y-100370001D01*
X118150000Y-80010000D02*
X109855000Y-88305000D01*
G04 #@! TO.N,Net-(D6-Pad1)*
X130820000Y-80000000D02*
X130810000Y-80010000D01*
X135910000Y-80000000D02*
X130820000Y-80000000D01*
X130810000Y-80010000D02*
X125950000Y-80010000D01*
G04 #@! TO.N,Net-(D7-Pad1)*
X130820000Y-82540000D02*
X130810000Y-82550000D01*
X135910000Y-82540000D02*
X130820000Y-82540000D01*
X125950000Y-82770000D02*
X125950000Y-83820000D01*
X126170000Y-82550000D02*
X125950000Y-82770000D01*
X130810000Y-82550000D02*
X126170000Y-82550000D01*
G04 #@! TO.N,Net-(D7-Pad2)*
X110305010Y-104514990D02*
X106829999Y-107990001D01*
X110305010Y-91664990D02*
X110305010Y-104514990D01*
X106829999Y-107990001D02*
X104330000Y-110490000D01*
X118150000Y-83820000D02*
X110305010Y-91664990D01*
G04 #@! TO.N,Net-(D8-Pad2)*
X106829999Y-115610001D02*
X104330000Y-118110000D01*
X110755020Y-111684980D02*
X106829999Y-115610001D01*
X110755020Y-95024980D02*
X110755020Y-111684980D01*
X118150000Y-87630000D02*
X110755020Y-95024980D01*
G04 #@! TO.N,Net-(D8-Pad1)*
X130820000Y-85080000D02*
X130810000Y-85090000D01*
X135910000Y-85080000D02*
X130820000Y-85080000D01*
X127440000Y-85090000D02*
X125950000Y-86580000D01*
X125950000Y-86580000D02*
X125950000Y-87630000D01*
X130810000Y-85090000D02*
X127440000Y-85090000D01*
G04 #@! TO.N,Net-(D9-Pad1)*
X130820000Y-87620000D02*
X130810000Y-87630000D01*
X135910000Y-87620000D02*
X130820000Y-87620000D01*
X125950000Y-91390000D02*
X125950000Y-91440000D01*
X129710000Y-87630000D02*
X125950000Y-91390000D01*
X130810000Y-87630000D02*
X129710000Y-87630000D01*
G04 #@! TO.N,Net-(D9-Pad2)*
X106829999Y-123230001D02*
X104330000Y-125730000D01*
X111205030Y-118854970D02*
X106829999Y-123230001D01*
X111205030Y-98384970D02*
X111205030Y-118854970D01*
X118150000Y-91440000D02*
X111205030Y-98384970D01*
G04 #@! TO.N,Net-(D10-Pad2)*
X113030000Y-100240000D02*
X113030000Y-125540000D01*
X118020000Y-95250000D02*
X113030000Y-100240000D01*
G04 #@! TO.N,Net-(D10-Pad1)*
X130820000Y-90160000D02*
X130810000Y-90170000D01*
X135910000Y-90160000D02*
X130820000Y-90160000D01*
X130810000Y-91270000D02*
X126830000Y-95250000D01*
X126830000Y-95250000D02*
X125820000Y-95250000D01*
X130810000Y-90170000D02*
X130810000Y-91270000D01*
G04 #@! TO.N,Net-(D11-Pad1)*
X130820000Y-95240000D02*
X130810000Y-95250000D01*
X135910000Y-95240000D02*
X130820000Y-95240000D01*
X125820000Y-98010000D02*
X125820000Y-99060000D01*
X128580000Y-95250000D02*
X125820000Y-98010000D01*
X130810000Y-95250000D02*
X128580000Y-95250000D01*
G04 #@! TO.N,Net-(D12-Pad1)*
X130820000Y-97780000D02*
X130810000Y-97790000D01*
X135910000Y-97780000D02*
X130820000Y-97780000D01*
X125820000Y-101820000D02*
X125820000Y-102870000D01*
X125820000Y-101680000D02*
X125820000Y-101820000D01*
X129710000Y-97790000D02*
X125820000Y-101680000D01*
X130810000Y-97790000D02*
X129710000Y-97790000D01*
G04 #@! TO.N,Net-(D13-Pad1)*
X130820000Y-100320000D02*
X130810000Y-100330000D01*
X135910000Y-100320000D02*
X130820000Y-100320000D01*
X126945001Y-104504999D02*
X125820000Y-105630000D01*
X126945001Y-103094999D02*
X126945001Y-104504999D01*
X129710000Y-100330000D02*
X126945001Y-103094999D01*
X125820000Y-105630000D02*
X125820000Y-106680000D01*
X130810000Y-100330000D02*
X129710000Y-100330000D01*
G04 #@! TO.N,Net-(D13-Pad2)*
X116888630Y-106680000D02*
X118020000Y-106680000D01*
X113665000Y-121993998D02*
X113665000Y-109903630D01*
X114386001Y-122714999D02*
X113665000Y-121993998D01*
X113665000Y-109903630D02*
X116888630Y-106680000D01*
X182690000Y-125730000D02*
X178361002Y-125730000D01*
X178361002Y-125730000D02*
X175346001Y-122714999D01*
X175346001Y-122714999D02*
X114386001Y-122714999D01*
G04 #@! TO.N,Net-(D14-Pad1)*
X130820000Y-102860000D02*
X130810000Y-102870000D01*
X135910000Y-102860000D02*
X130820000Y-102860000D01*
X125820000Y-109440000D02*
X125820000Y-110490000D01*
X126945001Y-108314999D02*
X125820000Y-109440000D01*
X126945001Y-105634999D02*
X126945001Y-108314999D01*
X129710000Y-102870000D02*
X126945001Y-105634999D01*
X130810000Y-102870000D02*
X129710000Y-102870000D01*
G04 #@! TO.N,Net-(D14-Pad2)*
X116888630Y-110490000D02*
X114300000Y-113078630D01*
X118020000Y-110490000D02*
X116888630Y-110490000D01*
X114300000Y-113078630D02*
X114300000Y-121992588D01*
X178807412Y-121992588D02*
X182690000Y-118110000D01*
X114300000Y-121992588D02*
X178807412Y-121992588D01*
G04 #@! TO.N,Net-(D15-Pad2)*
X118020000Y-114300000D02*
X114935000Y-117385000D01*
X114935000Y-117385000D02*
X114935000Y-121285000D01*
X114935000Y-121285000D02*
X176530000Y-121285000D01*
X176530000Y-116650000D02*
X182690000Y-110490000D01*
X176530000Y-121285000D02*
X176530000Y-116650000D01*
G04 #@! TO.N,Net-(D15-Pad1)*
X130820000Y-105400000D02*
X130810000Y-105410000D01*
X135910000Y-105400000D02*
X130820000Y-105400000D01*
X125820000Y-113250000D02*
X125820000Y-114300000D01*
X127000000Y-112070000D02*
X125820000Y-113250000D01*
X127000000Y-109220000D02*
X127000000Y-112070000D01*
X130810000Y-105410000D02*
X127000000Y-109220000D01*
G04 #@! TO.N,Net-(D16-Pad2)*
X118020000Y-118110000D02*
X118020000Y-120560000D01*
X118020000Y-120560000D02*
X118110000Y-120650000D01*
X168125002Y-120650000D02*
X177800000Y-110975002D01*
X118110000Y-120650000D02*
X168125002Y-120650000D01*
X177800000Y-107760000D02*
X182690000Y-102870000D01*
X177800000Y-110975002D02*
X177800000Y-107760000D01*
G04 #@! TO.N,Net-(D16-Pad1)*
X125820000Y-117060000D02*
X125820000Y-118110000D01*
X135900000Y-107950000D02*
X135910000Y-107940000D01*
X130810000Y-107950000D02*
X135900000Y-107950000D01*
X126870000Y-118110000D02*
X125820000Y-118110000D01*
X130810000Y-114170000D02*
X126870000Y-118110000D01*
X130810000Y-107950000D02*
X130810000Y-114170000D01*
G04 #@! TO.N,Net-(D17-Pad1)*
X156200000Y-72380000D02*
X156210000Y-72390000D01*
X151125000Y-72380000D02*
X156200000Y-72380000D01*
X156210000Y-72390000D02*
X161200000Y-72390000D01*
G04 #@! TO.N,Net-(D18-Pad2)*
X169799999Y-117310001D02*
X169000000Y-118110000D01*
X174705030Y-112404970D02*
X169799999Y-117310001D01*
X174705030Y-99699437D02*
X174705030Y-112404970D01*
X179154467Y-95250000D02*
X174705030Y-99699437D01*
X182690000Y-95250000D02*
X179154467Y-95250000D01*
G04 #@! TO.N,Net-(D18-Pad1)*
X156200000Y-105400000D02*
X156210000Y-105410000D01*
X151125000Y-105400000D02*
X156200000Y-105400000D01*
X161200000Y-117060000D02*
X161200000Y-118110000D01*
X158724969Y-115434969D02*
X161400000Y-118110000D01*
X158724969Y-106824969D02*
X158724969Y-115434969D01*
X157310000Y-105410000D02*
X158724969Y-106824969D01*
X161400000Y-118110000D02*
X162600000Y-118110000D01*
X156210000Y-105410000D02*
X157310000Y-105410000D01*
G04 #@! TO.N,Net-(D19-Pad1)*
X156200000Y-102860000D02*
X156210000Y-102870000D01*
X151125000Y-102860000D02*
X156200000Y-102860000D01*
X161200000Y-113250000D02*
X161200000Y-114300000D01*
X159174979Y-111224979D02*
X161200000Y-113250000D01*
X159174979Y-104734979D02*
X159174979Y-111224979D01*
X157310000Y-102870000D02*
X159174979Y-104734979D01*
X156210000Y-102870000D02*
X157310000Y-102870000D01*
G04 #@! TO.N,Net-(D19-Pad2)*
X174255020Y-109044980D02*
X169799999Y-113500001D01*
X169799999Y-113500001D02*
X169000000Y-114300000D01*
X174255020Y-95814980D02*
X174255020Y-109044980D01*
X182440000Y-87630000D02*
X174255020Y-95814980D01*
X186690000Y-87630000D02*
X182440000Y-87630000D01*
G04 #@! TO.N,Net-(D20-Pad2)*
X169799999Y-109690001D02*
X169000000Y-110490000D01*
X173805010Y-105684990D02*
X169799999Y-109690001D01*
X173805010Y-88894990D02*
X173805010Y-105684990D01*
X182690000Y-80010000D02*
X173805010Y-88894990D01*
G04 #@! TO.N,Net-(D20-Pad1)*
X156200000Y-100320000D02*
X156210000Y-100330000D01*
X151125000Y-100320000D02*
X156200000Y-100320000D01*
X159624989Y-107864989D02*
X161200000Y-109440000D01*
X161200000Y-109440000D02*
X161200000Y-110490000D01*
X159624989Y-102644989D02*
X159624989Y-107864989D01*
X157310000Y-100330000D02*
X159624989Y-102644989D01*
X156210000Y-100330000D02*
X157310000Y-100330000D01*
G04 #@! TO.N,Net-(D21-Pad1)*
X156200000Y-97780000D02*
X156210000Y-97790000D01*
X151125000Y-97780000D02*
X156200000Y-97780000D01*
X161200000Y-105630000D02*
X161200000Y-106680000D01*
X160074999Y-104504999D02*
X161200000Y-105630000D01*
X160074999Y-101654999D02*
X160074999Y-104504999D01*
X156210000Y-97790000D02*
X160074999Y-101654999D01*
G04 #@! TO.N,Net-(D21-Pad2)*
X173355000Y-102325000D02*
X169799999Y-105880001D01*
X173355000Y-81915000D02*
X173355000Y-102325000D01*
X169799999Y-105880001D02*
X169000000Y-106680000D01*
X182880000Y-72390000D02*
X173355000Y-81915000D01*
G04 #@! TO.N,Net-(D22-Pad2)*
X169799999Y-102070001D02*
X169000000Y-102870000D01*
X170125001Y-101744999D02*
X169799999Y-102070001D01*
X170125001Y-77334999D02*
X170125001Y-101744999D01*
X182690000Y-64770000D02*
X170125001Y-77334999D01*
G04 #@! TO.N,Net-(D22-Pad1)*
X156200000Y-95240000D02*
X156210000Y-95250000D01*
X151125000Y-95240000D02*
X156200000Y-95240000D01*
X161200000Y-101820000D02*
X161200000Y-102870000D01*
X160074999Y-100694999D02*
X161200000Y-101820000D01*
X160074999Y-98014999D02*
X160074999Y-100694999D01*
X157310000Y-95250000D02*
X160074999Y-98014999D01*
X156210000Y-95250000D02*
X157310000Y-95250000D01*
G04 #@! TO.N,Net-(D23-Pad1)*
X156200000Y-90160000D02*
X156210000Y-90170000D01*
X151125000Y-90160000D02*
X156200000Y-90160000D01*
X161200000Y-98010000D02*
X161200000Y-99060000D01*
X157385001Y-94195001D02*
X161200000Y-98010000D01*
X157385001Y-92445001D02*
X157385001Y-94195001D01*
X156210000Y-91270000D02*
X157385001Y-92445001D01*
X156210000Y-90170000D02*
X156210000Y-91270000D01*
G04 #@! TO.N,Net-(D24-Pad1)*
X156200000Y-87620000D02*
X156210000Y-87630000D01*
X151125000Y-87620000D02*
X156200000Y-87620000D01*
X161200000Y-94200000D02*
X161200000Y-95250000D01*
X160074999Y-93074999D02*
X161200000Y-94200000D01*
X160074999Y-90394999D02*
X160074999Y-93074999D01*
X157310000Y-87630000D02*
X160074999Y-90394999D01*
X156210000Y-87630000D02*
X157310000Y-87630000D01*
G04 #@! TO.N,Net-(D25-Pad1)*
X156200000Y-85080000D02*
X156210000Y-85090000D01*
X151125000Y-85080000D02*
X156200000Y-85080000D01*
X160074999Y-87854999D02*
X160074999Y-89264999D01*
X161200000Y-90390000D02*
X161200000Y-91440000D01*
X160074999Y-89264999D02*
X161200000Y-90390000D01*
X157310000Y-85090000D02*
X160074999Y-87854999D01*
X156210000Y-85090000D02*
X157310000Y-85090000D01*
G04 #@! TO.N,Net-(D26-Pad1)*
X156200000Y-82540000D02*
X156210000Y-82550000D01*
X151125000Y-82540000D02*
X156200000Y-82540000D01*
X161200000Y-86440000D02*
X161200000Y-86580000D01*
X157310000Y-82550000D02*
X161200000Y-86440000D01*
X161200000Y-86580000D02*
X161200000Y-87630000D01*
X156210000Y-82550000D02*
X157310000Y-82550000D01*
G04 #@! TO.N,Net-(D27-Pad1)*
X156200000Y-80000000D02*
X156210000Y-80010000D01*
X151125000Y-80000000D02*
X156200000Y-80000000D01*
X161200000Y-82770000D02*
X161200000Y-83820000D01*
X158440000Y-80010000D02*
X161200000Y-82770000D01*
X156210000Y-80010000D02*
X158440000Y-80010000D01*
G04 #@! TO.N,Net-(D28-Pad1)*
X156200000Y-77460000D02*
X156210000Y-77470000D01*
X151125000Y-77460000D02*
X156200000Y-77460000D01*
X161200000Y-78960000D02*
X161200000Y-80010000D01*
X159710000Y-77470000D02*
X161200000Y-78960000D01*
X156210000Y-77470000D02*
X159710000Y-77470000D01*
G04 #@! TO.N,Net-(D29-Pad1)*
X156200000Y-74920000D02*
X156210000Y-74930000D01*
X151125000Y-74920000D02*
X156200000Y-74920000D01*
X160980000Y-74930000D02*
X161200000Y-75150000D01*
X161200000Y-75150000D02*
X161200000Y-76200000D01*
X156210000Y-74930000D02*
X160980000Y-74930000D01*
G04 #@! TO.N,Net-(J31-Pad1)*
X156200000Y-69840000D02*
X156210000Y-69850000D01*
D21*
X151125000Y-69840000D02*
X156200000Y-69840000D01*
D20*
G04 #@! TO.N,Net-(J32-Pad1)*
X156200000Y-67300000D02*
X156210000Y-67310000D01*
X151125000Y-67300000D02*
X156200000Y-67300000D01*
G04 #@! TO.N,Net-(J33-Pad1)*
X134707919Y-67300000D02*
X134697919Y-67310000D01*
X135910000Y-67300000D02*
X134707919Y-67300000D01*
X134697919Y-67310000D02*
X132080000Y-67310000D01*
X135910000Y-69840000D02*
X131985001Y-69840000D01*
X156200000Y-64760000D02*
X156210000Y-64770000D01*
X151125000Y-64760000D02*
X156200000Y-64760000D01*
G04 #@! TO.N,Net-(J34-Pad1)*
X156200000Y-62220000D02*
X156210000Y-62230000D01*
D22*
X151125000Y-62220000D02*
X156200000Y-62220000D01*
D20*
G04 #@! TO.N,Net-(J36-Pad1)*
X130810000Y-69850000D02*
X129710000Y-69850000D01*
G04 #@! TD*
D23*
G04 #@! TO.N,Net-(J33-Pad1)*
G36*
X149532201Y-57924338D02*
X149044138Y-58412401D01*
X148780000Y-59050087D01*
X148780000Y-59740313D01*
X149044138Y-60377999D01*
X149532201Y-60866062D01*
X150130859Y-61114034D01*
X149866078Y-61378815D01*
X149640000Y-61924615D01*
X149640000Y-62515385D01*
X149866078Y-63061185D01*
X150283815Y-63478922D01*
X150330247Y-63498155D01*
X150260647Y-63716042D01*
X151125000Y-64580395D01*
X151989353Y-63716042D01*
X151919753Y-63498155D01*
X151966185Y-63478922D01*
X152365107Y-63080000D01*
X154712560Y-63080000D01*
X154761843Y-63327765D01*
X154878949Y-63503025D01*
X154821673Y-63560301D01*
X154725000Y-63793690D01*
X154725000Y-64484250D01*
X154883750Y-64643000D01*
X156083000Y-64643000D01*
X156083000Y-64623000D01*
X156337000Y-64623000D01*
X156337000Y-64643000D01*
X157536250Y-64643000D01*
X157695000Y-64484250D01*
X157695000Y-63793690D01*
X157598327Y-63560301D01*
X157541051Y-63503025D01*
X157658157Y-63327765D01*
X157707440Y-63080000D01*
X157707440Y-61380000D01*
X157658157Y-61132235D01*
X157517809Y-60922191D01*
X157307765Y-60781843D01*
X157060000Y-60732560D01*
X155360000Y-60732560D01*
X155112235Y-60781843D01*
X154902191Y-60922191D01*
X154761843Y-61132235D01*
X154716538Y-61360000D01*
X152365107Y-61360000D01*
X151966185Y-60961078D01*
X151567800Y-60796061D01*
X151985862Y-60377999D01*
X152250000Y-59740313D01*
X152250000Y-59050087D01*
X151985862Y-58412401D01*
X151497799Y-57924338D01*
X151468012Y-57912000D01*
X172112560Y-57912000D01*
X172112560Y-64960000D01*
X172125000Y-65022541D01*
X172125000Y-65583590D01*
X172602276Y-66735835D01*
X173484165Y-67617724D01*
X174636410Y-68095000D01*
X175883590Y-68095000D01*
X177035835Y-67617724D01*
X177917724Y-66735835D01*
X178395000Y-65583590D01*
X178395000Y-65022541D01*
X178407440Y-64960000D01*
X178407440Y-57912000D01*
X185373019Y-57912000D01*
X189702005Y-61622560D01*
X182690000Y-61622560D01*
X182627459Y-61635000D01*
X182066410Y-61635000D01*
X180914165Y-62112276D01*
X180032276Y-62994165D01*
X179555000Y-64146410D01*
X179555000Y-65393590D01*
X179975773Y-66409425D01*
X170435000Y-75950199D01*
X170435000Y-75914561D01*
X170216534Y-75387138D01*
X169812862Y-74983466D01*
X169285439Y-74765000D01*
X168714561Y-74765000D01*
X168187138Y-74983466D01*
X167868044Y-75302560D01*
X167864965Y-75302560D01*
X167757809Y-75142191D01*
X167547765Y-75001843D01*
X167300000Y-74952560D01*
X165700000Y-74952560D01*
X165452235Y-75001843D01*
X165242191Y-75142191D01*
X165101843Y-75352235D01*
X165100000Y-75361500D01*
X165098157Y-75352235D01*
X164957809Y-75142191D01*
X164747765Y-75001843D01*
X164500000Y-74952560D01*
X162900000Y-74952560D01*
X162652235Y-75001843D01*
X162545377Y-75073244D01*
X162457809Y-74942191D01*
X162247765Y-74801843D01*
X162000000Y-74752560D01*
X161848483Y-74752560D01*
X161747929Y-74602071D01*
X161684470Y-74559669D01*
X161570331Y-74445530D01*
X161527929Y-74382071D01*
X161276537Y-74214096D01*
X161054852Y-74170000D01*
X161054847Y-74170000D01*
X160980000Y-74155112D01*
X160905153Y-74170000D01*
X157707440Y-74170000D01*
X157707440Y-74080000D01*
X157658157Y-73832235D01*
X157543072Y-73660000D01*
X157658157Y-73487765D01*
X157707440Y-73240000D01*
X157707440Y-73150000D01*
X159752560Y-73150000D01*
X159752560Y-73190000D01*
X159801843Y-73437765D01*
X159942191Y-73647809D01*
X160152235Y-73788157D01*
X160400000Y-73837440D01*
X162000000Y-73837440D01*
X162247765Y-73788157D01*
X162457809Y-73647809D01*
X162545377Y-73516756D01*
X162652235Y-73588157D01*
X162900000Y-73637440D01*
X164500000Y-73637440D01*
X164747765Y-73588157D01*
X164957809Y-73447809D01*
X165098157Y-73237765D01*
X165100000Y-73228500D01*
X165101843Y-73237765D01*
X165242191Y-73447809D01*
X165452235Y-73588157D01*
X165700000Y-73637440D01*
X167300000Y-73637440D01*
X167547765Y-73588157D01*
X167757809Y-73447809D01*
X167864965Y-73287440D01*
X167868044Y-73287440D01*
X168187138Y-73606534D01*
X168714561Y-73825000D01*
X169285439Y-73825000D01*
X169812862Y-73606534D01*
X170216534Y-73202862D01*
X170435000Y-72675439D01*
X170435000Y-72104561D01*
X170216534Y-71577138D01*
X169812862Y-71173466D01*
X169285439Y-70955000D01*
X168714561Y-70955000D01*
X168187138Y-71173466D01*
X167868044Y-71492560D01*
X167864965Y-71492560D01*
X167757809Y-71332191D01*
X167547765Y-71191843D01*
X167300000Y-71142560D01*
X165700000Y-71142560D01*
X165452235Y-71191843D01*
X165242191Y-71332191D01*
X165101843Y-71542235D01*
X165100000Y-71551500D01*
X165098157Y-71542235D01*
X164957809Y-71332191D01*
X164747765Y-71191843D01*
X164500000Y-71142560D01*
X162900000Y-71142560D01*
X162652235Y-71191843D01*
X162545377Y-71263244D01*
X162457809Y-71132191D01*
X162247765Y-70991843D01*
X162000000Y-70942560D01*
X160400000Y-70942560D01*
X160152235Y-70991843D01*
X159942191Y-71132191D01*
X159801843Y-71342235D01*
X159752560Y-71590000D01*
X159752560Y-71630000D01*
X157707440Y-71630000D01*
X157707440Y-71540000D01*
X157658157Y-71292235D01*
X157543072Y-71120000D01*
X157658157Y-70947765D01*
X157707440Y-70700000D01*
X157707440Y-69000000D01*
X157658157Y-68752235D01*
X157543072Y-68580000D01*
X157658157Y-68407765D01*
X157707440Y-68160000D01*
X157707440Y-66460000D01*
X157658157Y-66212235D01*
X157541051Y-66036975D01*
X157598327Y-65979699D01*
X157695000Y-65746310D01*
X157695000Y-65055750D01*
X157536250Y-64897000D01*
X156337000Y-64897000D01*
X156337000Y-64917000D01*
X156083000Y-64917000D01*
X156083000Y-64897000D01*
X154883750Y-64897000D01*
X154725000Y-65055750D01*
X154725000Y-65746310D01*
X154821673Y-65979699D01*
X154878949Y-66036975D01*
X154761843Y-66212235D01*
X154712560Y-66460000D01*
X154712560Y-66540000D01*
X152417550Y-66540000D01*
X152383922Y-66458815D01*
X151966185Y-66041078D01*
X151919753Y-66021845D01*
X151989353Y-65803958D01*
X151125000Y-64939605D01*
X150260647Y-65803958D01*
X150330247Y-66021845D01*
X150283815Y-66041078D01*
X149866078Y-66458815D01*
X149855000Y-66485560D01*
X149843922Y-66458815D01*
X149426185Y-66041078D01*
X148880385Y-65815000D01*
X148289615Y-65815000D01*
X147743815Y-66041078D01*
X147326078Y-66458815D01*
X147100000Y-67004615D01*
X147100000Y-67595385D01*
X147326078Y-68141185D01*
X147743815Y-68558922D01*
X148289615Y-68785000D01*
X148880385Y-68785000D01*
X149426185Y-68558922D01*
X149843922Y-68141185D01*
X149855000Y-68114440D01*
X149866078Y-68141185D01*
X150283815Y-68558922D01*
X150310560Y-68570000D01*
X150283815Y-68581078D01*
X149866078Y-68998815D01*
X149640000Y-69544615D01*
X149640000Y-70135385D01*
X149866078Y-70681185D01*
X150283815Y-71098922D01*
X150310560Y-71110000D01*
X150283815Y-71121078D01*
X149866078Y-71538815D01*
X149640000Y-72084615D01*
X149640000Y-72675385D01*
X149866078Y-73221185D01*
X150283815Y-73638922D01*
X150310560Y-73650000D01*
X150283815Y-73661078D01*
X149866078Y-74078815D01*
X149640000Y-74624615D01*
X149640000Y-75215385D01*
X149866078Y-75761185D01*
X150283815Y-76178922D01*
X150310560Y-76190000D01*
X150283815Y-76201078D01*
X149866078Y-76618815D01*
X149640000Y-77164615D01*
X149640000Y-77755385D01*
X149866078Y-78301185D01*
X150283815Y-78718922D01*
X150310560Y-78730000D01*
X150283815Y-78741078D01*
X149866078Y-79158815D01*
X149640000Y-79704615D01*
X149640000Y-80295385D01*
X149866078Y-80841185D01*
X150283815Y-81258922D01*
X150310560Y-81270000D01*
X150283815Y-81281078D01*
X149866078Y-81698815D01*
X149640000Y-82244615D01*
X149640000Y-82835385D01*
X149866078Y-83381185D01*
X150283815Y-83798922D01*
X150310560Y-83810000D01*
X150283815Y-83821078D01*
X149866078Y-84238815D01*
X149640000Y-84784615D01*
X149640000Y-85375385D01*
X149866078Y-85921185D01*
X150283815Y-86338922D01*
X150310560Y-86350000D01*
X150283815Y-86361078D01*
X149866078Y-86778815D01*
X149640000Y-87324615D01*
X149640000Y-87915385D01*
X149866078Y-88461185D01*
X150283815Y-88878922D01*
X150310560Y-88890000D01*
X150283815Y-88901078D01*
X149866078Y-89318815D01*
X149640000Y-89864615D01*
X149640000Y-90455385D01*
X149866078Y-91001185D01*
X150283815Y-91418922D01*
X150829615Y-91645000D01*
X151420385Y-91645000D01*
X151966185Y-91418922D01*
X152383922Y-91001185D01*
X152417550Y-90920000D01*
X154712560Y-90920000D01*
X154712560Y-91020000D01*
X154761843Y-91267765D01*
X154902191Y-91477809D01*
X155112235Y-91618157D01*
X155360000Y-91667440D01*
X155561518Y-91667440D01*
X155607688Y-91736537D01*
X155662072Y-91817929D01*
X155725528Y-91860329D01*
X156625001Y-92759804D01*
X156625002Y-93752560D01*
X155360000Y-93752560D01*
X155112235Y-93801843D01*
X154902191Y-93942191D01*
X154761843Y-94152235D01*
X154712560Y-94400000D01*
X154712560Y-94480000D01*
X152417550Y-94480000D01*
X152383922Y-94398815D01*
X151966185Y-93981078D01*
X151420385Y-93755000D01*
X150829615Y-93755000D01*
X150283815Y-93981078D01*
X149866078Y-94398815D01*
X149640000Y-94944615D01*
X149640000Y-95535385D01*
X149866078Y-96081185D01*
X150283815Y-96498922D01*
X150310560Y-96510000D01*
X150283815Y-96521078D01*
X149866078Y-96938815D01*
X149640000Y-97484615D01*
X149640000Y-98075385D01*
X149866078Y-98621185D01*
X150283815Y-99038922D01*
X150310560Y-99050000D01*
X150283815Y-99061078D01*
X149866078Y-99478815D01*
X149640000Y-100024615D01*
X149640000Y-100615385D01*
X149866078Y-101161185D01*
X150283815Y-101578922D01*
X150310560Y-101590000D01*
X150283815Y-101601078D01*
X149866078Y-102018815D01*
X149640000Y-102564615D01*
X149640000Y-103155385D01*
X149866078Y-103701185D01*
X150283815Y-104118922D01*
X150310560Y-104130000D01*
X150283815Y-104141078D01*
X149866078Y-104558815D01*
X149640000Y-105104615D01*
X149640000Y-105695385D01*
X149866078Y-106241185D01*
X150283815Y-106658922D01*
X150310560Y-106670000D01*
X150283815Y-106681078D01*
X149866078Y-107098815D01*
X149640000Y-107644615D01*
X149640000Y-108235385D01*
X149866078Y-108781185D01*
X150283815Y-109198922D01*
X150829615Y-109425000D01*
X151420385Y-109425000D01*
X151966185Y-109198922D01*
X152383922Y-108781185D01*
X152417550Y-108700000D01*
X154712560Y-108700000D01*
X154712560Y-108800000D01*
X154761843Y-109047765D01*
X154902191Y-109257809D01*
X155112235Y-109398157D01*
X155360000Y-109447440D01*
X157060000Y-109447440D01*
X157307765Y-109398157D01*
X157517809Y-109257809D01*
X157658157Y-109047765D01*
X157707440Y-108800000D01*
X157707440Y-107100000D01*
X157658157Y-106852235D01*
X157619341Y-106794143D01*
X157964969Y-107139772D01*
X157964970Y-115360117D01*
X157950081Y-115434969D01*
X157964970Y-115509821D01*
X158009066Y-115731506D01*
X158177041Y-115982898D01*
X158240497Y-116025298D01*
X159752560Y-117537362D01*
X159752560Y-118910000D01*
X159801843Y-119157765D01*
X159942191Y-119367809D01*
X160152235Y-119508157D01*
X160400000Y-119557440D01*
X162000000Y-119557440D01*
X162247765Y-119508157D01*
X162457809Y-119367809D01*
X162545377Y-119236756D01*
X162652235Y-119308157D01*
X162900000Y-119357440D01*
X164500000Y-119357440D01*
X164747765Y-119308157D01*
X164957809Y-119167809D01*
X165098157Y-118957765D01*
X165100000Y-118948500D01*
X165101843Y-118957765D01*
X165242191Y-119167809D01*
X165452235Y-119308157D01*
X165700000Y-119357440D01*
X167300000Y-119357440D01*
X167547765Y-119308157D01*
X167757809Y-119167809D01*
X167864965Y-119007440D01*
X167868044Y-119007440D01*
X168187138Y-119326534D01*
X168319034Y-119381167D01*
X167810201Y-119890000D01*
X118780000Y-119890000D01*
X118780000Y-119348430D01*
X118832862Y-119326534D01*
X119151956Y-119007440D01*
X119155035Y-119007440D01*
X119262191Y-119167809D01*
X119472235Y-119308157D01*
X119720000Y-119357440D01*
X121320000Y-119357440D01*
X121567765Y-119308157D01*
X121777809Y-119167809D01*
X121918157Y-118957765D01*
X121920000Y-118948500D01*
X121921843Y-118957765D01*
X122062191Y-119167809D01*
X122272235Y-119308157D01*
X122520000Y-119357440D01*
X124120000Y-119357440D01*
X124367765Y-119308157D01*
X124474623Y-119236756D01*
X124562191Y-119367809D01*
X124772235Y-119508157D01*
X125020000Y-119557440D01*
X126620000Y-119557440D01*
X126867765Y-119508157D01*
X127077809Y-119367809D01*
X127218157Y-119157765D01*
X127267440Y-118910000D01*
X127267440Y-118758483D01*
X127417929Y-118657929D01*
X127460331Y-118594470D01*
X131294476Y-114760327D01*
X131357929Y-114717929D01*
X131400327Y-114654476D01*
X131400329Y-114654474D01*
X131525903Y-114466538D01*
X131525904Y-114466537D01*
X131570000Y-114244852D01*
X131570000Y-114244848D01*
X131584888Y-114170001D01*
X131570000Y-114095154D01*
X131570000Y-109447440D01*
X131660000Y-109447440D01*
X131907765Y-109398157D01*
X132117809Y-109257809D01*
X132258157Y-109047765D01*
X132307440Y-108800000D01*
X132307440Y-108710000D01*
X134621592Y-108710000D01*
X134651078Y-108781185D01*
X135068815Y-109198922D01*
X135614615Y-109425000D01*
X136205385Y-109425000D01*
X136751185Y-109198922D01*
X137168922Y-108781185D01*
X137395000Y-108235385D01*
X137395000Y-107644615D01*
X137168922Y-107098815D01*
X136751185Y-106681078D01*
X136724440Y-106670000D01*
X136751185Y-106658922D01*
X137168922Y-106241185D01*
X137395000Y-105695385D01*
X137395000Y-105104615D01*
X137168922Y-104558815D01*
X136751185Y-104141078D01*
X136724440Y-104130000D01*
X136751185Y-104118922D01*
X137168922Y-103701185D01*
X137395000Y-103155385D01*
X137395000Y-102564615D01*
X137168922Y-102018815D01*
X136751185Y-101601078D01*
X136724440Y-101590000D01*
X136751185Y-101578922D01*
X137168922Y-101161185D01*
X137395000Y-100615385D01*
X137395000Y-100024615D01*
X137168922Y-99478815D01*
X136751185Y-99061078D01*
X136724440Y-99050000D01*
X136751185Y-99038922D01*
X137168922Y-98621185D01*
X137395000Y-98075385D01*
X137395000Y-97484615D01*
X137168922Y-96938815D01*
X136751185Y-96521078D01*
X136724440Y-96510000D01*
X136751185Y-96498922D01*
X137168922Y-96081185D01*
X137395000Y-95535385D01*
X137395000Y-94944615D01*
X137168922Y-94398815D01*
X136751185Y-93981078D01*
X136205385Y-93755000D01*
X135614615Y-93755000D01*
X135068815Y-93981078D01*
X134651078Y-94398815D01*
X134617450Y-94480000D01*
X132307440Y-94480000D01*
X132307440Y-94400000D01*
X132258157Y-94152235D01*
X132117809Y-93942191D01*
X131907765Y-93801843D01*
X131660000Y-93752560D01*
X129960000Y-93752560D01*
X129712235Y-93801843D01*
X129502191Y-93942191D01*
X129361843Y-94152235D01*
X129312560Y-94400000D01*
X129312560Y-94490000D01*
X128664801Y-94490000D01*
X131294473Y-91860329D01*
X131357929Y-91817929D01*
X131458483Y-91667440D01*
X131660000Y-91667440D01*
X131907765Y-91618157D01*
X132117809Y-91477809D01*
X132258157Y-91267765D01*
X132307440Y-91020000D01*
X132307440Y-90920000D01*
X134617450Y-90920000D01*
X134651078Y-91001185D01*
X135068815Y-91418922D01*
X135614615Y-91645000D01*
X136205385Y-91645000D01*
X136751185Y-91418922D01*
X137168922Y-91001185D01*
X137395000Y-90455385D01*
X137395000Y-89864615D01*
X137168922Y-89318815D01*
X136751185Y-88901078D01*
X136724440Y-88890000D01*
X136751185Y-88878922D01*
X137168922Y-88461185D01*
X137395000Y-87915385D01*
X137395000Y-87324615D01*
X137168922Y-86778815D01*
X136751185Y-86361078D01*
X136724440Y-86350000D01*
X136751185Y-86338922D01*
X137168922Y-85921185D01*
X137395000Y-85375385D01*
X137395000Y-84784615D01*
X137168922Y-84238815D01*
X136751185Y-83821078D01*
X136724440Y-83810000D01*
X136751185Y-83798922D01*
X137168922Y-83381185D01*
X137395000Y-82835385D01*
X137395000Y-82244615D01*
X137168922Y-81698815D01*
X136751185Y-81281078D01*
X136724440Y-81270000D01*
X136751185Y-81258922D01*
X137168922Y-80841185D01*
X137395000Y-80295385D01*
X137395000Y-79704615D01*
X137168922Y-79158815D01*
X136751185Y-78741078D01*
X136724440Y-78730000D01*
X136751185Y-78718922D01*
X137168922Y-78301185D01*
X137395000Y-77755385D01*
X137395000Y-77164615D01*
X137168922Y-76618815D01*
X136751185Y-76201078D01*
X136724440Y-76190000D01*
X136751185Y-76178922D01*
X137168922Y-75761185D01*
X137395000Y-75215385D01*
X137395000Y-74624615D01*
X137168922Y-74078815D01*
X136751185Y-73661078D01*
X136724440Y-73650000D01*
X136751185Y-73638922D01*
X137168922Y-73221185D01*
X137395000Y-72675385D01*
X137395000Y-72084615D01*
X137168922Y-71538815D01*
X136751185Y-71121078D01*
X136704753Y-71101845D01*
X136774353Y-70883958D01*
X135910000Y-70019605D01*
X135045647Y-70883958D01*
X135115247Y-71101845D01*
X135068815Y-71121078D01*
X134651078Y-71538815D01*
X134617450Y-71620000D01*
X132307440Y-71620000D01*
X132307440Y-71540000D01*
X132258157Y-71292235D01*
X132143072Y-71120000D01*
X132258157Y-70947765D01*
X132307440Y-70700000D01*
X132307440Y-69611279D01*
X134413282Y-69611279D01*
X134439685Y-70201458D01*
X134614741Y-70624080D01*
X134866042Y-70704353D01*
X135730395Y-69840000D01*
X136089605Y-69840000D01*
X136953958Y-70704353D01*
X137205259Y-70624080D01*
X137406718Y-70068721D01*
X137380315Y-69478542D01*
X137205259Y-69055920D01*
X136953958Y-68975647D01*
X136089605Y-69840000D01*
X135730395Y-69840000D01*
X134866042Y-68975647D01*
X134614741Y-69055920D01*
X134413282Y-69611279D01*
X132307440Y-69611279D01*
X132307440Y-69000000D01*
X132258157Y-68752235D01*
X132143072Y-68580000D01*
X132258157Y-68407765D01*
X132270848Y-68343958D01*
X135045647Y-68343958D01*
X135117852Y-68570000D01*
X135045647Y-68796042D01*
X135910000Y-69660395D01*
X136774353Y-68796042D01*
X136702148Y-68570000D01*
X136774353Y-68343958D01*
X135910000Y-67479605D01*
X135045647Y-68343958D01*
X132270848Y-68343958D01*
X132307440Y-68160000D01*
X132307440Y-67071279D01*
X134413282Y-67071279D01*
X134439685Y-67661458D01*
X134614741Y-68084080D01*
X134866042Y-68164353D01*
X135730395Y-67300000D01*
X136089605Y-67300000D01*
X136953958Y-68164353D01*
X137171845Y-68094753D01*
X137191078Y-68141185D01*
X137608815Y-68558922D01*
X138154615Y-68785000D01*
X138745385Y-68785000D01*
X139291185Y-68558922D01*
X139708922Y-68141185D01*
X139720000Y-68114440D01*
X139731078Y-68141185D01*
X140148815Y-68558922D01*
X140694615Y-68785000D01*
X141285385Y-68785000D01*
X141831185Y-68558922D01*
X142248922Y-68141185D01*
X142260000Y-68114440D01*
X142271078Y-68141185D01*
X142688815Y-68558922D01*
X143234615Y-68785000D01*
X143825385Y-68785000D01*
X144371185Y-68558922D01*
X144788922Y-68141185D01*
X145015000Y-67595385D01*
X145015000Y-67004615D01*
X144788922Y-66458815D01*
X144371185Y-66041078D01*
X143825385Y-65815000D01*
X143234615Y-65815000D01*
X142688815Y-66041078D01*
X142271078Y-66458815D01*
X142260000Y-66485560D01*
X142248922Y-66458815D01*
X141831185Y-66041078D01*
X141285385Y-65815000D01*
X140694615Y-65815000D01*
X140148815Y-66041078D01*
X139731078Y-66458815D01*
X139720000Y-66485560D01*
X139708922Y-66458815D01*
X139291185Y-66041078D01*
X138745385Y-65815000D01*
X138154615Y-65815000D01*
X137608815Y-66041078D01*
X137191078Y-66458815D01*
X137171845Y-66505247D01*
X136953958Y-66435647D01*
X136089605Y-67300000D01*
X135730395Y-67300000D01*
X134866042Y-66435647D01*
X134614741Y-66515920D01*
X134413282Y-67071279D01*
X132307440Y-67071279D01*
X132307440Y-66460000D01*
X132258157Y-66212235D01*
X132143072Y-66040000D01*
X132258157Y-65867765D01*
X132307440Y-65620000D01*
X132307440Y-65520000D01*
X134617450Y-65520000D01*
X134651078Y-65601185D01*
X135068815Y-66018922D01*
X135115247Y-66038155D01*
X135045647Y-66256042D01*
X135910000Y-67120395D01*
X136774353Y-66256042D01*
X136704753Y-66038155D01*
X136751185Y-66018922D01*
X137168922Y-65601185D01*
X137395000Y-65055385D01*
X137395000Y-64531279D01*
X149628282Y-64531279D01*
X149654685Y-65121458D01*
X149829741Y-65544080D01*
X150081042Y-65624353D01*
X150945395Y-64760000D01*
X151304605Y-64760000D01*
X152168958Y-65624353D01*
X152420259Y-65544080D01*
X152621718Y-64988721D01*
X152595315Y-64398542D01*
X152420259Y-63975920D01*
X152168958Y-63895647D01*
X151304605Y-64760000D01*
X150945395Y-64760000D01*
X150081042Y-63895647D01*
X149829741Y-63975920D01*
X149628282Y-64531279D01*
X137395000Y-64531279D01*
X137395000Y-64464615D01*
X137168922Y-63918815D01*
X136751185Y-63501078D01*
X136724440Y-63490000D01*
X136751185Y-63478922D01*
X137168922Y-63061185D01*
X137395000Y-62515385D01*
X137395000Y-61924615D01*
X137168922Y-61378815D01*
X136904024Y-61113917D01*
X137502399Y-60866062D01*
X137990462Y-60377999D01*
X138254600Y-59740313D01*
X138254600Y-59050087D01*
X137990462Y-58412401D01*
X137502399Y-57924338D01*
X137472612Y-57912000D01*
X149561988Y-57912000D01*
X149532201Y-57924338D01*
X149532201Y-57924338D01*
G37*
X149532201Y-57924338D02*
X149044138Y-58412401D01*
X148780000Y-59050087D01*
X148780000Y-59740313D01*
X149044138Y-60377999D01*
X149532201Y-60866062D01*
X150130859Y-61114034D01*
X149866078Y-61378815D01*
X149640000Y-61924615D01*
X149640000Y-62515385D01*
X149866078Y-63061185D01*
X150283815Y-63478922D01*
X150330247Y-63498155D01*
X150260647Y-63716042D01*
X151125000Y-64580395D01*
X151989353Y-63716042D01*
X151919753Y-63498155D01*
X151966185Y-63478922D01*
X152365107Y-63080000D01*
X154712560Y-63080000D01*
X154761843Y-63327765D01*
X154878949Y-63503025D01*
X154821673Y-63560301D01*
X154725000Y-63793690D01*
X154725000Y-64484250D01*
X154883750Y-64643000D01*
X156083000Y-64643000D01*
X156083000Y-64623000D01*
X156337000Y-64623000D01*
X156337000Y-64643000D01*
X157536250Y-64643000D01*
X157695000Y-64484250D01*
X157695000Y-63793690D01*
X157598327Y-63560301D01*
X157541051Y-63503025D01*
X157658157Y-63327765D01*
X157707440Y-63080000D01*
X157707440Y-61380000D01*
X157658157Y-61132235D01*
X157517809Y-60922191D01*
X157307765Y-60781843D01*
X157060000Y-60732560D01*
X155360000Y-60732560D01*
X155112235Y-60781843D01*
X154902191Y-60922191D01*
X154761843Y-61132235D01*
X154716538Y-61360000D01*
X152365107Y-61360000D01*
X151966185Y-60961078D01*
X151567800Y-60796061D01*
X151985862Y-60377999D01*
X152250000Y-59740313D01*
X152250000Y-59050087D01*
X151985862Y-58412401D01*
X151497799Y-57924338D01*
X151468012Y-57912000D01*
X172112560Y-57912000D01*
X172112560Y-64960000D01*
X172125000Y-65022541D01*
X172125000Y-65583590D01*
X172602276Y-66735835D01*
X173484165Y-67617724D01*
X174636410Y-68095000D01*
X175883590Y-68095000D01*
X177035835Y-67617724D01*
X177917724Y-66735835D01*
X178395000Y-65583590D01*
X178395000Y-65022541D01*
X178407440Y-64960000D01*
X178407440Y-57912000D01*
X185373019Y-57912000D01*
X189702005Y-61622560D01*
X182690000Y-61622560D01*
X182627459Y-61635000D01*
X182066410Y-61635000D01*
X180914165Y-62112276D01*
X180032276Y-62994165D01*
X179555000Y-64146410D01*
X179555000Y-65393590D01*
X179975773Y-66409425D01*
X170435000Y-75950199D01*
X170435000Y-75914561D01*
X170216534Y-75387138D01*
X169812862Y-74983466D01*
X169285439Y-74765000D01*
X168714561Y-74765000D01*
X168187138Y-74983466D01*
X167868044Y-75302560D01*
X167864965Y-75302560D01*
X167757809Y-75142191D01*
X167547765Y-75001843D01*
X167300000Y-74952560D01*
X165700000Y-74952560D01*
X165452235Y-75001843D01*
X165242191Y-75142191D01*
X165101843Y-75352235D01*
X165100000Y-75361500D01*
X165098157Y-75352235D01*
X164957809Y-75142191D01*
X164747765Y-75001843D01*
X164500000Y-74952560D01*
X162900000Y-74952560D01*
X162652235Y-75001843D01*
X162545377Y-75073244D01*
X162457809Y-74942191D01*
X162247765Y-74801843D01*
X162000000Y-74752560D01*
X161848483Y-74752560D01*
X161747929Y-74602071D01*
X161684470Y-74559669D01*
X161570331Y-74445530D01*
X161527929Y-74382071D01*
X161276537Y-74214096D01*
X161054852Y-74170000D01*
X161054847Y-74170000D01*
X160980000Y-74155112D01*
X160905153Y-74170000D01*
X157707440Y-74170000D01*
X157707440Y-74080000D01*
X157658157Y-73832235D01*
X157543072Y-73660000D01*
X157658157Y-73487765D01*
X157707440Y-73240000D01*
X157707440Y-73150000D01*
X159752560Y-73150000D01*
X159752560Y-73190000D01*
X159801843Y-73437765D01*
X159942191Y-73647809D01*
X160152235Y-73788157D01*
X160400000Y-73837440D01*
X162000000Y-73837440D01*
X162247765Y-73788157D01*
X162457809Y-73647809D01*
X162545377Y-73516756D01*
X162652235Y-73588157D01*
X162900000Y-73637440D01*
X164500000Y-73637440D01*
X164747765Y-73588157D01*
X164957809Y-73447809D01*
X165098157Y-73237765D01*
X165100000Y-73228500D01*
X165101843Y-73237765D01*
X165242191Y-73447809D01*
X165452235Y-73588157D01*
X165700000Y-73637440D01*
X167300000Y-73637440D01*
X167547765Y-73588157D01*
X167757809Y-73447809D01*
X167864965Y-73287440D01*
X167868044Y-73287440D01*
X168187138Y-73606534D01*
X168714561Y-73825000D01*
X169285439Y-73825000D01*
X169812862Y-73606534D01*
X170216534Y-73202862D01*
X170435000Y-72675439D01*
X170435000Y-72104561D01*
X170216534Y-71577138D01*
X169812862Y-71173466D01*
X169285439Y-70955000D01*
X168714561Y-70955000D01*
X168187138Y-71173466D01*
X167868044Y-71492560D01*
X167864965Y-71492560D01*
X167757809Y-71332191D01*
X167547765Y-71191843D01*
X167300000Y-71142560D01*
X165700000Y-71142560D01*
X165452235Y-71191843D01*
X165242191Y-71332191D01*
X165101843Y-71542235D01*
X165100000Y-71551500D01*
X165098157Y-71542235D01*
X164957809Y-71332191D01*
X164747765Y-71191843D01*
X164500000Y-71142560D01*
X162900000Y-71142560D01*
X162652235Y-71191843D01*
X162545377Y-71263244D01*
X162457809Y-71132191D01*
X162247765Y-70991843D01*
X162000000Y-70942560D01*
X160400000Y-70942560D01*
X160152235Y-70991843D01*
X159942191Y-71132191D01*
X159801843Y-71342235D01*
X159752560Y-71590000D01*
X159752560Y-71630000D01*
X157707440Y-71630000D01*
X157707440Y-71540000D01*
X157658157Y-71292235D01*
X157543072Y-71120000D01*
X157658157Y-70947765D01*
X157707440Y-70700000D01*
X157707440Y-69000000D01*
X157658157Y-68752235D01*
X157543072Y-68580000D01*
X157658157Y-68407765D01*
X157707440Y-68160000D01*
X157707440Y-66460000D01*
X157658157Y-66212235D01*
X157541051Y-66036975D01*
X157598327Y-65979699D01*
X157695000Y-65746310D01*
X157695000Y-65055750D01*
X157536250Y-64897000D01*
X156337000Y-64897000D01*
X156337000Y-64917000D01*
X156083000Y-64917000D01*
X156083000Y-64897000D01*
X154883750Y-64897000D01*
X154725000Y-65055750D01*
X154725000Y-65746310D01*
X154821673Y-65979699D01*
X154878949Y-66036975D01*
X154761843Y-66212235D01*
X154712560Y-66460000D01*
X154712560Y-66540000D01*
X152417550Y-66540000D01*
X152383922Y-66458815D01*
X151966185Y-66041078D01*
X151919753Y-66021845D01*
X151989353Y-65803958D01*
X151125000Y-64939605D01*
X150260647Y-65803958D01*
X150330247Y-66021845D01*
X150283815Y-66041078D01*
X149866078Y-66458815D01*
X149855000Y-66485560D01*
X149843922Y-66458815D01*
X149426185Y-66041078D01*
X148880385Y-65815000D01*
X148289615Y-65815000D01*
X147743815Y-66041078D01*
X147326078Y-66458815D01*
X147100000Y-67004615D01*
X147100000Y-67595385D01*
X147326078Y-68141185D01*
X147743815Y-68558922D01*
X148289615Y-68785000D01*
X148880385Y-68785000D01*
X149426185Y-68558922D01*
X149843922Y-68141185D01*
X149855000Y-68114440D01*
X149866078Y-68141185D01*
X150283815Y-68558922D01*
X150310560Y-68570000D01*
X150283815Y-68581078D01*
X149866078Y-68998815D01*
X149640000Y-69544615D01*
X149640000Y-70135385D01*
X149866078Y-70681185D01*
X150283815Y-71098922D01*
X150310560Y-71110000D01*
X150283815Y-71121078D01*
X149866078Y-71538815D01*
X149640000Y-72084615D01*
X149640000Y-72675385D01*
X149866078Y-73221185D01*
X150283815Y-73638922D01*
X150310560Y-73650000D01*
X150283815Y-73661078D01*
X149866078Y-74078815D01*
X149640000Y-74624615D01*
X149640000Y-75215385D01*
X149866078Y-75761185D01*
X150283815Y-76178922D01*
X150310560Y-76190000D01*
X150283815Y-76201078D01*
X149866078Y-76618815D01*
X149640000Y-77164615D01*
X149640000Y-77755385D01*
X149866078Y-78301185D01*
X150283815Y-78718922D01*
X150310560Y-78730000D01*
X150283815Y-78741078D01*
X149866078Y-79158815D01*
X149640000Y-79704615D01*
X149640000Y-80295385D01*
X149866078Y-80841185D01*
X150283815Y-81258922D01*
X150310560Y-81270000D01*
X150283815Y-81281078D01*
X149866078Y-81698815D01*
X149640000Y-82244615D01*
X149640000Y-82835385D01*
X149866078Y-83381185D01*
X150283815Y-83798922D01*
X150310560Y-83810000D01*
X150283815Y-83821078D01*
X149866078Y-84238815D01*
X149640000Y-84784615D01*
X149640000Y-85375385D01*
X149866078Y-85921185D01*
X150283815Y-86338922D01*
X150310560Y-86350000D01*
X150283815Y-86361078D01*
X149866078Y-86778815D01*
X149640000Y-87324615D01*
X149640000Y-87915385D01*
X149866078Y-88461185D01*
X150283815Y-88878922D01*
X150310560Y-88890000D01*
X150283815Y-88901078D01*
X149866078Y-89318815D01*
X149640000Y-89864615D01*
X149640000Y-90455385D01*
X149866078Y-91001185D01*
X150283815Y-91418922D01*
X150829615Y-91645000D01*
X151420385Y-91645000D01*
X151966185Y-91418922D01*
X152383922Y-91001185D01*
X152417550Y-90920000D01*
X154712560Y-90920000D01*
X154712560Y-91020000D01*
X154761843Y-91267765D01*
X154902191Y-91477809D01*
X155112235Y-91618157D01*
X155360000Y-91667440D01*
X155561518Y-91667440D01*
X155607688Y-91736537D01*
X155662072Y-91817929D01*
X155725528Y-91860329D01*
X156625001Y-92759804D01*
X156625002Y-93752560D01*
X155360000Y-93752560D01*
X155112235Y-93801843D01*
X154902191Y-93942191D01*
X154761843Y-94152235D01*
X154712560Y-94400000D01*
X154712560Y-94480000D01*
X152417550Y-94480000D01*
X152383922Y-94398815D01*
X151966185Y-93981078D01*
X151420385Y-93755000D01*
X150829615Y-93755000D01*
X150283815Y-93981078D01*
X149866078Y-94398815D01*
X149640000Y-94944615D01*
X149640000Y-95535385D01*
X149866078Y-96081185D01*
X150283815Y-96498922D01*
X150310560Y-96510000D01*
X150283815Y-96521078D01*
X149866078Y-96938815D01*
X149640000Y-97484615D01*
X149640000Y-98075385D01*
X149866078Y-98621185D01*
X150283815Y-99038922D01*
X150310560Y-99050000D01*
X150283815Y-99061078D01*
X149866078Y-99478815D01*
X149640000Y-100024615D01*
X149640000Y-100615385D01*
X149866078Y-101161185D01*
X150283815Y-101578922D01*
X150310560Y-101590000D01*
X150283815Y-101601078D01*
X149866078Y-102018815D01*
X149640000Y-102564615D01*
X149640000Y-103155385D01*
X149866078Y-103701185D01*
X150283815Y-104118922D01*
X150310560Y-104130000D01*
X150283815Y-104141078D01*
X149866078Y-104558815D01*
X149640000Y-105104615D01*
X149640000Y-105695385D01*
X149866078Y-106241185D01*
X150283815Y-106658922D01*
X150310560Y-106670000D01*
X150283815Y-106681078D01*
X149866078Y-107098815D01*
X149640000Y-107644615D01*
X149640000Y-108235385D01*
X149866078Y-108781185D01*
X150283815Y-109198922D01*
X150829615Y-109425000D01*
X151420385Y-109425000D01*
X151966185Y-109198922D01*
X152383922Y-108781185D01*
X152417550Y-108700000D01*
X154712560Y-108700000D01*
X154712560Y-108800000D01*
X154761843Y-109047765D01*
X154902191Y-109257809D01*
X155112235Y-109398157D01*
X155360000Y-109447440D01*
X157060000Y-109447440D01*
X157307765Y-109398157D01*
X157517809Y-109257809D01*
X157658157Y-109047765D01*
X157707440Y-108800000D01*
X157707440Y-107100000D01*
X157658157Y-106852235D01*
X157619341Y-106794143D01*
X157964969Y-107139772D01*
X157964970Y-115360117D01*
X157950081Y-115434969D01*
X157964970Y-115509821D01*
X158009066Y-115731506D01*
X158177041Y-115982898D01*
X158240497Y-116025298D01*
X159752560Y-117537362D01*
X159752560Y-118910000D01*
X159801843Y-119157765D01*
X159942191Y-119367809D01*
X160152235Y-119508157D01*
X160400000Y-119557440D01*
X162000000Y-119557440D01*
X162247765Y-119508157D01*
X162457809Y-119367809D01*
X162545377Y-119236756D01*
X162652235Y-119308157D01*
X162900000Y-119357440D01*
X164500000Y-119357440D01*
X164747765Y-119308157D01*
X164957809Y-119167809D01*
X165098157Y-118957765D01*
X165100000Y-118948500D01*
X165101843Y-118957765D01*
X165242191Y-119167809D01*
X165452235Y-119308157D01*
X165700000Y-119357440D01*
X167300000Y-119357440D01*
X167547765Y-119308157D01*
X167757809Y-119167809D01*
X167864965Y-119007440D01*
X167868044Y-119007440D01*
X168187138Y-119326534D01*
X168319034Y-119381167D01*
X167810201Y-119890000D01*
X118780000Y-119890000D01*
X118780000Y-119348430D01*
X118832862Y-119326534D01*
X119151956Y-119007440D01*
X119155035Y-119007440D01*
X119262191Y-119167809D01*
X119472235Y-119308157D01*
X119720000Y-119357440D01*
X121320000Y-119357440D01*
X121567765Y-119308157D01*
X121777809Y-119167809D01*
X121918157Y-118957765D01*
X121920000Y-118948500D01*
X121921843Y-118957765D01*
X122062191Y-119167809D01*
X122272235Y-119308157D01*
X122520000Y-119357440D01*
X124120000Y-119357440D01*
X124367765Y-119308157D01*
X124474623Y-119236756D01*
X124562191Y-119367809D01*
X124772235Y-119508157D01*
X125020000Y-119557440D01*
X126620000Y-119557440D01*
X126867765Y-119508157D01*
X127077809Y-119367809D01*
X127218157Y-119157765D01*
X127267440Y-118910000D01*
X127267440Y-118758483D01*
X127417929Y-118657929D01*
X127460331Y-118594470D01*
X131294476Y-114760327D01*
X131357929Y-114717929D01*
X131400327Y-114654476D01*
X131400329Y-114654474D01*
X131525903Y-114466538D01*
X131525904Y-114466537D01*
X131570000Y-114244852D01*
X131570000Y-114244848D01*
X131584888Y-114170001D01*
X131570000Y-114095154D01*
X131570000Y-109447440D01*
X131660000Y-109447440D01*
X131907765Y-109398157D01*
X132117809Y-109257809D01*
X132258157Y-109047765D01*
X132307440Y-108800000D01*
X132307440Y-108710000D01*
X134621592Y-108710000D01*
X134651078Y-108781185D01*
X135068815Y-109198922D01*
X135614615Y-109425000D01*
X136205385Y-109425000D01*
X136751185Y-109198922D01*
X137168922Y-108781185D01*
X137395000Y-108235385D01*
X137395000Y-107644615D01*
X137168922Y-107098815D01*
X136751185Y-106681078D01*
X136724440Y-106670000D01*
X136751185Y-106658922D01*
X137168922Y-106241185D01*
X137395000Y-105695385D01*
X137395000Y-105104615D01*
X137168922Y-104558815D01*
X136751185Y-104141078D01*
X136724440Y-104130000D01*
X136751185Y-104118922D01*
X137168922Y-103701185D01*
X137395000Y-103155385D01*
X137395000Y-102564615D01*
X137168922Y-102018815D01*
X136751185Y-101601078D01*
X136724440Y-101590000D01*
X136751185Y-101578922D01*
X137168922Y-101161185D01*
X137395000Y-100615385D01*
X137395000Y-100024615D01*
X137168922Y-99478815D01*
X136751185Y-99061078D01*
X136724440Y-99050000D01*
X136751185Y-99038922D01*
X137168922Y-98621185D01*
X137395000Y-98075385D01*
X137395000Y-97484615D01*
X137168922Y-96938815D01*
X136751185Y-96521078D01*
X136724440Y-96510000D01*
X136751185Y-96498922D01*
X137168922Y-96081185D01*
X137395000Y-95535385D01*
X137395000Y-94944615D01*
X137168922Y-94398815D01*
X136751185Y-93981078D01*
X136205385Y-93755000D01*
X135614615Y-93755000D01*
X135068815Y-93981078D01*
X134651078Y-94398815D01*
X134617450Y-94480000D01*
X132307440Y-94480000D01*
X132307440Y-94400000D01*
X132258157Y-94152235D01*
X132117809Y-93942191D01*
X131907765Y-93801843D01*
X131660000Y-93752560D01*
X129960000Y-93752560D01*
X129712235Y-93801843D01*
X129502191Y-93942191D01*
X129361843Y-94152235D01*
X129312560Y-94400000D01*
X129312560Y-94490000D01*
X128664801Y-94490000D01*
X131294473Y-91860329D01*
X131357929Y-91817929D01*
X131458483Y-91667440D01*
X131660000Y-91667440D01*
X131907765Y-91618157D01*
X132117809Y-91477809D01*
X132258157Y-91267765D01*
X132307440Y-91020000D01*
X132307440Y-90920000D01*
X134617450Y-90920000D01*
X134651078Y-91001185D01*
X135068815Y-91418922D01*
X135614615Y-91645000D01*
X136205385Y-91645000D01*
X136751185Y-91418922D01*
X137168922Y-91001185D01*
X137395000Y-90455385D01*
X137395000Y-89864615D01*
X137168922Y-89318815D01*
X136751185Y-88901078D01*
X136724440Y-88890000D01*
X136751185Y-88878922D01*
X137168922Y-88461185D01*
X137395000Y-87915385D01*
X137395000Y-87324615D01*
X137168922Y-86778815D01*
X136751185Y-86361078D01*
X136724440Y-86350000D01*
X136751185Y-86338922D01*
X137168922Y-85921185D01*
X137395000Y-85375385D01*
X137395000Y-84784615D01*
X137168922Y-84238815D01*
X136751185Y-83821078D01*
X136724440Y-83810000D01*
X136751185Y-83798922D01*
X137168922Y-83381185D01*
X137395000Y-82835385D01*
X137395000Y-82244615D01*
X137168922Y-81698815D01*
X136751185Y-81281078D01*
X136724440Y-81270000D01*
X136751185Y-81258922D01*
X137168922Y-80841185D01*
X137395000Y-80295385D01*
X137395000Y-79704615D01*
X137168922Y-79158815D01*
X136751185Y-78741078D01*
X136724440Y-78730000D01*
X136751185Y-78718922D01*
X137168922Y-78301185D01*
X137395000Y-77755385D01*
X137395000Y-77164615D01*
X137168922Y-76618815D01*
X136751185Y-76201078D01*
X136724440Y-76190000D01*
X136751185Y-76178922D01*
X137168922Y-75761185D01*
X137395000Y-75215385D01*
X137395000Y-74624615D01*
X137168922Y-74078815D01*
X136751185Y-73661078D01*
X136724440Y-73650000D01*
X136751185Y-73638922D01*
X137168922Y-73221185D01*
X137395000Y-72675385D01*
X137395000Y-72084615D01*
X137168922Y-71538815D01*
X136751185Y-71121078D01*
X136704753Y-71101845D01*
X136774353Y-70883958D01*
X135910000Y-70019605D01*
X135045647Y-70883958D01*
X135115247Y-71101845D01*
X135068815Y-71121078D01*
X134651078Y-71538815D01*
X134617450Y-71620000D01*
X132307440Y-71620000D01*
X132307440Y-71540000D01*
X132258157Y-71292235D01*
X132143072Y-71120000D01*
X132258157Y-70947765D01*
X132307440Y-70700000D01*
X132307440Y-69611279D01*
X134413282Y-69611279D01*
X134439685Y-70201458D01*
X134614741Y-70624080D01*
X134866042Y-70704353D01*
X135730395Y-69840000D01*
X136089605Y-69840000D01*
X136953958Y-70704353D01*
X137205259Y-70624080D01*
X137406718Y-70068721D01*
X137380315Y-69478542D01*
X137205259Y-69055920D01*
X136953958Y-68975647D01*
X136089605Y-69840000D01*
X135730395Y-69840000D01*
X134866042Y-68975647D01*
X134614741Y-69055920D01*
X134413282Y-69611279D01*
X132307440Y-69611279D01*
X132307440Y-69000000D01*
X132258157Y-68752235D01*
X132143072Y-68580000D01*
X132258157Y-68407765D01*
X132270848Y-68343958D01*
X135045647Y-68343958D01*
X135117852Y-68570000D01*
X135045647Y-68796042D01*
X135910000Y-69660395D01*
X136774353Y-68796042D01*
X136702148Y-68570000D01*
X136774353Y-68343958D01*
X135910000Y-67479605D01*
X135045647Y-68343958D01*
X132270848Y-68343958D01*
X132307440Y-68160000D01*
X132307440Y-67071279D01*
X134413282Y-67071279D01*
X134439685Y-67661458D01*
X134614741Y-68084080D01*
X134866042Y-68164353D01*
X135730395Y-67300000D01*
X136089605Y-67300000D01*
X136953958Y-68164353D01*
X137171845Y-68094753D01*
X137191078Y-68141185D01*
X137608815Y-68558922D01*
X138154615Y-68785000D01*
X138745385Y-68785000D01*
X139291185Y-68558922D01*
X139708922Y-68141185D01*
X139720000Y-68114440D01*
X139731078Y-68141185D01*
X140148815Y-68558922D01*
X140694615Y-68785000D01*
X141285385Y-68785000D01*
X141831185Y-68558922D01*
X142248922Y-68141185D01*
X142260000Y-68114440D01*
X142271078Y-68141185D01*
X142688815Y-68558922D01*
X143234615Y-68785000D01*
X143825385Y-68785000D01*
X144371185Y-68558922D01*
X144788922Y-68141185D01*
X145015000Y-67595385D01*
X145015000Y-67004615D01*
X144788922Y-66458815D01*
X144371185Y-66041078D01*
X143825385Y-65815000D01*
X143234615Y-65815000D01*
X142688815Y-66041078D01*
X142271078Y-66458815D01*
X142260000Y-66485560D01*
X142248922Y-66458815D01*
X141831185Y-66041078D01*
X141285385Y-65815000D01*
X140694615Y-65815000D01*
X140148815Y-66041078D01*
X139731078Y-66458815D01*
X139720000Y-66485560D01*
X139708922Y-66458815D01*
X139291185Y-66041078D01*
X138745385Y-65815000D01*
X138154615Y-65815000D01*
X137608815Y-66041078D01*
X137191078Y-66458815D01*
X137171845Y-66505247D01*
X136953958Y-66435647D01*
X136089605Y-67300000D01*
X135730395Y-67300000D01*
X134866042Y-66435647D01*
X134614741Y-66515920D01*
X134413282Y-67071279D01*
X132307440Y-67071279D01*
X132307440Y-66460000D01*
X132258157Y-66212235D01*
X132143072Y-66040000D01*
X132258157Y-65867765D01*
X132307440Y-65620000D01*
X132307440Y-65520000D01*
X134617450Y-65520000D01*
X134651078Y-65601185D01*
X135068815Y-66018922D01*
X135115247Y-66038155D01*
X135045647Y-66256042D01*
X135910000Y-67120395D01*
X136774353Y-66256042D01*
X136704753Y-66038155D01*
X136751185Y-66018922D01*
X137168922Y-65601185D01*
X137395000Y-65055385D01*
X137395000Y-64531279D01*
X149628282Y-64531279D01*
X149654685Y-65121458D01*
X149829741Y-65544080D01*
X150081042Y-65624353D01*
X150945395Y-64760000D01*
X151304605Y-64760000D01*
X152168958Y-65624353D01*
X152420259Y-65544080D01*
X152621718Y-64988721D01*
X152595315Y-64398542D01*
X152420259Y-63975920D01*
X152168958Y-63895647D01*
X151304605Y-64760000D01*
X150945395Y-64760000D01*
X150081042Y-63895647D01*
X149829741Y-63975920D01*
X149628282Y-64531279D01*
X137395000Y-64531279D01*
X137395000Y-64464615D01*
X137168922Y-63918815D01*
X136751185Y-63501078D01*
X136724440Y-63490000D01*
X136751185Y-63478922D01*
X137168922Y-63061185D01*
X137395000Y-62515385D01*
X137395000Y-61924615D01*
X137168922Y-61378815D01*
X136904024Y-61113917D01*
X137502399Y-60866062D01*
X137990462Y-60377999D01*
X138254600Y-59740313D01*
X138254600Y-59050087D01*
X137990462Y-58412401D01*
X137502399Y-57924338D01*
X137472612Y-57912000D01*
X149561988Y-57912000D01*
X149532201Y-57924338D01*
G04 #@! TD*
M02*
