G04 #@! TF.GenerationSoftware,KiCad,Pcbnew,(5.0.1-3-g963ef8bb5)*
G04 #@! TF.CreationDate,2019-02-13T00:25:30-08:00*
G04 #@! TF.ProjectId,midi-anything,6D6964692D616E797468696E672E6B69,rev?*
G04 #@! TF.SameCoordinates,Original*
G04 #@! TF.FileFunction,Legend,Top*
G04 #@! TF.FilePolarity,Positive*
%FSLAX46Y46*%
G04 Gerber Fmt 4.6, Leading zero omitted, Abs format (unit mm)*
G04 Created by KiCad (PCBNEW (5.0.1-3-g963ef8bb5)) date Wednesday, February 13, 2019 at 12:25:30 AM*
%MOMM*%
%LPD*%
G01*
G04 APERTURE LIST*
%ADD10C,0.300000*%
%ADD11C,0.250000*%
%ADD12C,0.150000*%
%ADD13C,0.120000*%
G04 APERTURE END LIST*
D10*
X160072142Y-59027142D02*
X159929285Y-59098571D01*
X159643571Y-59098571D01*
X159500714Y-59027142D01*
X159429285Y-58955714D01*
X159357857Y-58812857D01*
X159357857Y-58384285D01*
X159429285Y-58241428D01*
X159500714Y-58170000D01*
X159643571Y-58098571D01*
X159929285Y-58098571D01*
X160072142Y-58170000D01*
X160715000Y-59098571D02*
X160715000Y-57598571D01*
X161572142Y-59098571D02*
X160929285Y-58241428D01*
X161572142Y-57598571D02*
X160715000Y-58455714D01*
X162786428Y-59027142D02*
X162643571Y-59098571D01*
X162357857Y-59098571D01*
X162215000Y-59027142D01*
X162143571Y-58884285D01*
X162143571Y-58312857D01*
X162215000Y-58170000D01*
X162357857Y-58098571D01*
X162643571Y-58098571D01*
X162786428Y-58170000D01*
X162857857Y-58312857D01*
X162857857Y-58455714D01*
X162143571Y-58598571D01*
X163357857Y-58098571D02*
X163715000Y-59098571D01*
X164072142Y-58098571D02*
X163715000Y-59098571D01*
X163572142Y-59455714D01*
X163500714Y-59527142D01*
X163357857Y-59598571D01*
X164572142Y-59027142D02*
X164715000Y-59098571D01*
X165000714Y-59098571D01*
X165143571Y-59027142D01*
X165215000Y-58884285D01*
X165215000Y-58812857D01*
X165143571Y-58670000D01*
X165000714Y-58598571D01*
X164786428Y-58598571D01*
X164643571Y-58527142D01*
X164572142Y-58384285D01*
X164572142Y-58312857D01*
X164643571Y-58170000D01*
X164786428Y-58098571D01*
X165000714Y-58098571D01*
X165143571Y-58170000D01*
X165857857Y-58955714D02*
X165929285Y-59027142D01*
X165857857Y-59098571D01*
X165786428Y-59027142D01*
X165857857Y-58955714D01*
X165857857Y-59098571D01*
X166786428Y-59098571D02*
X166643571Y-59027142D01*
X166572142Y-58955714D01*
X166500714Y-58812857D01*
X166500714Y-58384285D01*
X166572142Y-58241428D01*
X166643571Y-58170000D01*
X166786428Y-58098571D01*
X167000714Y-58098571D01*
X167143571Y-58170000D01*
X167215000Y-58241428D01*
X167286428Y-58384285D01*
X167286428Y-58812857D01*
X167215000Y-58955714D01*
X167143571Y-59027142D01*
X167000714Y-59098571D01*
X166786428Y-59098571D01*
X167929285Y-59098571D02*
X167929285Y-58098571D01*
X167929285Y-58384285D02*
X168000714Y-58241428D01*
X168072142Y-58170000D01*
X168215000Y-58098571D01*
X168357857Y-58098571D01*
X169500714Y-58098571D02*
X169500714Y-59312857D01*
X169429285Y-59455714D01*
X169357857Y-59527142D01*
X169215000Y-59598571D01*
X169000714Y-59598571D01*
X168857857Y-59527142D01*
X169500714Y-59027142D02*
X169357857Y-59098571D01*
X169072142Y-59098571D01*
X168929285Y-59027142D01*
X168857857Y-58955714D01*
X168786428Y-58812857D01*
X168786428Y-58384285D01*
X168857857Y-58241428D01*
X168929285Y-58170000D01*
X169072142Y-58098571D01*
X169357857Y-58098571D01*
X169500714Y-58170000D01*
D11*
X116090714Y-58872380D02*
X116090714Y-57872380D01*
X116590714Y-58586666D01*
X117090714Y-57872380D01*
X117090714Y-58872380D01*
X117805000Y-58872380D02*
X117805000Y-57872380D01*
X118519285Y-58872380D02*
X118519285Y-57872380D01*
X118876428Y-57872380D01*
X119090714Y-57920000D01*
X119233571Y-58015238D01*
X119305000Y-58110476D01*
X119376428Y-58300952D01*
X119376428Y-58443809D01*
X119305000Y-58634285D01*
X119233571Y-58729523D01*
X119090714Y-58824761D01*
X118876428Y-58872380D01*
X118519285Y-58872380D01*
X120019285Y-58872380D02*
X120019285Y-57872380D01*
X121805000Y-58586666D02*
X122519285Y-58586666D01*
X121662142Y-58872380D02*
X122162142Y-57872380D01*
X122662142Y-58872380D01*
X123162142Y-58872380D02*
X123162142Y-57872380D01*
X124019285Y-58872380D01*
X124019285Y-57872380D01*
X125019285Y-58396190D02*
X125019285Y-58872380D01*
X124519285Y-57872380D02*
X125019285Y-58396190D01*
X125519285Y-57872380D01*
X127019285Y-58205714D02*
X127376428Y-58872380D01*
X127733571Y-58205714D01*
X129090714Y-58872380D02*
X128233571Y-58872380D01*
X128662142Y-58872380D02*
X128662142Y-57872380D01*
X128519285Y-58015238D01*
X128376428Y-58110476D01*
X128233571Y-58158095D01*
D10*
X166084285Y-122598571D02*
X165227142Y-122598571D01*
X165655714Y-122598571D02*
X165655714Y-121098571D01*
X165512857Y-121312857D01*
X165370000Y-121455714D01*
X165227142Y-121527142D01*
X166584285Y-121098571D02*
X167584285Y-121098571D01*
X166941428Y-122598571D01*
X173704285Y-122598571D02*
X172847142Y-122598571D01*
X173275714Y-122598571D02*
X173275714Y-121098571D01*
X173132857Y-121312857D01*
X172990000Y-121455714D01*
X172847142Y-121527142D01*
X174561428Y-121741428D02*
X174418571Y-121670000D01*
X174347142Y-121598571D01*
X174275714Y-121455714D01*
X174275714Y-121384285D01*
X174347142Y-121241428D01*
X174418571Y-121170000D01*
X174561428Y-121098571D01*
X174847142Y-121098571D01*
X174990000Y-121170000D01*
X175061428Y-121241428D01*
X175132857Y-121384285D01*
X175132857Y-121455714D01*
X175061428Y-121598571D01*
X174990000Y-121670000D01*
X174847142Y-121741428D01*
X174561428Y-121741428D01*
X174418571Y-121812857D01*
X174347142Y-121884285D01*
X174275714Y-122027142D01*
X174275714Y-122312857D01*
X174347142Y-122455714D01*
X174418571Y-122527142D01*
X174561428Y-122598571D01*
X174847142Y-122598571D01*
X174990000Y-122527142D01*
X175061428Y-122455714D01*
X175132857Y-122312857D01*
X175132857Y-122027142D01*
X175061428Y-121884285D01*
X174990000Y-121812857D01*
X174847142Y-121741428D01*
X158464285Y-122598571D02*
X157607142Y-122598571D01*
X158035714Y-122598571D02*
X158035714Y-121098571D01*
X157892857Y-121312857D01*
X157750000Y-121455714D01*
X157607142Y-121527142D01*
X159750000Y-121098571D02*
X159464285Y-121098571D01*
X159321428Y-121170000D01*
X159250000Y-121241428D01*
X159107142Y-121455714D01*
X159035714Y-121741428D01*
X159035714Y-122312857D01*
X159107142Y-122455714D01*
X159178571Y-122527142D01*
X159321428Y-122598571D01*
X159607142Y-122598571D01*
X159750000Y-122527142D01*
X159821428Y-122455714D01*
X159892857Y-122312857D01*
X159892857Y-121955714D01*
X159821428Y-121812857D01*
X159750000Y-121741428D01*
X159607142Y-121670000D01*
X159321428Y-121670000D01*
X159178571Y-121741428D01*
X159107142Y-121812857D01*
X159035714Y-121955714D01*
X178391428Y-104012857D02*
X178320000Y-103941428D01*
X178248571Y-103798571D01*
X178248571Y-103441428D01*
X178320000Y-103298571D01*
X178391428Y-103227142D01*
X178534285Y-103155714D01*
X178677142Y-103155714D01*
X178891428Y-103227142D01*
X179748571Y-104084285D01*
X179748571Y-103155714D01*
X178391428Y-102584285D02*
X178320000Y-102512857D01*
X178248571Y-102370000D01*
X178248571Y-102012857D01*
X178320000Y-101870000D01*
X178391428Y-101798571D01*
X178534285Y-101727142D01*
X178677142Y-101727142D01*
X178891428Y-101798571D01*
X179748571Y-102655714D01*
X179748571Y-101727142D01*
X178391428Y-88772857D02*
X178320000Y-88701428D01*
X178248571Y-88558571D01*
X178248571Y-88201428D01*
X178320000Y-88058571D01*
X178391428Y-87987142D01*
X178534285Y-87915714D01*
X178677142Y-87915714D01*
X178891428Y-87987142D01*
X179748571Y-88844285D01*
X179748571Y-87915714D01*
X178748571Y-86630000D02*
X179748571Y-86630000D01*
X178177142Y-86987142D02*
X179248571Y-87344285D01*
X179248571Y-86415714D01*
X120364285Y-122598571D02*
X119507142Y-122598571D01*
X119935714Y-122598571D02*
X119935714Y-121098571D01*
X119792857Y-121312857D01*
X119650000Y-121455714D01*
X119507142Y-121527142D01*
X121792857Y-122598571D02*
X120935714Y-122598571D01*
X121364285Y-122598571D02*
X121364285Y-121098571D01*
X121221428Y-121312857D01*
X121078571Y-121455714D01*
X120935714Y-121527142D01*
X108771428Y-124944285D02*
X108771428Y-125087142D01*
X108700000Y-125230000D01*
X108628571Y-125301428D01*
X108485714Y-125372857D01*
X108200000Y-125444285D01*
X107842857Y-125444285D01*
X107557142Y-125372857D01*
X107414285Y-125301428D01*
X107342857Y-125230000D01*
X107271428Y-125087142D01*
X107271428Y-124944285D01*
X107342857Y-124801428D01*
X107414285Y-124730000D01*
X107557142Y-124658571D01*
X107842857Y-124587142D01*
X108200000Y-124587142D01*
X108485714Y-124658571D01*
X108628571Y-124730000D01*
X108700000Y-124801428D01*
X108771428Y-124944285D01*
X107271428Y-126158571D02*
X107271428Y-126444285D01*
X107342857Y-126587142D01*
X107414285Y-126658571D01*
X107628571Y-126801428D01*
X107914285Y-126872857D01*
X108485714Y-126872857D01*
X108628571Y-126801428D01*
X108700000Y-126730000D01*
X108771428Y-126587142D01*
X108771428Y-126301428D01*
X108700000Y-126158571D01*
X108628571Y-126087142D01*
X108485714Y-126015714D01*
X108128571Y-126015714D01*
X107985714Y-126087142D01*
X107914285Y-126158571D01*
X107842857Y-126301428D01*
X107842857Y-126587142D01*
X107914285Y-126730000D01*
X107985714Y-126801428D01*
X108128571Y-126872857D01*
X108771428Y-71604285D02*
X108771428Y-71747142D01*
X108700000Y-71890000D01*
X108628571Y-71961428D01*
X108485714Y-72032857D01*
X108200000Y-72104285D01*
X107842857Y-72104285D01*
X107557142Y-72032857D01*
X107414285Y-71961428D01*
X107342857Y-71890000D01*
X107271428Y-71747142D01*
X107271428Y-71604285D01*
X107342857Y-71461428D01*
X107414285Y-71390000D01*
X107557142Y-71318571D01*
X107842857Y-71247142D01*
X108200000Y-71247142D01*
X108485714Y-71318571D01*
X108628571Y-71390000D01*
X108700000Y-71461428D01*
X108771428Y-71604285D01*
X108628571Y-72675714D02*
X108700000Y-72747142D01*
X108771428Y-72890000D01*
X108771428Y-73247142D01*
X108700000Y-73390000D01*
X108628571Y-73461428D01*
X108485714Y-73532857D01*
X108342857Y-73532857D01*
X108128571Y-73461428D01*
X107271428Y-72604285D01*
X107271428Y-73532857D01*
X108771428Y-86844285D02*
X108771428Y-86987142D01*
X108700000Y-87130000D01*
X108628571Y-87201428D01*
X108485714Y-87272857D01*
X108200000Y-87344285D01*
X107842857Y-87344285D01*
X107557142Y-87272857D01*
X107414285Y-87201428D01*
X107342857Y-87130000D01*
X107271428Y-86987142D01*
X107271428Y-86844285D01*
X107342857Y-86701428D01*
X107414285Y-86630000D01*
X107557142Y-86558571D01*
X107842857Y-86487142D01*
X108200000Y-86487142D01*
X108485714Y-86558571D01*
X108628571Y-86630000D01*
X108700000Y-86701428D01*
X108771428Y-86844285D01*
X108271428Y-88630000D02*
X107271428Y-88630000D01*
X108842857Y-88272857D02*
X107771428Y-87915714D01*
X107771428Y-88844285D01*
X178391428Y-74167857D02*
X178320000Y-74096428D01*
X178248571Y-73953571D01*
X178248571Y-73596428D01*
X178320000Y-73453571D01*
X178391428Y-73382142D01*
X178534285Y-73310714D01*
X178677142Y-73310714D01*
X178891428Y-73382142D01*
X179748571Y-74239285D01*
X179748571Y-73310714D01*
X178248571Y-72025000D02*
X178248571Y-72310714D01*
X178320000Y-72453571D01*
X178391428Y-72525000D01*
X178605714Y-72667857D01*
X178891428Y-72739285D01*
X179462857Y-72739285D01*
X179605714Y-72667857D01*
X179677142Y-72596428D01*
X179748571Y-72453571D01*
X179748571Y-72167857D01*
X179677142Y-72025000D01*
X179605714Y-71953571D01*
X179462857Y-71882142D01*
X179105714Y-71882142D01*
X178962857Y-71953571D01*
X178891428Y-72025000D01*
X178820000Y-72167857D01*
X178820000Y-72453571D01*
X178891428Y-72596428D01*
X178962857Y-72667857D01*
X179105714Y-72739285D01*
X108771428Y-117324285D02*
X108771428Y-117467142D01*
X108700000Y-117610000D01*
X108628571Y-117681428D01*
X108485714Y-117752857D01*
X108200000Y-117824285D01*
X107842857Y-117824285D01*
X107557142Y-117752857D01*
X107414285Y-117681428D01*
X107342857Y-117610000D01*
X107271428Y-117467142D01*
X107271428Y-117324285D01*
X107342857Y-117181428D01*
X107414285Y-117110000D01*
X107557142Y-117038571D01*
X107842857Y-116967142D01*
X108200000Y-116967142D01*
X108485714Y-117038571D01*
X108628571Y-117110000D01*
X108700000Y-117181428D01*
X108771428Y-117324285D01*
X108128571Y-118681428D02*
X108200000Y-118538571D01*
X108271428Y-118467142D01*
X108414285Y-118395714D01*
X108485714Y-118395714D01*
X108628571Y-118467142D01*
X108700000Y-118538571D01*
X108771428Y-118681428D01*
X108771428Y-118967142D01*
X108700000Y-119110000D01*
X108628571Y-119181428D01*
X108485714Y-119252857D01*
X108414285Y-119252857D01*
X108271428Y-119181428D01*
X108200000Y-119110000D01*
X108128571Y-118967142D01*
X108128571Y-118681428D01*
X108057142Y-118538571D01*
X107985714Y-118467142D01*
X107842857Y-118395714D01*
X107557142Y-118395714D01*
X107414285Y-118467142D01*
X107342857Y-118538571D01*
X107271428Y-118681428D01*
X107271428Y-118967142D01*
X107342857Y-119110000D01*
X107414285Y-119181428D01*
X107557142Y-119252857D01*
X107842857Y-119252857D01*
X107985714Y-119181428D01*
X108057142Y-119110000D01*
X108128571Y-118967142D01*
X108771428Y-94464285D02*
X108771428Y-94607142D01*
X108700000Y-94750000D01*
X108628571Y-94821428D01*
X108485714Y-94892857D01*
X108200000Y-94964285D01*
X107842857Y-94964285D01*
X107557142Y-94892857D01*
X107414285Y-94821428D01*
X107342857Y-94750000D01*
X107271428Y-94607142D01*
X107271428Y-94464285D01*
X107342857Y-94321428D01*
X107414285Y-94250000D01*
X107557142Y-94178571D01*
X107842857Y-94107142D01*
X108200000Y-94107142D01*
X108485714Y-94178571D01*
X108628571Y-94250000D01*
X108700000Y-94321428D01*
X108771428Y-94464285D01*
X108771428Y-96321428D02*
X108771428Y-95607142D01*
X108057142Y-95535714D01*
X108128571Y-95607142D01*
X108200000Y-95750000D01*
X108200000Y-96107142D01*
X108128571Y-96250000D01*
X108057142Y-96321428D01*
X107914285Y-96392857D01*
X107557142Y-96392857D01*
X107414285Y-96321428D01*
X107342857Y-96250000D01*
X107271428Y-96107142D01*
X107271428Y-95750000D01*
X107342857Y-95607142D01*
X107414285Y-95535714D01*
X127984285Y-122598571D02*
X127127142Y-122598571D01*
X127555714Y-122598571D02*
X127555714Y-121098571D01*
X127412857Y-121312857D01*
X127270000Y-121455714D01*
X127127142Y-121527142D01*
X128555714Y-121241428D02*
X128627142Y-121170000D01*
X128770000Y-121098571D01*
X129127142Y-121098571D01*
X129270000Y-121170000D01*
X129341428Y-121241428D01*
X129412857Y-121384285D01*
X129412857Y-121527142D01*
X129341428Y-121741428D01*
X128484285Y-122598571D01*
X129412857Y-122598571D01*
X135604285Y-122598571D02*
X134747142Y-122598571D01*
X135175714Y-122598571D02*
X135175714Y-121098571D01*
X135032857Y-121312857D01*
X134890000Y-121455714D01*
X134747142Y-121527142D01*
X136104285Y-121098571D02*
X137032857Y-121098571D01*
X136532857Y-121670000D01*
X136747142Y-121670000D01*
X136890000Y-121741428D01*
X136961428Y-121812857D01*
X137032857Y-121955714D01*
X137032857Y-122312857D01*
X136961428Y-122455714D01*
X136890000Y-122527142D01*
X136747142Y-122598571D01*
X136318571Y-122598571D01*
X136175714Y-122527142D01*
X136104285Y-122455714D01*
X179748571Y-126015714D02*
X179748571Y-126872857D01*
X179748571Y-126444285D02*
X178248571Y-126444285D01*
X178462857Y-126587142D01*
X178605714Y-126730000D01*
X178677142Y-126872857D01*
X179748571Y-125301428D02*
X179748571Y-125015714D01*
X179677142Y-124872857D01*
X179605714Y-124801428D01*
X179391428Y-124658571D01*
X179105714Y-124587142D01*
X178534285Y-124587142D01*
X178391428Y-124658571D01*
X178320000Y-124730000D01*
X178248571Y-124872857D01*
X178248571Y-125158571D01*
X178320000Y-125301428D01*
X178391428Y-125372857D01*
X178534285Y-125444285D01*
X178891428Y-125444285D01*
X179034285Y-125372857D01*
X179105714Y-125301428D01*
X179177142Y-125158571D01*
X179177142Y-124872857D01*
X179105714Y-124730000D01*
X179034285Y-124658571D01*
X178891428Y-124587142D01*
X178391428Y-81787857D02*
X178320000Y-81716428D01*
X178248571Y-81573571D01*
X178248571Y-81216428D01*
X178320000Y-81073571D01*
X178391428Y-81002142D01*
X178534285Y-80930714D01*
X178677142Y-80930714D01*
X178891428Y-81002142D01*
X179748571Y-81859285D01*
X179748571Y-80930714D01*
X178248571Y-79573571D02*
X178248571Y-80287857D01*
X178962857Y-80359285D01*
X178891428Y-80287857D01*
X178820000Y-80145000D01*
X178820000Y-79787857D01*
X178891428Y-79645000D01*
X178962857Y-79573571D01*
X179105714Y-79502142D01*
X179462857Y-79502142D01*
X179605714Y-79573571D01*
X179677142Y-79645000D01*
X179748571Y-79787857D01*
X179748571Y-80145000D01*
X179677142Y-80287857D01*
X179605714Y-80359285D01*
X178391428Y-96392857D02*
X178320000Y-96321428D01*
X178248571Y-96178571D01*
X178248571Y-95821428D01*
X178320000Y-95678571D01*
X178391428Y-95607142D01*
X178534285Y-95535714D01*
X178677142Y-95535714D01*
X178891428Y-95607142D01*
X179748571Y-96464285D01*
X179748571Y-95535714D01*
X178248571Y-95035714D02*
X178248571Y-94107142D01*
X178820000Y-94607142D01*
X178820000Y-94392857D01*
X178891428Y-94250000D01*
X178962857Y-94178571D01*
X179105714Y-94107142D01*
X179462857Y-94107142D01*
X179605714Y-94178571D01*
X179677142Y-94250000D01*
X179748571Y-94392857D01*
X179748571Y-94821428D01*
X179677142Y-94964285D01*
X179605714Y-95035714D01*
X143224285Y-122598571D02*
X142367142Y-122598571D01*
X142795714Y-122598571D02*
X142795714Y-121098571D01*
X142652857Y-121312857D01*
X142510000Y-121455714D01*
X142367142Y-121527142D01*
X144510000Y-121598571D02*
X144510000Y-122598571D01*
X144152857Y-121027142D02*
X143795714Y-122098571D01*
X144724285Y-122098571D01*
X108771428Y-102084285D02*
X108771428Y-102227142D01*
X108700000Y-102370000D01*
X108628571Y-102441428D01*
X108485714Y-102512857D01*
X108200000Y-102584285D01*
X107842857Y-102584285D01*
X107557142Y-102512857D01*
X107414285Y-102441428D01*
X107342857Y-102370000D01*
X107271428Y-102227142D01*
X107271428Y-102084285D01*
X107342857Y-101941428D01*
X107414285Y-101870000D01*
X107557142Y-101798571D01*
X107842857Y-101727142D01*
X108200000Y-101727142D01*
X108485714Y-101798571D01*
X108628571Y-101870000D01*
X108700000Y-101941428D01*
X108771428Y-102084285D01*
X108771428Y-103870000D02*
X108771428Y-103584285D01*
X108700000Y-103441428D01*
X108628571Y-103370000D01*
X108414285Y-103227142D01*
X108128571Y-103155714D01*
X107557142Y-103155714D01*
X107414285Y-103227142D01*
X107342857Y-103298571D01*
X107271428Y-103441428D01*
X107271428Y-103727142D01*
X107342857Y-103870000D01*
X107414285Y-103941428D01*
X107557142Y-104012857D01*
X107914285Y-104012857D01*
X108057142Y-103941428D01*
X108128571Y-103870000D01*
X108200000Y-103727142D01*
X108200000Y-103441428D01*
X108128571Y-103298571D01*
X108057142Y-103227142D01*
X107914285Y-103155714D01*
X112744285Y-122598571D02*
X111887142Y-122598571D01*
X112315714Y-122598571D02*
X112315714Y-121098571D01*
X112172857Y-121312857D01*
X112030000Y-121455714D01*
X111887142Y-121527142D01*
X113672857Y-121098571D02*
X113815714Y-121098571D01*
X113958571Y-121170000D01*
X114030000Y-121241428D01*
X114101428Y-121384285D01*
X114172857Y-121670000D01*
X114172857Y-122027142D01*
X114101428Y-122312857D01*
X114030000Y-122455714D01*
X113958571Y-122527142D01*
X113815714Y-122598571D01*
X113672857Y-122598571D01*
X113530000Y-122527142D01*
X113458571Y-122455714D01*
X113387142Y-122312857D01*
X113315714Y-122027142D01*
X113315714Y-121670000D01*
X113387142Y-121384285D01*
X113458571Y-121241428D01*
X113530000Y-121170000D01*
X113672857Y-121098571D01*
X108771428Y-109704285D02*
X108771428Y-109847142D01*
X108700000Y-109990000D01*
X108628571Y-110061428D01*
X108485714Y-110132857D01*
X108200000Y-110204285D01*
X107842857Y-110204285D01*
X107557142Y-110132857D01*
X107414285Y-110061428D01*
X107342857Y-109990000D01*
X107271428Y-109847142D01*
X107271428Y-109704285D01*
X107342857Y-109561428D01*
X107414285Y-109490000D01*
X107557142Y-109418571D01*
X107842857Y-109347142D01*
X108200000Y-109347142D01*
X108485714Y-109418571D01*
X108628571Y-109490000D01*
X108700000Y-109561428D01*
X108771428Y-109704285D01*
X108771428Y-110704285D02*
X108771428Y-111704285D01*
X107271428Y-111061428D01*
X178391428Y-119252857D02*
X178320000Y-119181428D01*
X178248571Y-119038571D01*
X178248571Y-118681428D01*
X178320000Y-118538571D01*
X178391428Y-118467142D01*
X178534285Y-118395714D01*
X178677142Y-118395714D01*
X178891428Y-118467142D01*
X179748571Y-119324285D01*
X179748571Y-118395714D01*
X178248571Y-117467142D02*
X178248571Y-117324285D01*
X178320000Y-117181428D01*
X178391428Y-117110000D01*
X178534285Y-117038571D01*
X178820000Y-116967142D01*
X179177142Y-116967142D01*
X179462857Y-117038571D01*
X179605714Y-117110000D01*
X179677142Y-117181428D01*
X179748571Y-117324285D01*
X179748571Y-117467142D01*
X179677142Y-117610000D01*
X179605714Y-117681428D01*
X179462857Y-117752857D01*
X179177142Y-117824285D01*
X178820000Y-117824285D01*
X178534285Y-117752857D01*
X178391428Y-117681428D01*
X178320000Y-117610000D01*
X178248571Y-117467142D01*
X178391428Y-111632857D02*
X178320000Y-111561428D01*
X178248571Y-111418571D01*
X178248571Y-111061428D01*
X178320000Y-110918571D01*
X178391428Y-110847142D01*
X178534285Y-110775714D01*
X178677142Y-110775714D01*
X178891428Y-110847142D01*
X179748571Y-111704285D01*
X179748571Y-110775714D01*
X179748571Y-109347142D02*
X179748571Y-110204285D01*
X179748571Y-109775714D02*
X178248571Y-109775714D01*
X178462857Y-109918571D01*
X178605714Y-110061428D01*
X178677142Y-110204285D01*
X178391428Y-65912857D02*
X178320000Y-65841428D01*
X178248571Y-65698571D01*
X178248571Y-65341428D01*
X178320000Y-65198571D01*
X178391428Y-65127142D01*
X178534285Y-65055714D01*
X178677142Y-65055714D01*
X178891428Y-65127142D01*
X179748571Y-65984285D01*
X179748571Y-65055714D01*
X178248571Y-64555714D02*
X178248571Y-63555714D01*
X179748571Y-64198571D01*
X108771428Y-63984285D02*
X108771428Y-64127142D01*
X108700000Y-64270000D01*
X108628571Y-64341428D01*
X108485714Y-64412857D01*
X108200000Y-64484285D01*
X107842857Y-64484285D01*
X107557142Y-64412857D01*
X107414285Y-64341428D01*
X107342857Y-64270000D01*
X107271428Y-64127142D01*
X107271428Y-63984285D01*
X107342857Y-63841428D01*
X107414285Y-63770000D01*
X107557142Y-63698571D01*
X107842857Y-63627142D01*
X108200000Y-63627142D01*
X108485714Y-63698571D01*
X108628571Y-63770000D01*
X108700000Y-63841428D01*
X108771428Y-63984285D01*
X107271428Y-65912857D02*
X107271428Y-65055714D01*
X107271428Y-65484285D02*
X108771428Y-65484285D01*
X108557142Y-65341428D01*
X108414285Y-65198571D01*
X108342857Y-65055714D01*
X108771428Y-79224285D02*
X108771428Y-79367142D01*
X108700000Y-79510000D01*
X108628571Y-79581428D01*
X108485714Y-79652857D01*
X108200000Y-79724285D01*
X107842857Y-79724285D01*
X107557142Y-79652857D01*
X107414285Y-79581428D01*
X107342857Y-79510000D01*
X107271428Y-79367142D01*
X107271428Y-79224285D01*
X107342857Y-79081428D01*
X107414285Y-79010000D01*
X107557142Y-78938571D01*
X107842857Y-78867142D01*
X108200000Y-78867142D01*
X108485714Y-78938571D01*
X108628571Y-79010000D01*
X108700000Y-79081428D01*
X108771428Y-79224285D01*
X108771428Y-80224285D02*
X108771428Y-81152857D01*
X108200000Y-80652857D01*
X108200000Y-80867142D01*
X108128571Y-81010000D01*
X108057142Y-81081428D01*
X107914285Y-81152857D01*
X107557142Y-81152857D01*
X107414285Y-81081428D01*
X107342857Y-81010000D01*
X107271428Y-80867142D01*
X107271428Y-80438571D01*
X107342857Y-80295714D01*
X107414285Y-80224285D01*
X150844285Y-122598571D02*
X149987142Y-122598571D01*
X150415714Y-122598571D02*
X150415714Y-121098571D01*
X150272857Y-121312857D01*
X150130000Y-121455714D01*
X149987142Y-121527142D01*
X152201428Y-121098571D02*
X151487142Y-121098571D01*
X151415714Y-121812857D01*
X151487142Y-121741428D01*
X151630000Y-121670000D01*
X151987142Y-121670000D01*
X152130000Y-121741428D01*
X152201428Y-121812857D01*
X152272857Y-121955714D01*
X152272857Y-122312857D01*
X152201428Y-122455714D01*
X152130000Y-122527142D01*
X151987142Y-122598571D01*
X151630000Y-122598571D01*
X151487142Y-122527142D01*
X151415714Y-122455714D01*
D12*
G04 #@! TO.C,U1*
X148210000Y-106670000D02*
X148210000Y-95170000D01*
X138831000Y-95170000D02*
X148210000Y-95170000D01*
X138831000Y-106670000D02*
X148210000Y-106670000D01*
X151150000Y-109210000D02*
X135910000Y-109210000D01*
X134640000Y-95240000D02*
X134640000Y-107940000D01*
X152420000Y-95240000D02*
X152420000Y-107940000D01*
X150896000Y-93970000D02*
X151150000Y-93970000D01*
X150642000Y-92446000D02*
X150642000Y-93716000D01*
X136164000Y-93970000D02*
G75*
G03X136418000Y-93716000I0J254000D01*
G01*
X150642000Y-93716000D02*
G75*
G03X150896000Y-93970000I254000J0D01*
G01*
X135910000Y-93970000D02*
G75*
G03X134640000Y-95240000I0J-1270000D01*
G01*
X152420000Y-95240000D02*
G75*
G03X151150000Y-93970000I-1270000J0D01*
G01*
X134640000Y-107940000D02*
G75*
G03X135910000Y-109210000I1270000J0D01*
G01*
X151150000Y-109210000D02*
G75*
G03X152420000Y-107940000I0J1270000D01*
G01*
X150642000Y-91430000D02*
X151150000Y-91430000D01*
X136418000Y-92446000D02*
G75*
G03X136418000Y-91430000I0J508000D01*
G01*
X134640000Y-90160000D02*
G75*
G03X135910000Y-91430000I1270000J0D01*
G01*
X151150000Y-91430000D02*
G75*
G03X152420000Y-90160000I0J1270000D01*
G01*
X150642000Y-91430000D02*
G75*
G03X150642000Y-92446000I0J-508000D01*
G01*
X135910000Y-57676000D02*
G75*
G03X134640000Y-58946000I0J-1270000D01*
G01*
X144260000Y-77435000D02*
G75*
G03X144260000Y-77435000I-750000J0D01*
G01*
X152420000Y-58946000D02*
G75*
G03X151150000Y-57676000I-1270000J0D01*
G01*
X135910000Y-57676000D02*
X151150000Y-57676000D01*
X134640000Y-58946000D02*
X134640000Y-90160000D01*
X152420000Y-90160000D02*
X152420000Y-58946000D01*
X135910000Y-91430000D02*
X136420000Y-91430000D01*
X135910000Y-93970000D02*
X136164000Y-93970000D01*
X136418000Y-92446000D02*
X136418000Y-93716000D01*
X138831000Y-95170000D02*
X138831000Y-106670000D01*
D13*
G04 #@! TO.C,J1*
X129480000Y-60900000D02*
X130810000Y-60900000D01*
X129480000Y-62230000D02*
X129480000Y-60900000D01*
X129480000Y-63500000D02*
X132140000Y-63500000D01*
X132140000Y-63500000D02*
X132140000Y-63560000D01*
X129480000Y-63500000D02*
X129480000Y-63560000D01*
X129480000Y-63560000D02*
X132140000Y-63560000D01*
G04 #@! TO.C,J2*
X129480000Y-66100000D02*
X132140000Y-66100000D01*
X129480000Y-66040000D02*
X129480000Y-66100000D01*
X132140000Y-66040000D02*
X132140000Y-66100000D01*
X129480000Y-66040000D02*
X132140000Y-66040000D01*
X129480000Y-64770000D02*
X129480000Y-63440000D01*
X129480000Y-63440000D02*
X130810000Y-63440000D01*
G04 #@! TO.C,J3*
X129480000Y-73720000D02*
X132140000Y-73720000D01*
X129480000Y-73660000D02*
X129480000Y-73720000D01*
X132140000Y-73660000D02*
X132140000Y-73720000D01*
X129480000Y-73660000D02*
X132140000Y-73660000D01*
X129480000Y-72390000D02*
X129480000Y-71060000D01*
X129480000Y-71060000D02*
X130810000Y-71060000D01*
G04 #@! TO.C,J4*
X129480000Y-73600000D02*
X130810000Y-73600000D01*
X129480000Y-74930000D02*
X129480000Y-73600000D01*
X129480000Y-76200000D02*
X132140000Y-76200000D01*
X132140000Y-76200000D02*
X132140000Y-76260000D01*
X129480000Y-76200000D02*
X129480000Y-76260000D01*
X129480000Y-76260000D02*
X132140000Y-76260000D01*
G04 #@! TO.C,J5*
X129480000Y-76140000D02*
X130810000Y-76140000D01*
X129480000Y-77470000D02*
X129480000Y-76140000D01*
X129480000Y-78740000D02*
X132140000Y-78740000D01*
X132140000Y-78740000D02*
X132140000Y-78800000D01*
X129480000Y-78740000D02*
X129480000Y-78800000D01*
X129480000Y-78800000D02*
X132140000Y-78800000D01*
G04 #@! TO.C,J6*
X129480000Y-81340000D02*
X132140000Y-81340000D01*
X129480000Y-81280000D02*
X129480000Y-81340000D01*
X132140000Y-81280000D02*
X132140000Y-81340000D01*
X129480000Y-81280000D02*
X132140000Y-81280000D01*
X129480000Y-80010000D02*
X129480000Y-78680000D01*
X129480000Y-78680000D02*
X130810000Y-78680000D01*
G04 #@! TO.C,J7*
X129480000Y-83880000D02*
X132140000Y-83880000D01*
X129480000Y-83820000D02*
X129480000Y-83880000D01*
X132140000Y-83820000D02*
X132140000Y-83880000D01*
X129480000Y-83820000D02*
X132140000Y-83820000D01*
X129480000Y-82550000D02*
X129480000Y-81220000D01*
X129480000Y-81220000D02*
X130810000Y-81220000D01*
G04 #@! TO.C,J8*
X129480000Y-83760000D02*
X130810000Y-83760000D01*
X129480000Y-85090000D02*
X129480000Y-83760000D01*
X129480000Y-86360000D02*
X132140000Y-86360000D01*
X132140000Y-86360000D02*
X132140000Y-86420000D01*
X129480000Y-86360000D02*
X129480000Y-86420000D01*
X129480000Y-86420000D02*
X132140000Y-86420000D01*
G04 #@! TO.C,J9*
X129480000Y-88960000D02*
X132140000Y-88960000D01*
X129480000Y-88900000D02*
X129480000Y-88960000D01*
X132140000Y-88900000D02*
X132140000Y-88960000D01*
X129480000Y-88900000D02*
X132140000Y-88900000D01*
X129480000Y-87630000D02*
X129480000Y-86300000D01*
X129480000Y-86300000D02*
X130810000Y-86300000D01*
G04 #@! TO.C,J10*
X129480000Y-88840000D02*
X130810000Y-88840000D01*
X129480000Y-90170000D02*
X129480000Y-88840000D01*
X129480000Y-91440000D02*
X132140000Y-91440000D01*
X132140000Y-91440000D02*
X132140000Y-91500000D01*
X129480000Y-91440000D02*
X129480000Y-91500000D01*
X129480000Y-91500000D02*
X132140000Y-91500000D01*
G04 #@! TO.C,J11*
X129480000Y-96580000D02*
X132140000Y-96580000D01*
X129480000Y-96520000D02*
X129480000Y-96580000D01*
X132140000Y-96520000D02*
X132140000Y-96580000D01*
X129480000Y-96520000D02*
X132140000Y-96520000D01*
X129480000Y-95250000D02*
X129480000Y-93920000D01*
X129480000Y-93920000D02*
X130810000Y-93920000D01*
G04 #@! TO.C,J12*
X129480000Y-96460000D02*
X130810000Y-96460000D01*
X129480000Y-97790000D02*
X129480000Y-96460000D01*
X129480000Y-99060000D02*
X132140000Y-99060000D01*
X132140000Y-99060000D02*
X132140000Y-99120000D01*
X129480000Y-99060000D02*
X129480000Y-99120000D01*
X129480000Y-99120000D02*
X132140000Y-99120000D01*
G04 #@! TO.C,J13*
X129480000Y-99000000D02*
X130810000Y-99000000D01*
X129480000Y-100330000D02*
X129480000Y-99000000D01*
X129480000Y-101600000D02*
X132140000Y-101600000D01*
X132140000Y-101600000D02*
X132140000Y-101660000D01*
X129480000Y-101600000D02*
X129480000Y-101660000D01*
X129480000Y-101660000D02*
X132140000Y-101660000D01*
G04 #@! TO.C,J14*
X129480000Y-104200000D02*
X132140000Y-104200000D01*
X129480000Y-104140000D02*
X129480000Y-104200000D01*
X132140000Y-104140000D02*
X132140000Y-104200000D01*
X129480000Y-104140000D02*
X132140000Y-104140000D01*
X129480000Y-102870000D02*
X129480000Y-101540000D01*
X129480000Y-101540000D02*
X130810000Y-101540000D01*
G04 #@! TO.C,J15*
X129480000Y-104080000D02*
X130810000Y-104080000D01*
X129480000Y-105410000D02*
X129480000Y-104080000D01*
X129480000Y-106680000D02*
X132140000Y-106680000D01*
X132140000Y-106680000D02*
X132140000Y-106740000D01*
X129480000Y-106680000D02*
X129480000Y-106740000D01*
X129480000Y-106740000D02*
X132140000Y-106740000D01*
G04 #@! TO.C,J16*
X129480000Y-109280000D02*
X132140000Y-109280000D01*
X129480000Y-109220000D02*
X129480000Y-109280000D01*
X132140000Y-109220000D02*
X132140000Y-109280000D01*
X129480000Y-109220000D02*
X132140000Y-109220000D01*
X129480000Y-107950000D02*
X129480000Y-106620000D01*
X129480000Y-106620000D02*
X130810000Y-106620000D01*
G04 #@! TO.C,J17*
X154880000Y-106620000D02*
X156210000Y-106620000D01*
X154880000Y-107950000D02*
X154880000Y-106620000D01*
X154880000Y-109220000D02*
X157540000Y-109220000D01*
X157540000Y-109220000D02*
X157540000Y-109280000D01*
X154880000Y-109220000D02*
X154880000Y-109280000D01*
X154880000Y-109280000D02*
X157540000Y-109280000D01*
G04 #@! TO.C,J18*
X154880000Y-104080000D02*
X156210000Y-104080000D01*
X154880000Y-105410000D02*
X154880000Y-104080000D01*
X154880000Y-106680000D02*
X157540000Y-106680000D01*
X157540000Y-106680000D02*
X157540000Y-106740000D01*
X154880000Y-106680000D02*
X154880000Y-106740000D01*
X154880000Y-106740000D02*
X157540000Y-106740000D01*
G04 #@! TO.C,J19*
X154880000Y-104200000D02*
X157540000Y-104200000D01*
X154880000Y-104140000D02*
X154880000Y-104200000D01*
X157540000Y-104140000D02*
X157540000Y-104200000D01*
X154880000Y-104140000D02*
X157540000Y-104140000D01*
X154880000Y-102870000D02*
X154880000Y-101540000D01*
X154880000Y-101540000D02*
X156210000Y-101540000D01*
G04 #@! TO.C,J20*
X154880000Y-99000000D02*
X156210000Y-99000000D01*
X154880000Y-100330000D02*
X154880000Y-99000000D01*
X154880000Y-101600000D02*
X157540000Y-101600000D01*
X157540000Y-101600000D02*
X157540000Y-101660000D01*
X154880000Y-101600000D02*
X154880000Y-101660000D01*
X154880000Y-101660000D02*
X157540000Y-101660000D01*
G04 #@! TO.C,J21*
X154880000Y-99120000D02*
X157540000Y-99120000D01*
X154880000Y-99060000D02*
X154880000Y-99120000D01*
X157540000Y-99060000D02*
X157540000Y-99120000D01*
X154880000Y-99060000D02*
X157540000Y-99060000D01*
X154880000Y-97790000D02*
X154880000Y-96460000D01*
X154880000Y-96460000D02*
X156210000Y-96460000D01*
G04 #@! TO.C,J22*
X154880000Y-93920000D02*
X156210000Y-93920000D01*
X154880000Y-95250000D02*
X154880000Y-93920000D01*
X154880000Y-96520000D02*
X157540000Y-96520000D01*
X157540000Y-96520000D02*
X157540000Y-96580000D01*
X154880000Y-96520000D02*
X154880000Y-96580000D01*
X154880000Y-96580000D02*
X157540000Y-96580000D01*
G04 #@! TO.C,J23*
X154880000Y-91500000D02*
X157540000Y-91500000D01*
X154880000Y-91440000D02*
X154880000Y-91500000D01*
X157540000Y-91440000D02*
X157540000Y-91500000D01*
X154880000Y-91440000D02*
X157540000Y-91440000D01*
X154880000Y-90170000D02*
X154880000Y-88840000D01*
X154880000Y-88840000D02*
X156210000Y-88840000D01*
G04 #@! TO.C,J24*
X154880000Y-86300000D02*
X156210000Y-86300000D01*
X154880000Y-87630000D02*
X154880000Y-86300000D01*
X154880000Y-88900000D02*
X157540000Y-88900000D01*
X157540000Y-88900000D02*
X157540000Y-88960000D01*
X154880000Y-88900000D02*
X154880000Y-88960000D01*
X154880000Y-88960000D02*
X157540000Y-88960000D01*
G04 #@! TO.C,J25*
X154880000Y-86420000D02*
X157540000Y-86420000D01*
X154880000Y-86360000D02*
X154880000Y-86420000D01*
X157540000Y-86360000D02*
X157540000Y-86420000D01*
X154880000Y-86360000D02*
X157540000Y-86360000D01*
X154880000Y-85090000D02*
X154880000Y-83760000D01*
X154880000Y-83760000D02*
X156210000Y-83760000D01*
G04 #@! TO.C,J26*
X154880000Y-81220000D02*
X156210000Y-81220000D01*
X154880000Y-82550000D02*
X154880000Y-81220000D01*
X154880000Y-83820000D02*
X157540000Y-83820000D01*
X157540000Y-83820000D02*
X157540000Y-83880000D01*
X154880000Y-83820000D02*
X154880000Y-83880000D01*
X154880000Y-83880000D02*
X157540000Y-83880000D01*
G04 #@! TO.C,J27*
X154880000Y-81340000D02*
X157540000Y-81340000D01*
X154880000Y-81280000D02*
X154880000Y-81340000D01*
X157540000Y-81280000D02*
X157540000Y-81340000D01*
X154880000Y-81280000D02*
X157540000Y-81280000D01*
X154880000Y-80010000D02*
X154880000Y-78680000D01*
X154880000Y-78680000D02*
X156210000Y-78680000D01*
G04 #@! TO.C,J28*
X154880000Y-76140000D02*
X156210000Y-76140000D01*
X154880000Y-77470000D02*
X154880000Y-76140000D01*
X154880000Y-78740000D02*
X157540000Y-78740000D01*
X157540000Y-78740000D02*
X157540000Y-78800000D01*
X154880000Y-78740000D02*
X154880000Y-78800000D01*
X154880000Y-78800000D02*
X157540000Y-78800000D01*
G04 #@! TO.C,J29*
X154880000Y-76260000D02*
X157540000Y-76260000D01*
X154880000Y-76200000D02*
X154880000Y-76260000D01*
X157540000Y-76200000D02*
X157540000Y-76260000D01*
X154880000Y-76200000D02*
X157540000Y-76200000D01*
X154880000Y-74930000D02*
X154880000Y-73600000D01*
X154880000Y-73600000D02*
X156210000Y-73600000D01*
G04 #@! TO.C,J30*
X154880000Y-73720000D02*
X157540000Y-73720000D01*
X154880000Y-73660000D02*
X154880000Y-73720000D01*
X157540000Y-73660000D02*
X157540000Y-73720000D01*
X154880000Y-73660000D02*
X157540000Y-73660000D01*
X154880000Y-72390000D02*
X154880000Y-71060000D01*
X154880000Y-71060000D02*
X156210000Y-71060000D01*
G04 #@! TO.C,J31*
X154880000Y-68520000D02*
X156210000Y-68520000D01*
X154880000Y-69850000D02*
X154880000Y-68520000D01*
X154880000Y-71120000D02*
X157540000Y-71120000D01*
X157540000Y-71120000D02*
X157540000Y-71180000D01*
X154880000Y-71120000D02*
X154880000Y-71180000D01*
X154880000Y-71180000D02*
X157540000Y-71180000D01*
G04 #@! TO.C,J32*
X154880000Y-65980000D02*
X156210000Y-65980000D01*
X154880000Y-67310000D02*
X154880000Y-65980000D01*
X154880000Y-68580000D02*
X157540000Y-68580000D01*
X157540000Y-68580000D02*
X157540000Y-68640000D01*
X154880000Y-68580000D02*
X154880000Y-68640000D01*
X154880000Y-68640000D02*
X157540000Y-68640000D01*
G04 #@! TO.C,J33*
X154880000Y-66100000D02*
X157540000Y-66100000D01*
X154880000Y-66040000D02*
X154880000Y-66100000D01*
X157540000Y-66040000D02*
X157540000Y-66100000D01*
X154880000Y-66040000D02*
X157540000Y-66040000D01*
X154880000Y-64770000D02*
X154880000Y-63440000D01*
X154880000Y-63440000D02*
X156210000Y-63440000D01*
G04 #@! TO.C,J34*
X154880000Y-63560000D02*
X157540000Y-63560000D01*
X154880000Y-63500000D02*
X154880000Y-63560000D01*
X157540000Y-63500000D02*
X157540000Y-63560000D01*
X154880000Y-63500000D02*
X157540000Y-63500000D01*
X154880000Y-62230000D02*
X154880000Y-60900000D01*
X154880000Y-60900000D02*
X156210000Y-60900000D01*
G04 #@! TO.C,J35*
X129480000Y-65980000D02*
X130810000Y-65980000D01*
X129480000Y-67310000D02*
X129480000Y-65980000D01*
X129480000Y-68580000D02*
X132140000Y-68580000D01*
X132140000Y-68580000D02*
X132140000Y-68640000D01*
X129480000Y-68580000D02*
X129480000Y-68640000D01*
X129480000Y-68640000D02*
X132140000Y-68640000D01*
G04 #@! TO.C,J36*
X129480000Y-71180000D02*
X132140000Y-71180000D01*
X129480000Y-71120000D02*
X129480000Y-71180000D01*
X132140000Y-71120000D02*
X132140000Y-71180000D01*
X129480000Y-71120000D02*
X132140000Y-71120000D01*
X129480000Y-69850000D02*
X129480000Y-68520000D01*
X129480000Y-68520000D02*
X130810000Y-68520000D01*
D12*
G04 #@! TO.C,D1*
X123698000Y-61722000D02*
X123698000Y-60198000D01*
X123825000Y-61722000D02*
X123825000Y-60198000D01*
X123952000Y-60198000D02*
X123952000Y-61722000D01*
X124333000Y-61722000D02*
X124333000Y-60198000D01*
X124206000Y-60198000D02*
X124206000Y-61722000D01*
X124079000Y-61722000D02*
X124079000Y-60198000D01*
X119380000Y-61722000D02*
X119888000Y-61722000D01*
X119380000Y-60198000D02*
X119380000Y-61722000D01*
X124460000Y-60198000D02*
X119380000Y-60198000D01*
X124460000Y-61722000D02*
X124460000Y-60198000D01*
X119380000Y-61722000D02*
X124460000Y-61722000D01*
G04 #@! TO.C,D2*
X123698000Y-65532000D02*
X123698000Y-64008000D01*
X123825000Y-65532000D02*
X123825000Y-64008000D01*
X123952000Y-64008000D02*
X123952000Y-65532000D01*
X124333000Y-65532000D02*
X124333000Y-64008000D01*
X124206000Y-64008000D02*
X124206000Y-65532000D01*
X124079000Y-65532000D02*
X124079000Y-64008000D01*
X119380000Y-65532000D02*
X119888000Y-65532000D01*
X119380000Y-64008000D02*
X119380000Y-65532000D01*
X124460000Y-64008000D02*
X119380000Y-64008000D01*
X124460000Y-65532000D02*
X124460000Y-64008000D01*
X119380000Y-65532000D02*
X124460000Y-65532000D01*
G04 #@! TO.C,D3*
X119380000Y-69342000D02*
X124460000Y-69342000D01*
X124460000Y-69342000D02*
X124460000Y-67818000D01*
X124460000Y-67818000D02*
X119380000Y-67818000D01*
X119380000Y-67818000D02*
X119380000Y-69342000D01*
X119380000Y-69342000D02*
X119888000Y-69342000D01*
X124079000Y-69342000D02*
X124079000Y-67818000D01*
X124206000Y-67818000D02*
X124206000Y-69342000D01*
X124333000Y-69342000D02*
X124333000Y-67818000D01*
X123952000Y-67818000D02*
X123952000Y-69342000D01*
X123825000Y-69342000D02*
X123825000Y-67818000D01*
X123698000Y-69342000D02*
X123698000Y-67818000D01*
G04 #@! TO.C,D4*
X123828000Y-73152000D02*
X123828000Y-71628000D01*
X123955000Y-73152000D02*
X123955000Y-71628000D01*
X124082000Y-71628000D02*
X124082000Y-73152000D01*
X124463000Y-73152000D02*
X124463000Y-71628000D01*
X124336000Y-71628000D02*
X124336000Y-73152000D01*
X124209000Y-73152000D02*
X124209000Y-71628000D01*
X119510000Y-73152000D02*
X120018000Y-73152000D01*
X119510000Y-71628000D02*
X119510000Y-73152000D01*
X124590000Y-71628000D02*
X119510000Y-71628000D01*
X124590000Y-73152000D02*
X124590000Y-71628000D01*
X119510000Y-73152000D02*
X124590000Y-73152000D01*
G04 #@! TO.C,D5*
X119510000Y-76962000D02*
X124590000Y-76962000D01*
X124590000Y-76962000D02*
X124590000Y-75438000D01*
X124590000Y-75438000D02*
X119510000Y-75438000D01*
X119510000Y-75438000D02*
X119510000Y-76962000D01*
X119510000Y-76962000D02*
X120018000Y-76962000D01*
X124209000Y-76962000D02*
X124209000Y-75438000D01*
X124336000Y-75438000D02*
X124336000Y-76962000D01*
X124463000Y-76962000D02*
X124463000Y-75438000D01*
X124082000Y-75438000D02*
X124082000Y-76962000D01*
X123955000Y-76962000D02*
X123955000Y-75438000D01*
X123828000Y-76962000D02*
X123828000Y-75438000D01*
G04 #@! TO.C,D6*
X123828000Y-80772000D02*
X123828000Y-79248000D01*
X123955000Y-80772000D02*
X123955000Y-79248000D01*
X124082000Y-79248000D02*
X124082000Y-80772000D01*
X124463000Y-80772000D02*
X124463000Y-79248000D01*
X124336000Y-79248000D02*
X124336000Y-80772000D01*
X124209000Y-80772000D02*
X124209000Y-79248000D01*
X119510000Y-80772000D02*
X120018000Y-80772000D01*
X119510000Y-79248000D02*
X119510000Y-80772000D01*
X124590000Y-79248000D02*
X119510000Y-79248000D01*
X124590000Y-80772000D02*
X124590000Y-79248000D01*
X119510000Y-80772000D02*
X124590000Y-80772000D01*
G04 #@! TO.C,D7*
X119510000Y-84582000D02*
X124590000Y-84582000D01*
X124590000Y-84582000D02*
X124590000Y-83058000D01*
X124590000Y-83058000D02*
X119510000Y-83058000D01*
X119510000Y-83058000D02*
X119510000Y-84582000D01*
X119510000Y-84582000D02*
X120018000Y-84582000D01*
X124209000Y-84582000D02*
X124209000Y-83058000D01*
X124336000Y-83058000D02*
X124336000Y-84582000D01*
X124463000Y-84582000D02*
X124463000Y-83058000D01*
X124082000Y-83058000D02*
X124082000Y-84582000D01*
X123955000Y-84582000D02*
X123955000Y-83058000D01*
X123828000Y-84582000D02*
X123828000Y-83058000D01*
G04 #@! TO.C,D8*
X123828000Y-88392000D02*
X123828000Y-86868000D01*
X123955000Y-88392000D02*
X123955000Y-86868000D01*
X124082000Y-86868000D02*
X124082000Y-88392000D01*
X124463000Y-88392000D02*
X124463000Y-86868000D01*
X124336000Y-86868000D02*
X124336000Y-88392000D01*
X124209000Y-88392000D02*
X124209000Y-86868000D01*
X119510000Y-88392000D02*
X120018000Y-88392000D01*
X119510000Y-86868000D02*
X119510000Y-88392000D01*
X124590000Y-86868000D02*
X119510000Y-86868000D01*
X124590000Y-88392000D02*
X124590000Y-86868000D01*
X119510000Y-88392000D02*
X124590000Y-88392000D01*
G04 #@! TO.C,D9*
X119510000Y-92202000D02*
X124590000Y-92202000D01*
X124590000Y-92202000D02*
X124590000Y-90678000D01*
X124590000Y-90678000D02*
X119510000Y-90678000D01*
X119510000Y-90678000D02*
X119510000Y-92202000D01*
X119510000Y-92202000D02*
X120018000Y-92202000D01*
X124209000Y-92202000D02*
X124209000Y-90678000D01*
X124336000Y-90678000D02*
X124336000Y-92202000D01*
X124463000Y-92202000D02*
X124463000Y-90678000D01*
X124082000Y-90678000D02*
X124082000Y-92202000D01*
X123955000Y-92202000D02*
X123955000Y-90678000D01*
X123828000Y-92202000D02*
X123828000Y-90678000D01*
G04 #@! TO.C,D10*
X123698000Y-96012000D02*
X123698000Y-94488000D01*
X123825000Y-96012000D02*
X123825000Y-94488000D01*
X123952000Y-94488000D02*
X123952000Y-96012000D01*
X124333000Y-96012000D02*
X124333000Y-94488000D01*
X124206000Y-94488000D02*
X124206000Y-96012000D01*
X124079000Y-96012000D02*
X124079000Y-94488000D01*
X119380000Y-96012000D02*
X119888000Y-96012000D01*
X119380000Y-94488000D02*
X119380000Y-96012000D01*
X124460000Y-94488000D02*
X119380000Y-94488000D01*
X124460000Y-96012000D02*
X124460000Y-94488000D01*
X119380000Y-96012000D02*
X124460000Y-96012000D01*
G04 #@! TO.C,D11*
X119380000Y-99822000D02*
X124460000Y-99822000D01*
X124460000Y-99822000D02*
X124460000Y-98298000D01*
X124460000Y-98298000D02*
X119380000Y-98298000D01*
X119380000Y-98298000D02*
X119380000Y-99822000D01*
X119380000Y-99822000D02*
X119888000Y-99822000D01*
X124079000Y-99822000D02*
X124079000Y-98298000D01*
X124206000Y-98298000D02*
X124206000Y-99822000D01*
X124333000Y-99822000D02*
X124333000Y-98298000D01*
X123952000Y-98298000D02*
X123952000Y-99822000D01*
X123825000Y-99822000D02*
X123825000Y-98298000D01*
X123698000Y-99822000D02*
X123698000Y-98298000D01*
G04 #@! TO.C,D12*
X123698000Y-103632000D02*
X123698000Y-102108000D01*
X123825000Y-103632000D02*
X123825000Y-102108000D01*
X123952000Y-102108000D02*
X123952000Y-103632000D01*
X124333000Y-103632000D02*
X124333000Y-102108000D01*
X124206000Y-102108000D02*
X124206000Y-103632000D01*
X124079000Y-103632000D02*
X124079000Y-102108000D01*
X119380000Y-103632000D02*
X119888000Y-103632000D01*
X119380000Y-102108000D02*
X119380000Y-103632000D01*
X124460000Y-102108000D02*
X119380000Y-102108000D01*
X124460000Y-103632000D02*
X124460000Y-102108000D01*
X119380000Y-103632000D02*
X124460000Y-103632000D01*
G04 #@! TO.C,D13*
X119380000Y-107442000D02*
X124460000Y-107442000D01*
X124460000Y-107442000D02*
X124460000Y-105918000D01*
X124460000Y-105918000D02*
X119380000Y-105918000D01*
X119380000Y-105918000D02*
X119380000Y-107442000D01*
X119380000Y-107442000D02*
X119888000Y-107442000D01*
X124079000Y-107442000D02*
X124079000Y-105918000D01*
X124206000Y-105918000D02*
X124206000Y-107442000D01*
X124333000Y-107442000D02*
X124333000Y-105918000D01*
X123952000Y-105918000D02*
X123952000Y-107442000D01*
X123825000Y-107442000D02*
X123825000Y-105918000D01*
X123698000Y-107442000D02*
X123698000Y-105918000D01*
G04 #@! TO.C,D14*
X119380000Y-111252000D02*
X124460000Y-111252000D01*
X124460000Y-111252000D02*
X124460000Y-109728000D01*
X124460000Y-109728000D02*
X119380000Y-109728000D01*
X119380000Y-109728000D02*
X119380000Y-111252000D01*
X119380000Y-111252000D02*
X119888000Y-111252000D01*
X124079000Y-111252000D02*
X124079000Y-109728000D01*
X124206000Y-109728000D02*
X124206000Y-111252000D01*
X124333000Y-111252000D02*
X124333000Y-109728000D01*
X123952000Y-109728000D02*
X123952000Y-111252000D01*
X123825000Y-111252000D02*
X123825000Y-109728000D01*
X123698000Y-111252000D02*
X123698000Y-109728000D01*
G04 #@! TO.C,D15*
X123698000Y-115062000D02*
X123698000Y-113538000D01*
X123825000Y-115062000D02*
X123825000Y-113538000D01*
X123952000Y-113538000D02*
X123952000Y-115062000D01*
X124333000Y-115062000D02*
X124333000Y-113538000D01*
X124206000Y-113538000D02*
X124206000Y-115062000D01*
X124079000Y-115062000D02*
X124079000Y-113538000D01*
X119380000Y-115062000D02*
X119888000Y-115062000D01*
X119380000Y-113538000D02*
X119380000Y-115062000D01*
X124460000Y-113538000D02*
X119380000Y-113538000D01*
X124460000Y-115062000D02*
X124460000Y-113538000D01*
X119380000Y-115062000D02*
X124460000Y-115062000D01*
G04 #@! TO.C,D16*
X119380000Y-118872000D02*
X124460000Y-118872000D01*
X124460000Y-118872000D02*
X124460000Y-117348000D01*
X124460000Y-117348000D02*
X119380000Y-117348000D01*
X119380000Y-117348000D02*
X119380000Y-118872000D01*
X119380000Y-118872000D02*
X119888000Y-118872000D01*
X124079000Y-118872000D02*
X124079000Y-117348000D01*
X124206000Y-117348000D02*
X124206000Y-118872000D01*
X124333000Y-118872000D02*
X124333000Y-117348000D01*
X123952000Y-117348000D02*
X123952000Y-118872000D01*
X123825000Y-118872000D02*
X123825000Y-117348000D01*
X123698000Y-118872000D02*
X123698000Y-117348000D01*
G04 #@! TO.C,D17*
X167640000Y-71628000D02*
X162560000Y-71628000D01*
X162560000Y-71628000D02*
X162560000Y-73152000D01*
X162560000Y-73152000D02*
X167640000Y-73152000D01*
X167640000Y-73152000D02*
X167640000Y-71628000D01*
X167640000Y-71628000D02*
X167132000Y-71628000D01*
X162941000Y-71628000D02*
X162941000Y-73152000D01*
X162814000Y-73152000D02*
X162814000Y-71628000D01*
X162687000Y-71628000D02*
X162687000Y-73152000D01*
X163068000Y-73152000D02*
X163068000Y-71628000D01*
X163195000Y-71628000D02*
X163195000Y-73152000D01*
X163322000Y-71628000D02*
X163322000Y-73152000D01*
G04 #@! TO.C,D18*
X163322000Y-117348000D02*
X163322000Y-118872000D01*
X163195000Y-117348000D02*
X163195000Y-118872000D01*
X163068000Y-118872000D02*
X163068000Y-117348000D01*
X162687000Y-117348000D02*
X162687000Y-118872000D01*
X162814000Y-118872000D02*
X162814000Y-117348000D01*
X162941000Y-117348000D02*
X162941000Y-118872000D01*
X167640000Y-117348000D02*
X167132000Y-117348000D01*
X167640000Y-118872000D02*
X167640000Y-117348000D01*
X162560000Y-118872000D02*
X167640000Y-118872000D01*
X162560000Y-117348000D02*
X162560000Y-118872000D01*
X167640000Y-117348000D02*
X162560000Y-117348000D01*
G04 #@! TO.C,D19*
X167640000Y-113538000D02*
X162560000Y-113538000D01*
X162560000Y-113538000D02*
X162560000Y-115062000D01*
X162560000Y-115062000D02*
X167640000Y-115062000D01*
X167640000Y-115062000D02*
X167640000Y-113538000D01*
X167640000Y-113538000D02*
X167132000Y-113538000D01*
X162941000Y-113538000D02*
X162941000Y-115062000D01*
X162814000Y-115062000D02*
X162814000Y-113538000D01*
X162687000Y-113538000D02*
X162687000Y-115062000D01*
X163068000Y-115062000D02*
X163068000Y-113538000D01*
X163195000Y-113538000D02*
X163195000Y-115062000D01*
X163322000Y-113538000D02*
X163322000Y-115062000D01*
G04 #@! TO.C,D20*
X163322000Y-109728000D02*
X163322000Y-111252000D01*
X163195000Y-109728000D02*
X163195000Y-111252000D01*
X163068000Y-111252000D02*
X163068000Y-109728000D01*
X162687000Y-109728000D02*
X162687000Y-111252000D01*
X162814000Y-111252000D02*
X162814000Y-109728000D01*
X162941000Y-109728000D02*
X162941000Y-111252000D01*
X167640000Y-109728000D02*
X167132000Y-109728000D01*
X167640000Y-111252000D02*
X167640000Y-109728000D01*
X162560000Y-111252000D02*
X167640000Y-111252000D01*
X162560000Y-109728000D02*
X162560000Y-111252000D01*
X167640000Y-109728000D02*
X162560000Y-109728000D01*
G04 #@! TO.C,D21*
X167640000Y-105918000D02*
X162560000Y-105918000D01*
X162560000Y-105918000D02*
X162560000Y-107442000D01*
X162560000Y-107442000D02*
X167640000Y-107442000D01*
X167640000Y-107442000D02*
X167640000Y-105918000D01*
X167640000Y-105918000D02*
X167132000Y-105918000D01*
X162941000Y-105918000D02*
X162941000Y-107442000D01*
X162814000Y-107442000D02*
X162814000Y-105918000D01*
X162687000Y-105918000D02*
X162687000Y-107442000D01*
X163068000Y-107442000D02*
X163068000Y-105918000D01*
X163195000Y-105918000D02*
X163195000Y-107442000D01*
X163322000Y-105918000D02*
X163322000Y-107442000D01*
G04 #@! TO.C,D22*
X163322000Y-102108000D02*
X163322000Y-103632000D01*
X163195000Y-102108000D02*
X163195000Y-103632000D01*
X163068000Y-103632000D02*
X163068000Y-102108000D01*
X162687000Y-102108000D02*
X162687000Y-103632000D01*
X162814000Y-103632000D02*
X162814000Y-102108000D01*
X162941000Y-102108000D02*
X162941000Y-103632000D01*
X167640000Y-102108000D02*
X167132000Y-102108000D01*
X167640000Y-103632000D02*
X167640000Y-102108000D01*
X162560000Y-103632000D02*
X167640000Y-103632000D01*
X162560000Y-102108000D02*
X162560000Y-103632000D01*
X167640000Y-102108000D02*
X162560000Y-102108000D01*
G04 #@! TO.C,D23*
X167640000Y-98298000D02*
X162560000Y-98298000D01*
X162560000Y-98298000D02*
X162560000Y-99822000D01*
X162560000Y-99822000D02*
X167640000Y-99822000D01*
X167640000Y-99822000D02*
X167640000Y-98298000D01*
X167640000Y-98298000D02*
X167132000Y-98298000D01*
X162941000Y-98298000D02*
X162941000Y-99822000D01*
X162814000Y-99822000D02*
X162814000Y-98298000D01*
X162687000Y-98298000D02*
X162687000Y-99822000D01*
X163068000Y-99822000D02*
X163068000Y-98298000D01*
X163195000Y-98298000D02*
X163195000Y-99822000D01*
X163322000Y-98298000D02*
X163322000Y-99822000D01*
G04 #@! TO.C,D24*
X163322000Y-94488000D02*
X163322000Y-96012000D01*
X163195000Y-94488000D02*
X163195000Y-96012000D01*
X163068000Y-96012000D02*
X163068000Y-94488000D01*
X162687000Y-94488000D02*
X162687000Y-96012000D01*
X162814000Y-96012000D02*
X162814000Y-94488000D01*
X162941000Y-94488000D02*
X162941000Y-96012000D01*
X167640000Y-94488000D02*
X167132000Y-94488000D01*
X167640000Y-96012000D02*
X167640000Y-94488000D01*
X162560000Y-96012000D02*
X167640000Y-96012000D01*
X162560000Y-94488000D02*
X162560000Y-96012000D01*
X167640000Y-94488000D02*
X162560000Y-94488000D01*
G04 #@! TO.C,D25*
X167640000Y-90678000D02*
X162560000Y-90678000D01*
X162560000Y-90678000D02*
X162560000Y-92202000D01*
X162560000Y-92202000D02*
X167640000Y-92202000D01*
X167640000Y-92202000D02*
X167640000Y-90678000D01*
X167640000Y-90678000D02*
X167132000Y-90678000D01*
X162941000Y-90678000D02*
X162941000Y-92202000D01*
X162814000Y-92202000D02*
X162814000Y-90678000D01*
X162687000Y-90678000D02*
X162687000Y-92202000D01*
X163068000Y-92202000D02*
X163068000Y-90678000D01*
X163195000Y-90678000D02*
X163195000Y-92202000D01*
X163322000Y-90678000D02*
X163322000Y-92202000D01*
G04 #@! TO.C,D26*
X163322000Y-86868000D02*
X163322000Y-88392000D01*
X163195000Y-86868000D02*
X163195000Y-88392000D01*
X163068000Y-88392000D02*
X163068000Y-86868000D01*
X162687000Y-86868000D02*
X162687000Y-88392000D01*
X162814000Y-88392000D02*
X162814000Y-86868000D01*
X162941000Y-86868000D02*
X162941000Y-88392000D01*
X167640000Y-86868000D02*
X167132000Y-86868000D01*
X167640000Y-88392000D02*
X167640000Y-86868000D01*
X162560000Y-88392000D02*
X167640000Y-88392000D01*
X162560000Y-86868000D02*
X162560000Y-88392000D01*
X167640000Y-86868000D02*
X162560000Y-86868000D01*
G04 #@! TO.C,D27*
X167640000Y-83058000D02*
X162560000Y-83058000D01*
X162560000Y-83058000D02*
X162560000Y-84582000D01*
X162560000Y-84582000D02*
X167640000Y-84582000D01*
X167640000Y-84582000D02*
X167640000Y-83058000D01*
X167640000Y-83058000D02*
X167132000Y-83058000D01*
X162941000Y-83058000D02*
X162941000Y-84582000D01*
X162814000Y-84582000D02*
X162814000Y-83058000D01*
X162687000Y-83058000D02*
X162687000Y-84582000D01*
X163068000Y-84582000D02*
X163068000Y-83058000D01*
X163195000Y-83058000D02*
X163195000Y-84582000D01*
X163322000Y-83058000D02*
X163322000Y-84582000D01*
G04 #@! TO.C,D28*
X163322000Y-79248000D02*
X163322000Y-80772000D01*
X163195000Y-79248000D02*
X163195000Y-80772000D01*
X163068000Y-80772000D02*
X163068000Y-79248000D01*
X162687000Y-79248000D02*
X162687000Y-80772000D01*
X162814000Y-80772000D02*
X162814000Y-79248000D01*
X162941000Y-79248000D02*
X162941000Y-80772000D01*
X167640000Y-79248000D02*
X167132000Y-79248000D01*
X167640000Y-80772000D02*
X167640000Y-79248000D01*
X162560000Y-80772000D02*
X167640000Y-80772000D01*
X162560000Y-79248000D02*
X162560000Y-80772000D01*
X167640000Y-79248000D02*
X162560000Y-79248000D01*
G04 #@! TO.C,D29*
X167640000Y-75438000D02*
X162560000Y-75438000D01*
X162560000Y-75438000D02*
X162560000Y-76962000D01*
X162560000Y-76962000D02*
X167640000Y-76962000D01*
X167640000Y-76962000D02*
X167640000Y-75438000D01*
X167640000Y-75438000D02*
X167132000Y-75438000D01*
X162941000Y-75438000D02*
X162941000Y-76962000D01*
X162814000Y-76962000D02*
X162814000Y-75438000D01*
X162687000Y-75438000D02*
X162687000Y-76962000D01*
X163068000Y-76962000D02*
X163068000Y-75438000D01*
X163195000Y-75438000D02*
X163195000Y-76962000D01*
X163322000Y-75438000D02*
X163322000Y-76962000D01*
G04 #@! TO.C,U1*
X142758095Y-80312380D02*
X142758095Y-81121904D01*
X142805714Y-81217142D01*
X142853333Y-81264761D01*
X142948571Y-81312380D01*
X143139047Y-81312380D01*
X143234285Y-81264761D01*
X143281904Y-81217142D01*
X143329523Y-81121904D01*
X143329523Y-80312380D01*
X144329523Y-81312380D02*
X143758095Y-81312380D01*
X144043809Y-81312380D02*
X144043809Y-80312380D01*
X143948571Y-80455238D01*
X143853333Y-80550476D01*
X143758095Y-80598095D01*
X140221904Y-61442380D02*
X140221904Y-60918571D01*
X140174285Y-60823333D01*
X140079047Y-60775714D01*
X139888571Y-60775714D01*
X139793333Y-60823333D01*
X140221904Y-61394761D02*
X140126666Y-61442380D01*
X139888571Y-61442380D01*
X139793333Y-61394761D01*
X139745714Y-61299523D01*
X139745714Y-61204285D01*
X139793333Y-61109047D01*
X139888571Y-61061428D01*
X140126666Y-61061428D01*
X140221904Y-61013809D01*
X140602857Y-60775714D02*
X140793333Y-61442380D01*
X140983809Y-60966190D01*
X141174285Y-61442380D01*
X141364761Y-60775714D01*
X142174285Y-61442380D02*
X142174285Y-60918571D01*
X142126666Y-60823333D01*
X142031428Y-60775714D01*
X141840952Y-60775714D01*
X141745714Y-60823333D01*
X142174285Y-61394761D02*
X142079047Y-61442380D01*
X141840952Y-61442380D01*
X141745714Y-61394761D01*
X141698095Y-61299523D01*
X141698095Y-61204285D01*
X141745714Y-61109047D01*
X141840952Y-61061428D01*
X142079047Y-61061428D01*
X142174285Y-61013809D01*
X142555238Y-60775714D02*
X142793333Y-61442380D01*
X143031428Y-60775714D02*
X142793333Y-61442380D01*
X142698095Y-61680476D01*
X142650476Y-61728095D01*
X142555238Y-61775714D01*
X144031428Y-60775714D02*
X144412380Y-60775714D01*
X144174285Y-61442380D02*
X144174285Y-60585238D01*
X144221904Y-60490000D01*
X144317142Y-60442380D01*
X144412380Y-60442380D01*
X144745714Y-61442380D02*
X144745714Y-60775714D01*
X144745714Y-60966190D02*
X144793333Y-60870952D01*
X144840952Y-60823333D01*
X144936190Y-60775714D01*
X145031428Y-60775714D01*
X145507619Y-61442380D02*
X145412380Y-61394761D01*
X145364761Y-61347142D01*
X145317142Y-61251904D01*
X145317142Y-60966190D01*
X145364761Y-60870952D01*
X145412380Y-60823333D01*
X145507619Y-60775714D01*
X145650476Y-60775714D01*
X145745714Y-60823333D01*
X145793333Y-60870952D01*
X145840952Y-60966190D01*
X145840952Y-61251904D01*
X145793333Y-61347142D01*
X145745714Y-61394761D01*
X145650476Y-61442380D01*
X145507619Y-61442380D01*
X146269523Y-61442380D02*
X146269523Y-60775714D01*
X146269523Y-60870952D02*
X146317142Y-60823333D01*
X146412380Y-60775714D01*
X146555238Y-60775714D01*
X146650476Y-60823333D01*
X146698095Y-60918571D01*
X146698095Y-61442380D01*
X146698095Y-60918571D02*
X146745714Y-60823333D01*
X146840952Y-60775714D01*
X146983809Y-60775714D01*
X147079047Y-60823333D01*
X147126666Y-60918571D01*
X147126666Y-61442380D01*
X140507619Y-62275714D02*
X140888571Y-62275714D01*
X140650476Y-61942380D02*
X140650476Y-62799523D01*
X140698095Y-62894761D01*
X140793333Y-62942380D01*
X140888571Y-62942380D01*
X141221904Y-62942380D02*
X141221904Y-61942380D01*
X141650476Y-62942380D02*
X141650476Y-62418571D01*
X141602857Y-62323333D01*
X141507619Y-62275714D01*
X141364761Y-62275714D01*
X141269523Y-62323333D01*
X141221904Y-62370952D01*
X142507619Y-62894761D02*
X142412380Y-62942380D01*
X142221904Y-62942380D01*
X142126666Y-62894761D01*
X142079047Y-62799523D01*
X142079047Y-62418571D01*
X142126666Y-62323333D01*
X142221904Y-62275714D01*
X142412380Y-62275714D01*
X142507619Y-62323333D01*
X142555238Y-62418571D01*
X142555238Y-62513809D01*
X142079047Y-62609047D01*
X143745714Y-62942380D02*
X143745714Y-61942380D01*
X144126666Y-61942380D01*
X144221904Y-61990000D01*
X144269523Y-62037619D01*
X144317142Y-62132857D01*
X144317142Y-62275714D01*
X144269523Y-62370952D01*
X144221904Y-62418571D01*
X144126666Y-62466190D01*
X143745714Y-62466190D01*
X145317142Y-62847142D02*
X145269523Y-62894761D01*
X145126666Y-62942380D01*
X145031428Y-62942380D01*
X144888571Y-62894761D01*
X144793333Y-62799523D01*
X144745714Y-62704285D01*
X144698095Y-62513809D01*
X144698095Y-62370952D01*
X144745714Y-62180476D01*
X144793333Y-62085238D01*
X144888571Y-61990000D01*
X145031428Y-61942380D01*
X145126666Y-61942380D01*
X145269523Y-61990000D01*
X145317142Y-62037619D01*
X146079047Y-62418571D02*
X146221904Y-62466190D01*
X146269523Y-62513809D01*
X146317142Y-62609047D01*
X146317142Y-62751904D01*
X146269523Y-62847142D01*
X146221904Y-62894761D01*
X146126666Y-62942380D01*
X145745714Y-62942380D01*
X145745714Y-61942380D01*
X146079047Y-61942380D01*
X146174285Y-61990000D01*
X146221904Y-62037619D01*
X146269523Y-62132857D01*
X146269523Y-62228095D01*
X146221904Y-62323333D01*
X146174285Y-62370952D01*
X146079047Y-62418571D01*
X145745714Y-62418571D01*
X139507619Y-58942380D02*
X139507619Y-59751904D01*
X139555238Y-59847142D01*
X139602857Y-59894761D01*
X139698095Y-59942380D01*
X139888571Y-59942380D01*
X139983809Y-59894761D01*
X140031428Y-59847142D01*
X140079047Y-59751904D01*
X140079047Y-58942380D01*
X140507619Y-59894761D02*
X140650476Y-59942380D01*
X140888571Y-59942380D01*
X140983809Y-59894761D01*
X141031428Y-59847142D01*
X141079047Y-59751904D01*
X141079047Y-59656666D01*
X141031428Y-59561428D01*
X140983809Y-59513809D01*
X140888571Y-59466190D01*
X140698095Y-59418571D01*
X140602857Y-59370952D01*
X140555238Y-59323333D01*
X140507619Y-59228095D01*
X140507619Y-59132857D01*
X140555238Y-59037619D01*
X140602857Y-58990000D01*
X140698095Y-58942380D01*
X140936190Y-58942380D01*
X141079047Y-58990000D01*
X141840952Y-59418571D02*
X141983809Y-59466190D01*
X142031428Y-59513809D01*
X142079047Y-59609047D01*
X142079047Y-59751904D01*
X142031428Y-59847142D01*
X141983809Y-59894761D01*
X141888571Y-59942380D01*
X141507619Y-59942380D01*
X141507619Y-58942380D01*
X141840952Y-58942380D01*
X141936190Y-58990000D01*
X141983809Y-59037619D01*
X142031428Y-59132857D01*
X142031428Y-59228095D01*
X141983809Y-59323333D01*
X141936190Y-59370952D01*
X141840952Y-59418571D01*
X141507619Y-59418571D01*
X143126666Y-59275714D02*
X143507619Y-59275714D01*
X143269523Y-59942380D02*
X143269523Y-59085238D01*
X143317142Y-58990000D01*
X143412380Y-58942380D01*
X143507619Y-58942380D01*
X144269523Y-59942380D02*
X144269523Y-59418571D01*
X144221904Y-59323333D01*
X144126666Y-59275714D01*
X143936190Y-59275714D01*
X143840952Y-59323333D01*
X144269523Y-59894761D02*
X144174285Y-59942380D01*
X143936190Y-59942380D01*
X143840952Y-59894761D01*
X143793333Y-59799523D01*
X143793333Y-59704285D01*
X143840952Y-59609047D01*
X143936190Y-59561428D01*
X144174285Y-59561428D01*
X144269523Y-59513809D01*
X145174285Y-59894761D02*
X145079047Y-59942380D01*
X144888571Y-59942380D01*
X144793333Y-59894761D01*
X144745714Y-59847142D01*
X144698095Y-59751904D01*
X144698095Y-59466190D01*
X144745714Y-59370952D01*
X144793333Y-59323333D01*
X144888571Y-59275714D01*
X145079047Y-59275714D01*
X145174285Y-59323333D01*
X145602857Y-59942380D02*
X145602857Y-59275714D01*
X145602857Y-58942380D02*
X145555238Y-58990000D01*
X145602857Y-59037619D01*
X145650476Y-58990000D01*
X145602857Y-58942380D01*
X145602857Y-59037619D01*
X146079047Y-59275714D02*
X146079047Y-59942380D01*
X146079047Y-59370952D02*
X146126666Y-59323333D01*
X146221904Y-59275714D01*
X146364761Y-59275714D01*
X146460000Y-59323333D01*
X146507619Y-59418571D01*
X146507619Y-59942380D01*
X147412380Y-59275714D02*
X147412380Y-60085238D01*
X147364761Y-60180476D01*
X147317142Y-60228095D01*
X147221904Y-60275714D01*
X147079047Y-60275714D01*
X146983809Y-60228095D01*
X147412380Y-59894761D02*
X147317142Y-59942380D01*
X147126666Y-59942380D01*
X147031428Y-59894761D01*
X146983809Y-59847142D01*
X146936190Y-59751904D01*
X146936190Y-59466190D01*
X146983809Y-59370952D01*
X147031428Y-59323333D01*
X147126666Y-59275714D01*
X147317142Y-59275714D01*
X147412380Y-59323333D01*
G04 #@! TO.C,J1*
X133016666Y-61682380D02*
X133016666Y-62396666D01*
X132969047Y-62539523D01*
X132873809Y-62634761D01*
X132730952Y-62682380D01*
X132635714Y-62682380D01*
X134016666Y-62682380D02*
X133445238Y-62682380D01*
X133730952Y-62682380D02*
X133730952Y-61682380D01*
X133635714Y-61825238D01*
X133540476Y-61920476D01*
X133445238Y-61968095D01*
G04 #@! TO.C,J2*
X133016666Y-64222380D02*
X133016666Y-64936666D01*
X132969047Y-65079523D01*
X132873809Y-65174761D01*
X132730952Y-65222380D01*
X132635714Y-65222380D01*
X133445238Y-64317619D02*
X133492857Y-64270000D01*
X133588095Y-64222380D01*
X133826190Y-64222380D01*
X133921428Y-64270000D01*
X133969047Y-64317619D01*
X134016666Y-64412857D01*
X134016666Y-64508095D01*
X133969047Y-64650952D01*
X133397619Y-65222380D01*
X134016666Y-65222380D01*
G04 #@! TO.C,J3*
X133016666Y-71842380D02*
X133016666Y-72556666D01*
X132969047Y-72699523D01*
X132873809Y-72794761D01*
X132730952Y-72842380D01*
X132635714Y-72842380D01*
X133397619Y-71842380D02*
X134016666Y-71842380D01*
X133683333Y-72223333D01*
X133826190Y-72223333D01*
X133921428Y-72270952D01*
X133969047Y-72318571D01*
X134016666Y-72413809D01*
X134016666Y-72651904D01*
X133969047Y-72747142D01*
X133921428Y-72794761D01*
X133826190Y-72842380D01*
X133540476Y-72842380D01*
X133445238Y-72794761D01*
X133397619Y-72747142D01*
G04 #@! TO.C,J4*
X133016666Y-74382380D02*
X133016666Y-75096666D01*
X132969047Y-75239523D01*
X132873809Y-75334761D01*
X132730952Y-75382380D01*
X132635714Y-75382380D01*
X133921428Y-74715714D02*
X133921428Y-75382380D01*
X133683333Y-74334761D02*
X133445238Y-75049047D01*
X134064285Y-75049047D01*
G04 #@! TO.C,J5*
X133016666Y-76922380D02*
X133016666Y-77636666D01*
X132969047Y-77779523D01*
X132873809Y-77874761D01*
X132730952Y-77922380D01*
X132635714Y-77922380D01*
X133969047Y-76922380D02*
X133492857Y-76922380D01*
X133445238Y-77398571D01*
X133492857Y-77350952D01*
X133588095Y-77303333D01*
X133826190Y-77303333D01*
X133921428Y-77350952D01*
X133969047Y-77398571D01*
X134016666Y-77493809D01*
X134016666Y-77731904D01*
X133969047Y-77827142D01*
X133921428Y-77874761D01*
X133826190Y-77922380D01*
X133588095Y-77922380D01*
X133492857Y-77874761D01*
X133445238Y-77827142D01*
G04 #@! TO.C,J6*
X133016666Y-79462380D02*
X133016666Y-80176666D01*
X132969047Y-80319523D01*
X132873809Y-80414761D01*
X132730952Y-80462380D01*
X132635714Y-80462380D01*
X133921428Y-79462380D02*
X133730952Y-79462380D01*
X133635714Y-79510000D01*
X133588095Y-79557619D01*
X133492857Y-79700476D01*
X133445238Y-79890952D01*
X133445238Y-80271904D01*
X133492857Y-80367142D01*
X133540476Y-80414761D01*
X133635714Y-80462380D01*
X133826190Y-80462380D01*
X133921428Y-80414761D01*
X133969047Y-80367142D01*
X134016666Y-80271904D01*
X134016666Y-80033809D01*
X133969047Y-79938571D01*
X133921428Y-79890952D01*
X133826190Y-79843333D01*
X133635714Y-79843333D01*
X133540476Y-79890952D01*
X133492857Y-79938571D01*
X133445238Y-80033809D01*
G04 #@! TO.C,J7*
X133016666Y-82002380D02*
X133016666Y-82716666D01*
X132969047Y-82859523D01*
X132873809Y-82954761D01*
X132730952Y-83002380D01*
X132635714Y-83002380D01*
X133397619Y-82002380D02*
X134064285Y-82002380D01*
X133635714Y-83002380D01*
G04 #@! TO.C,J8*
X133016666Y-84542380D02*
X133016666Y-85256666D01*
X132969047Y-85399523D01*
X132873809Y-85494761D01*
X132730952Y-85542380D01*
X132635714Y-85542380D01*
X133635714Y-84970952D02*
X133540476Y-84923333D01*
X133492857Y-84875714D01*
X133445238Y-84780476D01*
X133445238Y-84732857D01*
X133492857Y-84637619D01*
X133540476Y-84590000D01*
X133635714Y-84542380D01*
X133826190Y-84542380D01*
X133921428Y-84590000D01*
X133969047Y-84637619D01*
X134016666Y-84732857D01*
X134016666Y-84780476D01*
X133969047Y-84875714D01*
X133921428Y-84923333D01*
X133826190Y-84970952D01*
X133635714Y-84970952D01*
X133540476Y-85018571D01*
X133492857Y-85066190D01*
X133445238Y-85161428D01*
X133445238Y-85351904D01*
X133492857Y-85447142D01*
X133540476Y-85494761D01*
X133635714Y-85542380D01*
X133826190Y-85542380D01*
X133921428Y-85494761D01*
X133969047Y-85447142D01*
X134016666Y-85351904D01*
X134016666Y-85161428D01*
X133969047Y-85066190D01*
X133921428Y-85018571D01*
X133826190Y-84970952D01*
G04 #@! TO.C,J9*
X133016666Y-87082380D02*
X133016666Y-87796666D01*
X132969047Y-87939523D01*
X132873809Y-88034761D01*
X132730952Y-88082380D01*
X132635714Y-88082380D01*
X133540476Y-88082380D02*
X133730952Y-88082380D01*
X133826190Y-88034761D01*
X133873809Y-87987142D01*
X133969047Y-87844285D01*
X134016666Y-87653809D01*
X134016666Y-87272857D01*
X133969047Y-87177619D01*
X133921428Y-87130000D01*
X133826190Y-87082380D01*
X133635714Y-87082380D01*
X133540476Y-87130000D01*
X133492857Y-87177619D01*
X133445238Y-87272857D01*
X133445238Y-87510952D01*
X133492857Y-87606190D01*
X133540476Y-87653809D01*
X133635714Y-87701428D01*
X133826190Y-87701428D01*
X133921428Y-87653809D01*
X133969047Y-87606190D01*
X134016666Y-87510952D01*
G04 #@! TO.C,J10*
X132540476Y-89622380D02*
X132540476Y-90336666D01*
X132492857Y-90479523D01*
X132397619Y-90574761D01*
X132254761Y-90622380D01*
X132159523Y-90622380D01*
X133540476Y-90622380D02*
X132969047Y-90622380D01*
X133254761Y-90622380D02*
X133254761Y-89622380D01*
X133159523Y-89765238D01*
X133064285Y-89860476D01*
X132969047Y-89908095D01*
X134159523Y-89622380D02*
X134254761Y-89622380D01*
X134350000Y-89670000D01*
X134397619Y-89717619D01*
X134445238Y-89812857D01*
X134492857Y-90003333D01*
X134492857Y-90241428D01*
X134445238Y-90431904D01*
X134397619Y-90527142D01*
X134350000Y-90574761D01*
X134254761Y-90622380D01*
X134159523Y-90622380D01*
X134064285Y-90574761D01*
X134016666Y-90527142D01*
X133969047Y-90431904D01*
X133921428Y-90241428D01*
X133921428Y-90003333D01*
X133969047Y-89812857D01*
X134016666Y-89717619D01*
X134064285Y-89670000D01*
X134159523Y-89622380D01*
G04 #@! TO.C,J11*
X132540476Y-94702380D02*
X132540476Y-95416666D01*
X132492857Y-95559523D01*
X132397619Y-95654761D01*
X132254761Y-95702380D01*
X132159523Y-95702380D01*
X133540476Y-95702380D02*
X132969047Y-95702380D01*
X133254761Y-95702380D02*
X133254761Y-94702380D01*
X133159523Y-94845238D01*
X133064285Y-94940476D01*
X132969047Y-94988095D01*
X134492857Y-95702380D02*
X133921428Y-95702380D01*
X134207142Y-95702380D02*
X134207142Y-94702380D01*
X134111904Y-94845238D01*
X134016666Y-94940476D01*
X133921428Y-94988095D01*
G04 #@! TO.C,J12*
X132540476Y-97242380D02*
X132540476Y-97956666D01*
X132492857Y-98099523D01*
X132397619Y-98194761D01*
X132254761Y-98242380D01*
X132159523Y-98242380D01*
X133540476Y-98242380D02*
X132969047Y-98242380D01*
X133254761Y-98242380D02*
X133254761Y-97242380D01*
X133159523Y-97385238D01*
X133064285Y-97480476D01*
X132969047Y-97528095D01*
X133921428Y-97337619D02*
X133969047Y-97290000D01*
X134064285Y-97242380D01*
X134302380Y-97242380D01*
X134397619Y-97290000D01*
X134445238Y-97337619D01*
X134492857Y-97432857D01*
X134492857Y-97528095D01*
X134445238Y-97670952D01*
X133873809Y-98242380D01*
X134492857Y-98242380D01*
G04 #@! TO.C,J13*
X132540476Y-99782380D02*
X132540476Y-100496666D01*
X132492857Y-100639523D01*
X132397619Y-100734761D01*
X132254761Y-100782380D01*
X132159523Y-100782380D01*
X133540476Y-100782380D02*
X132969047Y-100782380D01*
X133254761Y-100782380D02*
X133254761Y-99782380D01*
X133159523Y-99925238D01*
X133064285Y-100020476D01*
X132969047Y-100068095D01*
X133873809Y-99782380D02*
X134492857Y-99782380D01*
X134159523Y-100163333D01*
X134302380Y-100163333D01*
X134397619Y-100210952D01*
X134445238Y-100258571D01*
X134492857Y-100353809D01*
X134492857Y-100591904D01*
X134445238Y-100687142D01*
X134397619Y-100734761D01*
X134302380Y-100782380D01*
X134016666Y-100782380D01*
X133921428Y-100734761D01*
X133873809Y-100687142D01*
G04 #@! TO.C,J14*
X132540476Y-102322380D02*
X132540476Y-103036666D01*
X132492857Y-103179523D01*
X132397619Y-103274761D01*
X132254761Y-103322380D01*
X132159523Y-103322380D01*
X133540476Y-103322380D02*
X132969047Y-103322380D01*
X133254761Y-103322380D02*
X133254761Y-102322380D01*
X133159523Y-102465238D01*
X133064285Y-102560476D01*
X132969047Y-102608095D01*
X134397619Y-102655714D02*
X134397619Y-103322380D01*
X134159523Y-102274761D02*
X133921428Y-102989047D01*
X134540476Y-102989047D01*
G04 #@! TO.C,J15*
X132540476Y-104862380D02*
X132540476Y-105576666D01*
X132492857Y-105719523D01*
X132397619Y-105814761D01*
X132254761Y-105862380D01*
X132159523Y-105862380D01*
X133540476Y-105862380D02*
X132969047Y-105862380D01*
X133254761Y-105862380D02*
X133254761Y-104862380D01*
X133159523Y-105005238D01*
X133064285Y-105100476D01*
X132969047Y-105148095D01*
X134445238Y-104862380D02*
X133969047Y-104862380D01*
X133921428Y-105338571D01*
X133969047Y-105290952D01*
X134064285Y-105243333D01*
X134302380Y-105243333D01*
X134397619Y-105290952D01*
X134445238Y-105338571D01*
X134492857Y-105433809D01*
X134492857Y-105671904D01*
X134445238Y-105767142D01*
X134397619Y-105814761D01*
X134302380Y-105862380D01*
X134064285Y-105862380D01*
X133969047Y-105814761D01*
X133921428Y-105767142D01*
G04 #@! TO.C,J16*
X132540476Y-107402380D02*
X132540476Y-108116666D01*
X132492857Y-108259523D01*
X132397619Y-108354761D01*
X132254761Y-108402380D01*
X132159523Y-108402380D01*
X133540476Y-108402380D02*
X132969047Y-108402380D01*
X133254761Y-108402380D02*
X133254761Y-107402380D01*
X133159523Y-107545238D01*
X133064285Y-107640476D01*
X132969047Y-107688095D01*
X134397619Y-107402380D02*
X134207142Y-107402380D01*
X134111904Y-107450000D01*
X134064285Y-107497619D01*
X133969047Y-107640476D01*
X133921428Y-107830952D01*
X133921428Y-108211904D01*
X133969047Y-108307142D01*
X134016666Y-108354761D01*
X134111904Y-108402380D01*
X134302380Y-108402380D01*
X134397619Y-108354761D01*
X134445238Y-108307142D01*
X134492857Y-108211904D01*
X134492857Y-107973809D01*
X134445238Y-107878571D01*
X134397619Y-107830952D01*
X134302380Y-107783333D01*
X134111904Y-107783333D01*
X134016666Y-107830952D01*
X133969047Y-107878571D01*
X133921428Y-107973809D01*
G04 #@! TO.C,J17*
X152860476Y-107402380D02*
X152860476Y-108116666D01*
X152812857Y-108259523D01*
X152717619Y-108354761D01*
X152574761Y-108402380D01*
X152479523Y-108402380D01*
X153860476Y-108402380D02*
X153289047Y-108402380D01*
X153574761Y-108402380D02*
X153574761Y-107402380D01*
X153479523Y-107545238D01*
X153384285Y-107640476D01*
X153289047Y-107688095D01*
X154193809Y-107402380D02*
X154860476Y-107402380D01*
X154431904Y-108402380D01*
G04 #@! TO.C,J18*
X152860476Y-104862380D02*
X152860476Y-105576666D01*
X152812857Y-105719523D01*
X152717619Y-105814761D01*
X152574761Y-105862380D01*
X152479523Y-105862380D01*
X153860476Y-105862380D02*
X153289047Y-105862380D01*
X153574761Y-105862380D02*
X153574761Y-104862380D01*
X153479523Y-105005238D01*
X153384285Y-105100476D01*
X153289047Y-105148095D01*
X154431904Y-105290952D02*
X154336666Y-105243333D01*
X154289047Y-105195714D01*
X154241428Y-105100476D01*
X154241428Y-105052857D01*
X154289047Y-104957619D01*
X154336666Y-104910000D01*
X154431904Y-104862380D01*
X154622380Y-104862380D01*
X154717619Y-104910000D01*
X154765238Y-104957619D01*
X154812857Y-105052857D01*
X154812857Y-105100476D01*
X154765238Y-105195714D01*
X154717619Y-105243333D01*
X154622380Y-105290952D01*
X154431904Y-105290952D01*
X154336666Y-105338571D01*
X154289047Y-105386190D01*
X154241428Y-105481428D01*
X154241428Y-105671904D01*
X154289047Y-105767142D01*
X154336666Y-105814761D01*
X154431904Y-105862380D01*
X154622380Y-105862380D01*
X154717619Y-105814761D01*
X154765238Y-105767142D01*
X154812857Y-105671904D01*
X154812857Y-105481428D01*
X154765238Y-105386190D01*
X154717619Y-105338571D01*
X154622380Y-105290952D01*
G04 #@! TO.C,J19*
X152860476Y-102322380D02*
X152860476Y-103036666D01*
X152812857Y-103179523D01*
X152717619Y-103274761D01*
X152574761Y-103322380D01*
X152479523Y-103322380D01*
X153860476Y-103322380D02*
X153289047Y-103322380D01*
X153574761Y-103322380D02*
X153574761Y-102322380D01*
X153479523Y-102465238D01*
X153384285Y-102560476D01*
X153289047Y-102608095D01*
X154336666Y-103322380D02*
X154527142Y-103322380D01*
X154622380Y-103274761D01*
X154670000Y-103227142D01*
X154765238Y-103084285D01*
X154812857Y-102893809D01*
X154812857Y-102512857D01*
X154765238Y-102417619D01*
X154717619Y-102370000D01*
X154622380Y-102322380D01*
X154431904Y-102322380D01*
X154336666Y-102370000D01*
X154289047Y-102417619D01*
X154241428Y-102512857D01*
X154241428Y-102750952D01*
X154289047Y-102846190D01*
X154336666Y-102893809D01*
X154431904Y-102941428D01*
X154622380Y-102941428D01*
X154717619Y-102893809D01*
X154765238Y-102846190D01*
X154812857Y-102750952D01*
G04 #@! TO.C,J20*
X152860476Y-99782380D02*
X152860476Y-100496666D01*
X152812857Y-100639523D01*
X152717619Y-100734761D01*
X152574761Y-100782380D01*
X152479523Y-100782380D01*
X153289047Y-99877619D02*
X153336666Y-99830000D01*
X153431904Y-99782380D01*
X153670000Y-99782380D01*
X153765238Y-99830000D01*
X153812857Y-99877619D01*
X153860476Y-99972857D01*
X153860476Y-100068095D01*
X153812857Y-100210952D01*
X153241428Y-100782380D01*
X153860476Y-100782380D01*
X154479523Y-99782380D02*
X154574761Y-99782380D01*
X154670000Y-99830000D01*
X154717619Y-99877619D01*
X154765238Y-99972857D01*
X154812857Y-100163333D01*
X154812857Y-100401428D01*
X154765238Y-100591904D01*
X154717619Y-100687142D01*
X154670000Y-100734761D01*
X154574761Y-100782380D01*
X154479523Y-100782380D01*
X154384285Y-100734761D01*
X154336666Y-100687142D01*
X154289047Y-100591904D01*
X154241428Y-100401428D01*
X154241428Y-100163333D01*
X154289047Y-99972857D01*
X154336666Y-99877619D01*
X154384285Y-99830000D01*
X154479523Y-99782380D01*
G04 #@! TO.C,J21*
X152860476Y-97242380D02*
X152860476Y-97956666D01*
X152812857Y-98099523D01*
X152717619Y-98194761D01*
X152574761Y-98242380D01*
X152479523Y-98242380D01*
X153289047Y-97337619D02*
X153336666Y-97290000D01*
X153431904Y-97242380D01*
X153670000Y-97242380D01*
X153765238Y-97290000D01*
X153812857Y-97337619D01*
X153860476Y-97432857D01*
X153860476Y-97528095D01*
X153812857Y-97670952D01*
X153241428Y-98242380D01*
X153860476Y-98242380D01*
X154812857Y-98242380D02*
X154241428Y-98242380D01*
X154527142Y-98242380D02*
X154527142Y-97242380D01*
X154431904Y-97385238D01*
X154336666Y-97480476D01*
X154241428Y-97528095D01*
G04 #@! TO.C,J22*
X152860476Y-94702380D02*
X152860476Y-95416666D01*
X152812857Y-95559523D01*
X152717619Y-95654761D01*
X152574761Y-95702380D01*
X152479523Y-95702380D01*
X153289047Y-94797619D02*
X153336666Y-94750000D01*
X153431904Y-94702380D01*
X153670000Y-94702380D01*
X153765238Y-94750000D01*
X153812857Y-94797619D01*
X153860476Y-94892857D01*
X153860476Y-94988095D01*
X153812857Y-95130952D01*
X153241428Y-95702380D01*
X153860476Y-95702380D01*
X154241428Y-94797619D02*
X154289047Y-94750000D01*
X154384285Y-94702380D01*
X154622380Y-94702380D01*
X154717619Y-94750000D01*
X154765238Y-94797619D01*
X154812857Y-94892857D01*
X154812857Y-94988095D01*
X154765238Y-95130952D01*
X154193809Y-95702380D01*
X154812857Y-95702380D01*
G04 #@! TO.C,J23*
X152860476Y-89622380D02*
X152860476Y-90336666D01*
X152812857Y-90479523D01*
X152717619Y-90574761D01*
X152574761Y-90622380D01*
X152479523Y-90622380D01*
X153289047Y-89717619D02*
X153336666Y-89670000D01*
X153431904Y-89622380D01*
X153670000Y-89622380D01*
X153765238Y-89670000D01*
X153812857Y-89717619D01*
X153860476Y-89812857D01*
X153860476Y-89908095D01*
X153812857Y-90050952D01*
X153241428Y-90622380D01*
X153860476Y-90622380D01*
X154193809Y-89622380D02*
X154812857Y-89622380D01*
X154479523Y-90003333D01*
X154622380Y-90003333D01*
X154717619Y-90050952D01*
X154765238Y-90098571D01*
X154812857Y-90193809D01*
X154812857Y-90431904D01*
X154765238Y-90527142D01*
X154717619Y-90574761D01*
X154622380Y-90622380D01*
X154336666Y-90622380D01*
X154241428Y-90574761D01*
X154193809Y-90527142D01*
G04 #@! TO.C,J24*
X152860476Y-87082380D02*
X152860476Y-87796666D01*
X152812857Y-87939523D01*
X152717619Y-88034761D01*
X152574761Y-88082380D01*
X152479523Y-88082380D01*
X153289047Y-87177619D02*
X153336666Y-87130000D01*
X153431904Y-87082380D01*
X153670000Y-87082380D01*
X153765238Y-87130000D01*
X153812857Y-87177619D01*
X153860476Y-87272857D01*
X153860476Y-87368095D01*
X153812857Y-87510952D01*
X153241428Y-88082380D01*
X153860476Y-88082380D01*
X154717619Y-87415714D02*
X154717619Y-88082380D01*
X154479523Y-87034761D02*
X154241428Y-87749047D01*
X154860476Y-87749047D01*
G04 #@! TO.C,J25*
X152860476Y-84542380D02*
X152860476Y-85256666D01*
X152812857Y-85399523D01*
X152717619Y-85494761D01*
X152574761Y-85542380D01*
X152479523Y-85542380D01*
X153289047Y-84637619D02*
X153336666Y-84590000D01*
X153431904Y-84542380D01*
X153670000Y-84542380D01*
X153765238Y-84590000D01*
X153812857Y-84637619D01*
X153860476Y-84732857D01*
X153860476Y-84828095D01*
X153812857Y-84970952D01*
X153241428Y-85542380D01*
X153860476Y-85542380D01*
X154765238Y-84542380D02*
X154289047Y-84542380D01*
X154241428Y-85018571D01*
X154289047Y-84970952D01*
X154384285Y-84923333D01*
X154622380Y-84923333D01*
X154717619Y-84970952D01*
X154765238Y-85018571D01*
X154812857Y-85113809D01*
X154812857Y-85351904D01*
X154765238Y-85447142D01*
X154717619Y-85494761D01*
X154622380Y-85542380D01*
X154384285Y-85542380D01*
X154289047Y-85494761D01*
X154241428Y-85447142D01*
G04 #@! TO.C,J26*
X152860476Y-82002380D02*
X152860476Y-82716666D01*
X152812857Y-82859523D01*
X152717619Y-82954761D01*
X152574761Y-83002380D01*
X152479523Y-83002380D01*
X153289047Y-82097619D02*
X153336666Y-82050000D01*
X153431904Y-82002380D01*
X153670000Y-82002380D01*
X153765238Y-82050000D01*
X153812857Y-82097619D01*
X153860476Y-82192857D01*
X153860476Y-82288095D01*
X153812857Y-82430952D01*
X153241428Y-83002380D01*
X153860476Y-83002380D01*
X154717619Y-82002380D02*
X154527142Y-82002380D01*
X154431904Y-82050000D01*
X154384285Y-82097619D01*
X154289047Y-82240476D01*
X154241428Y-82430952D01*
X154241428Y-82811904D01*
X154289047Y-82907142D01*
X154336666Y-82954761D01*
X154431904Y-83002380D01*
X154622380Y-83002380D01*
X154717619Y-82954761D01*
X154765238Y-82907142D01*
X154812857Y-82811904D01*
X154812857Y-82573809D01*
X154765238Y-82478571D01*
X154717619Y-82430952D01*
X154622380Y-82383333D01*
X154431904Y-82383333D01*
X154336666Y-82430952D01*
X154289047Y-82478571D01*
X154241428Y-82573809D01*
G04 #@! TO.C,J27*
X152860476Y-79462380D02*
X152860476Y-80176666D01*
X152812857Y-80319523D01*
X152717619Y-80414761D01*
X152574761Y-80462380D01*
X152479523Y-80462380D01*
X153289047Y-79557619D02*
X153336666Y-79510000D01*
X153431904Y-79462380D01*
X153670000Y-79462380D01*
X153765238Y-79510000D01*
X153812857Y-79557619D01*
X153860476Y-79652857D01*
X153860476Y-79748095D01*
X153812857Y-79890952D01*
X153241428Y-80462380D01*
X153860476Y-80462380D01*
X154193809Y-79462380D02*
X154860476Y-79462380D01*
X154431904Y-80462380D01*
G04 #@! TO.C,J28*
X152860476Y-76922380D02*
X152860476Y-77636666D01*
X152812857Y-77779523D01*
X152717619Y-77874761D01*
X152574761Y-77922380D01*
X152479523Y-77922380D01*
X153289047Y-77017619D02*
X153336666Y-76970000D01*
X153431904Y-76922380D01*
X153670000Y-76922380D01*
X153765238Y-76970000D01*
X153812857Y-77017619D01*
X153860476Y-77112857D01*
X153860476Y-77208095D01*
X153812857Y-77350952D01*
X153241428Y-77922380D01*
X153860476Y-77922380D01*
X154431904Y-77350952D02*
X154336666Y-77303333D01*
X154289047Y-77255714D01*
X154241428Y-77160476D01*
X154241428Y-77112857D01*
X154289047Y-77017619D01*
X154336666Y-76970000D01*
X154431904Y-76922380D01*
X154622380Y-76922380D01*
X154717619Y-76970000D01*
X154765238Y-77017619D01*
X154812857Y-77112857D01*
X154812857Y-77160476D01*
X154765238Y-77255714D01*
X154717619Y-77303333D01*
X154622380Y-77350952D01*
X154431904Y-77350952D01*
X154336666Y-77398571D01*
X154289047Y-77446190D01*
X154241428Y-77541428D01*
X154241428Y-77731904D01*
X154289047Y-77827142D01*
X154336666Y-77874761D01*
X154431904Y-77922380D01*
X154622380Y-77922380D01*
X154717619Y-77874761D01*
X154765238Y-77827142D01*
X154812857Y-77731904D01*
X154812857Y-77541428D01*
X154765238Y-77446190D01*
X154717619Y-77398571D01*
X154622380Y-77350952D01*
G04 #@! TO.C,J29*
X152860476Y-74382380D02*
X152860476Y-75096666D01*
X152812857Y-75239523D01*
X152717619Y-75334761D01*
X152574761Y-75382380D01*
X152479523Y-75382380D01*
X153289047Y-74477619D02*
X153336666Y-74430000D01*
X153431904Y-74382380D01*
X153670000Y-74382380D01*
X153765238Y-74430000D01*
X153812857Y-74477619D01*
X153860476Y-74572857D01*
X153860476Y-74668095D01*
X153812857Y-74810952D01*
X153241428Y-75382380D01*
X153860476Y-75382380D01*
X154336666Y-75382380D02*
X154527142Y-75382380D01*
X154622380Y-75334761D01*
X154670000Y-75287142D01*
X154765238Y-75144285D01*
X154812857Y-74953809D01*
X154812857Y-74572857D01*
X154765238Y-74477619D01*
X154717619Y-74430000D01*
X154622380Y-74382380D01*
X154431904Y-74382380D01*
X154336666Y-74430000D01*
X154289047Y-74477619D01*
X154241428Y-74572857D01*
X154241428Y-74810952D01*
X154289047Y-74906190D01*
X154336666Y-74953809D01*
X154431904Y-75001428D01*
X154622380Y-75001428D01*
X154717619Y-74953809D01*
X154765238Y-74906190D01*
X154812857Y-74810952D01*
G04 #@! TO.C,J30*
X152860476Y-71842380D02*
X152860476Y-72556666D01*
X152812857Y-72699523D01*
X152717619Y-72794761D01*
X152574761Y-72842380D01*
X152479523Y-72842380D01*
X153241428Y-71842380D02*
X153860476Y-71842380D01*
X153527142Y-72223333D01*
X153670000Y-72223333D01*
X153765238Y-72270952D01*
X153812857Y-72318571D01*
X153860476Y-72413809D01*
X153860476Y-72651904D01*
X153812857Y-72747142D01*
X153765238Y-72794761D01*
X153670000Y-72842380D01*
X153384285Y-72842380D01*
X153289047Y-72794761D01*
X153241428Y-72747142D01*
X154479523Y-71842380D02*
X154574761Y-71842380D01*
X154670000Y-71890000D01*
X154717619Y-71937619D01*
X154765238Y-72032857D01*
X154812857Y-72223333D01*
X154812857Y-72461428D01*
X154765238Y-72651904D01*
X154717619Y-72747142D01*
X154670000Y-72794761D01*
X154574761Y-72842380D01*
X154479523Y-72842380D01*
X154384285Y-72794761D01*
X154336666Y-72747142D01*
X154289047Y-72651904D01*
X154241428Y-72461428D01*
X154241428Y-72223333D01*
X154289047Y-72032857D01*
X154336666Y-71937619D01*
X154384285Y-71890000D01*
X154479523Y-71842380D01*
G04 #@! TO.C,J31*
X152860476Y-69302380D02*
X152860476Y-70016666D01*
X152812857Y-70159523D01*
X152717619Y-70254761D01*
X152574761Y-70302380D01*
X152479523Y-70302380D01*
X153241428Y-69302380D02*
X153860476Y-69302380D01*
X153527142Y-69683333D01*
X153670000Y-69683333D01*
X153765238Y-69730952D01*
X153812857Y-69778571D01*
X153860476Y-69873809D01*
X153860476Y-70111904D01*
X153812857Y-70207142D01*
X153765238Y-70254761D01*
X153670000Y-70302380D01*
X153384285Y-70302380D01*
X153289047Y-70254761D01*
X153241428Y-70207142D01*
X154812857Y-70302380D02*
X154241428Y-70302380D01*
X154527142Y-70302380D02*
X154527142Y-69302380D01*
X154431904Y-69445238D01*
X154336666Y-69540476D01*
X154241428Y-69588095D01*
G04 #@! TO.C,J32*
X152860476Y-66762380D02*
X152860476Y-67476666D01*
X152812857Y-67619523D01*
X152717619Y-67714761D01*
X152574761Y-67762380D01*
X152479523Y-67762380D01*
X153241428Y-66762380D02*
X153860476Y-66762380D01*
X153527142Y-67143333D01*
X153670000Y-67143333D01*
X153765238Y-67190952D01*
X153812857Y-67238571D01*
X153860476Y-67333809D01*
X153860476Y-67571904D01*
X153812857Y-67667142D01*
X153765238Y-67714761D01*
X153670000Y-67762380D01*
X153384285Y-67762380D01*
X153289047Y-67714761D01*
X153241428Y-67667142D01*
X154241428Y-66857619D02*
X154289047Y-66810000D01*
X154384285Y-66762380D01*
X154622380Y-66762380D01*
X154717619Y-66810000D01*
X154765238Y-66857619D01*
X154812857Y-66952857D01*
X154812857Y-67048095D01*
X154765238Y-67190952D01*
X154193809Y-67762380D01*
X154812857Y-67762380D01*
G04 #@! TO.C,J33*
X152860476Y-64222380D02*
X152860476Y-64936666D01*
X152812857Y-65079523D01*
X152717619Y-65174761D01*
X152574761Y-65222380D01*
X152479523Y-65222380D01*
X153241428Y-64222380D02*
X153860476Y-64222380D01*
X153527142Y-64603333D01*
X153670000Y-64603333D01*
X153765238Y-64650952D01*
X153812857Y-64698571D01*
X153860476Y-64793809D01*
X153860476Y-65031904D01*
X153812857Y-65127142D01*
X153765238Y-65174761D01*
X153670000Y-65222380D01*
X153384285Y-65222380D01*
X153289047Y-65174761D01*
X153241428Y-65127142D01*
X154193809Y-64222380D02*
X154812857Y-64222380D01*
X154479523Y-64603333D01*
X154622380Y-64603333D01*
X154717619Y-64650952D01*
X154765238Y-64698571D01*
X154812857Y-64793809D01*
X154812857Y-65031904D01*
X154765238Y-65127142D01*
X154717619Y-65174761D01*
X154622380Y-65222380D01*
X154336666Y-65222380D01*
X154241428Y-65174761D01*
X154193809Y-65127142D01*
G04 #@! TO.C,J34*
X152860476Y-62317380D02*
X152860476Y-63031666D01*
X152812857Y-63174523D01*
X152717619Y-63269761D01*
X152574761Y-63317380D01*
X152479523Y-63317380D01*
X153241428Y-62317380D02*
X153860476Y-62317380D01*
X153527142Y-62698333D01*
X153670000Y-62698333D01*
X153765238Y-62745952D01*
X153812857Y-62793571D01*
X153860476Y-62888809D01*
X153860476Y-63126904D01*
X153812857Y-63222142D01*
X153765238Y-63269761D01*
X153670000Y-63317380D01*
X153384285Y-63317380D01*
X153289047Y-63269761D01*
X153241428Y-63222142D01*
X154717619Y-62650714D02*
X154717619Y-63317380D01*
X154479523Y-62269761D02*
X154241428Y-62984047D01*
X154860476Y-62984047D01*
G04 #@! TO.C,J35*
X132540476Y-66762380D02*
X132540476Y-67476666D01*
X132492857Y-67619523D01*
X132397619Y-67714761D01*
X132254761Y-67762380D01*
X132159523Y-67762380D01*
X132921428Y-66762380D02*
X133540476Y-66762380D01*
X133207142Y-67143333D01*
X133350000Y-67143333D01*
X133445238Y-67190952D01*
X133492857Y-67238571D01*
X133540476Y-67333809D01*
X133540476Y-67571904D01*
X133492857Y-67667142D01*
X133445238Y-67714761D01*
X133350000Y-67762380D01*
X133064285Y-67762380D01*
X132969047Y-67714761D01*
X132921428Y-67667142D01*
X134445238Y-66762380D02*
X133969047Y-66762380D01*
X133921428Y-67238571D01*
X133969047Y-67190952D01*
X134064285Y-67143333D01*
X134302380Y-67143333D01*
X134397619Y-67190952D01*
X134445238Y-67238571D01*
X134492857Y-67333809D01*
X134492857Y-67571904D01*
X134445238Y-67667142D01*
X134397619Y-67714761D01*
X134302380Y-67762380D01*
X134064285Y-67762380D01*
X133969047Y-67714761D01*
X133921428Y-67667142D01*
G04 #@! TO.C,J36*
X132540476Y-69302380D02*
X132540476Y-70016666D01*
X132492857Y-70159523D01*
X132397619Y-70254761D01*
X132254761Y-70302380D01*
X132159523Y-70302380D01*
X132921428Y-69302380D02*
X133540476Y-69302380D01*
X133207142Y-69683333D01*
X133350000Y-69683333D01*
X133445238Y-69730952D01*
X133492857Y-69778571D01*
X133540476Y-69873809D01*
X133540476Y-70111904D01*
X133492857Y-70207142D01*
X133445238Y-70254761D01*
X133350000Y-70302380D01*
X133064285Y-70302380D01*
X132969047Y-70254761D01*
X132921428Y-70207142D01*
X134397619Y-69302380D02*
X134207142Y-69302380D01*
X134111904Y-69350000D01*
X134064285Y-69397619D01*
X133969047Y-69540476D01*
X133921428Y-69730952D01*
X133921428Y-70111904D01*
X133969047Y-70207142D01*
X134016666Y-70254761D01*
X134111904Y-70302380D01*
X134302380Y-70302380D01*
X134397619Y-70254761D01*
X134445238Y-70207142D01*
X134492857Y-70111904D01*
X134492857Y-69873809D01*
X134445238Y-69778571D01*
X134397619Y-69730952D01*
X134302380Y-69683333D01*
X134111904Y-69683333D01*
X134016666Y-69730952D01*
X133969047Y-69778571D01*
X133921428Y-69873809D01*
G04 #@! TO.C,D1*
X121304123Y-62721904D02*
X121304123Y-61921904D01*
X121494600Y-61921904D01*
X121608885Y-61960000D01*
X121685076Y-62036190D01*
X121723171Y-62112380D01*
X121761266Y-62264761D01*
X121761266Y-62379047D01*
X121723171Y-62531428D01*
X121685076Y-62607619D01*
X121608885Y-62683809D01*
X121494600Y-62721904D01*
X121304123Y-62721904D01*
X122523171Y-62721904D02*
X122066028Y-62721904D01*
X122294600Y-62721904D02*
X122294600Y-61921904D01*
X122218409Y-62036190D01*
X122142219Y-62112380D01*
X122066028Y-62150476D01*
G04 #@! TO.C,D2*
X121304123Y-66531904D02*
X121304123Y-65731904D01*
X121494600Y-65731904D01*
X121608885Y-65770000D01*
X121685076Y-65846190D01*
X121723171Y-65922380D01*
X121761266Y-66074761D01*
X121761266Y-66189047D01*
X121723171Y-66341428D01*
X121685076Y-66417619D01*
X121608885Y-66493809D01*
X121494600Y-66531904D01*
X121304123Y-66531904D01*
X122066028Y-65808095D02*
X122104123Y-65770000D01*
X122180314Y-65731904D01*
X122370790Y-65731904D01*
X122446980Y-65770000D01*
X122485076Y-65808095D01*
X122523171Y-65884285D01*
X122523171Y-65960476D01*
X122485076Y-66074761D01*
X122027933Y-66531904D01*
X122523171Y-66531904D01*
G04 #@! TO.C,D3*
X121304123Y-70341904D02*
X121304123Y-69541904D01*
X121494600Y-69541904D01*
X121608885Y-69580000D01*
X121685076Y-69656190D01*
X121723171Y-69732380D01*
X121761266Y-69884761D01*
X121761266Y-69999047D01*
X121723171Y-70151428D01*
X121685076Y-70227619D01*
X121608885Y-70303809D01*
X121494600Y-70341904D01*
X121304123Y-70341904D01*
X122027933Y-69541904D02*
X122523171Y-69541904D01*
X122256504Y-69846666D01*
X122370790Y-69846666D01*
X122446980Y-69884761D01*
X122485076Y-69922857D01*
X122523171Y-69999047D01*
X122523171Y-70189523D01*
X122485076Y-70265714D01*
X122446980Y-70303809D01*
X122370790Y-70341904D01*
X122142219Y-70341904D01*
X122066028Y-70303809D01*
X122027933Y-70265714D01*
G04 #@! TO.C,D4*
X121434123Y-74151904D02*
X121434123Y-73351904D01*
X121624600Y-73351904D01*
X121738885Y-73390000D01*
X121815076Y-73466190D01*
X121853171Y-73542380D01*
X121891266Y-73694761D01*
X121891266Y-73809047D01*
X121853171Y-73961428D01*
X121815076Y-74037619D01*
X121738885Y-74113809D01*
X121624600Y-74151904D01*
X121434123Y-74151904D01*
X122576980Y-73618571D02*
X122576980Y-74151904D01*
X122386504Y-73313809D02*
X122196028Y-73885238D01*
X122691266Y-73885238D01*
G04 #@! TO.C,D5*
X121434123Y-77961904D02*
X121434123Y-77161904D01*
X121624600Y-77161904D01*
X121738885Y-77200000D01*
X121815076Y-77276190D01*
X121853171Y-77352380D01*
X121891266Y-77504761D01*
X121891266Y-77619047D01*
X121853171Y-77771428D01*
X121815076Y-77847619D01*
X121738885Y-77923809D01*
X121624600Y-77961904D01*
X121434123Y-77961904D01*
X122615076Y-77161904D02*
X122234123Y-77161904D01*
X122196028Y-77542857D01*
X122234123Y-77504761D01*
X122310314Y-77466666D01*
X122500790Y-77466666D01*
X122576980Y-77504761D01*
X122615076Y-77542857D01*
X122653171Y-77619047D01*
X122653171Y-77809523D01*
X122615076Y-77885714D01*
X122576980Y-77923809D01*
X122500790Y-77961904D01*
X122310314Y-77961904D01*
X122234123Y-77923809D01*
X122196028Y-77885714D01*
G04 #@! TO.C,D6*
X121434123Y-81771904D02*
X121434123Y-80971904D01*
X121624600Y-80971904D01*
X121738885Y-81010000D01*
X121815076Y-81086190D01*
X121853171Y-81162380D01*
X121891266Y-81314761D01*
X121891266Y-81429047D01*
X121853171Y-81581428D01*
X121815076Y-81657619D01*
X121738885Y-81733809D01*
X121624600Y-81771904D01*
X121434123Y-81771904D01*
X122576980Y-80971904D02*
X122424600Y-80971904D01*
X122348409Y-81010000D01*
X122310314Y-81048095D01*
X122234123Y-81162380D01*
X122196028Y-81314761D01*
X122196028Y-81619523D01*
X122234123Y-81695714D01*
X122272219Y-81733809D01*
X122348409Y-81771904D01*
X122500790Y-81771904D01*
X122576980Y-81733809D01*
X122615076Y-81695714D01*
X122653171Y-81619523D01*
X122653171Y-81429047D01*
X122615076Y-81352857D01*
X122576980Y-81314761D01*
X122500790Y-81276666D01*
X122348409Y-81276666D01*
X122272219Y-81314761D01*
X122234123Y-81352857D01*
X122196028Y-81429047D01*
G04 #@! TO.C,D7*
X121434123Y-85581904D02*
X121434123Y-84781904D01*
X121624600Y-84781904D01*
X121738885Y-84820000D01*
X121815076Y-84896190D01*
X121853171Y-84972380D01*
X121891266Y-85124761D01*
X121891266Y-85239047D01*
X121853171Y-85391428D01*
X121815076Y-85467619D01*
X121738885Y-85543809D01*
X121624600Y-85581904D01*
X121434123Y-85581904D01*
X122157933Y-84781904D02*
X122691266Y-84781904D01*
X122348409Y-85581904D01*
G04 #@! TO.C,D8*
X121434123Y-89391904D02*
X121434123Y-88591904D01*
X121624600Y-88591904D01*
X121738885Y-88630000D01*
X121815076Y-88706190D01*
X121853171Y-88782380D01*
X121891266Y-88934761D01*
X121891266Y-89049047D01*
X121853171Y-89201428D01*
X121815076Y-89277619D01*
X121738885Y-89353809D01*
X121624600Y-89391904D01*
X121434123Y-89391904D01*
X122348409Y-88934761D02*
X122272219Y-88896666D01*
X122234123Y-88858571D01*
X122196028Y-88782380D01*
X122196028Y-88744285D01*
X122234123Y-88668095D01*
X122272219Y-88630000D01*
X122348409Y-88591904D01*
X122500790Y-88591904D01*
X122576980Y-88630000D01*
X122615076Y-88668095D01*
X122653171Y-88744285D01*
X122653171Y-88782380D01*
X122615076Y-88858571D01*
X122576980Y-88896666D01*
X122500790Y-88934761D01*
X122348409Y-88934761D01*
X122272219Y-88972857D01*
X122234123Y-89010952D01*
X122196028Y-89087142D01*
X122196028Y-89239523D01*
X122234123Y-89315714D01*
X122272219Y-89353809D01*
X122348409Y-89391904D01*
X122500790Y-89391904D01*
X122576980Y-89353809D01*
X122615076Y-89315714D01*
X122653171Y-89239523D01*
X122653171Y-89087142D01*
X122615076Y-89010952D01*
X122576980Y-88972857D01*
X122500790Y-88934761D01*
G04 #@! TO.C,D9*
X121434123Y-93201904D02*
X121434123Y-92401904D01*
X121624600Y-92401904D01*
X121738885Y-92440000D01*
X121815076Y-92516190D01*
X121853171Y-92592380D01*
X121891266Y-92744761D01*
X121891266Y-92859047D01*
X121853171Y-93011428D01*
X121815076Y-93087619D01*
X121738885Y-93163809D01*
X121624600Y-93201904D01*
X121434123Y-93201904D01*
X122272219Y-93201904D02*
X122424600Y-93201904D01*
X122500790Y-93163809D01*
X122538885Y-93125714D01*
X122615076Y-93011428D01*
X122653171Y-92859047D01*
X122653171Y-92554285D01*
X122615076Y-92478095D01*
X122576980Y-92440000D01*
X122500790Y-92401904D01*
X122348409Y-92401904D01*
X122272219Y-92440000D01*
X122234123Y-92478095D01*
X122196028Y-92554285D01*
X122196028Y-92744761D01*
X122234123Y-92820952D01*
X122272219Y-92859047D01*
X122348409Y-92897142D01*
X122500790Y-92897142D01*
X122576980Y-92859047D01*
X122615076Y-92820952D01*
X122653171Y-92744761D01*
G04 #@! TO.C,D10*
X120923171Y-97011904D02*
X120923171Y-96211904D01*
X121113647Y-96211904D01*
X121227933Y-96250000D01*
X121304123Y-96326190D01*
X121342219Y-96402380D01*
X121380314Y-96554761D01*
X121380314Y-96669047D01*
X121342219Y-96821428D01*
X121304123Y-96897619D01*
X121227933Y-96973809D01*
X121113647Y-97011904D01*
X120923171Y-97011904D01*
X122142219Y-97011904D02*
X121685076Y-97011904D01*
X121913647Y-97011904D02*
X121913647Y-96211904D01*
X121837457Y-96326190D01*
X121761266Y-96402380D01*
X121685076Y-96440476D01*
X122637457Y-96211904D02*
X122713647Y-96211904D01*
X122789838Y-96250000D01*
X122827933Y-96288095D01*
X122866028Y-96364285D01*
X122904123Y-96516666D01*
X122904123Y-96707142D01*
X122866028Y-96859523D01*
X122827933Y-96935714D01*
X122789838Y-96973809D01*
X122713647Y-97011904D01*
X122637457Y-97011904D01*
X122561266Y-96973809D01*
X122523171Y-96935714D01*
X122485076Y-96859523D01*
X122446980Y-96707142D01*
X122446980Y-96516666D01*
X122485076Y-96364285D01*
X122523171Y-96288095D01*
X122561266Y-96250000D01*
X122637457Y-96211904D01*
G04 #@! TO.C,D11*
X120923171Y-100821904D02*
X120923171Y-100021904D01*
X121113647Y-100021904D01*
X121227933Y-100060000D01*
X121304123Y-100136190D01*
X121342219Y-100212380D01*
X121380314Y-100364761D01*
X121380314Y-100479047D01*
X121342219Y-100631428D01*
X121304123Y-100707619D01*
X121227933Y-100783809D01*
X121113647Y-100821904D01*
X120923171Y-100821904D01*
X122142219Y-100821904D02*
X121685076Y-100821904D01*
X121913647Y-100821904D02*
X121913647Y-100021904D01*
X121837457Y-100136190D01*
X121761266Y-100212380D01*
X121685076Y-100250476D01*
X122904123Y-100821904D02*
X122446980Y-100821904D01*
X122675552Y-100821904D02*
X122675552Y-100021904D01*
X122599361Y-100136190D01*
X122523171Y-100212380D01*
X122446980Y-100250476D01*
G04 #@! TO.C,D12*
X120923171Y-104631904D02*
X120923171Y-103831904D01*
X121113647Y-103831904D01*
X121227933Y-103870000D01*
X121304123Y-103946190D01*
X121342219Y-104022380D01*
X121380314Y-104174761D01*
X121380314Y-104289047D01*
X121342219Y-104441428D01*
X121304123Y-104517619D01*
X121227933Y-104593809D01*
X121113647Y-104631904D01*
X120923171Y-104631904D01*
X122142219Y-104631904D02*
X121685076Y-104631904D01*
X121913647Y-104631904D02*
X121913647Y-103831904D01*
X121837457Y-103946190D01*
X121761266Y-104022380D01*
X121685076Y-104060476D01*
X122446980Y-103908095D02*
X122485076Y-103870000D01*
X122561266Y-103831904D01*
X122751742Y-103831904D01*
X122827933Y-103870000D01*
X122866028Y-103908095D01*
X122904123Y-103984285D01*
X122904123Y-104060476D01*
X122866028Y-104174761D01*
X122408885Y-104631904D01*
X122904123Y-104631904D01*
G04 #@! TO.C,D13*
X120923171Y-108441904D02*
X120923171Y-107641904D01*
X121113647Y-107641904D01*
X121227933Y-107680000D01*
X121304123Y-107756190D01*
X121342219Y-107832380D01*
X121380314Y-107984761D01*
X121380314Y-108099047D01*
X121342219Y-108251428D01*
X121304123Y-108327619D01*
X121227933Y-108403809D01*
X121113647Y-108441904D01*
X120923171Y-108441904D01*
X122142219Y-108441904D02*
X121685076Y-108441904D01*
X121913647Y-108441904D02*
X121913647Y-107641904D01*
X121837457Y-107756190D01*
X121761266Y-107832380D01*
X121685076Y-107870476D01*
X122408885Y-107641904D02*
X122904123Y-107641904D01*
X122637457Y-107946666D01*
X122751742Y-107946666D01*
X122827933Y-107984761D01*
X122866028Y-108022857D01*
X122904123Y-108099047D01*
X122904123Y-108289523D01*
X122866028Y-108365714D01*
X122827933Y-108403809D01*
X122751742Y-108441904D01*
X122523171Y-108441904D01*
X122446980Y-108403809D01*
X122408885Y-108365714D01*
G04 #@! TO.C,D14*
X120923171Y-112251904D02*
X120923171Y-111451904D01*
X121113647Y-111451904D01*
X121227933Y-111490000D01*
X121304123Y-111566190D01*
X121342219Y-111642380D01*
X121380314Y-111794761D01*
X121380314Y-111909047D01*
X121342219Y-112061428D01*
X121304123Y-112137619D01*
X121227933Y-112213809D01*
X121113647Y-112251904D01*
X120923171Y-112251904D01*
X122142219Y-112251904D02*
X121685076Y-112251904D01*
X121913647Y-112251904D02*
X121913647Y-111451904D01*
X121837457Y-111566190D01*
X121761266Y-111642380D01*
X121685076Y-111680476D01*
X122827933Y-111718571D02*
X122827933Y-112251904D01*
X122637457Y-111413809D02*
X122446980Y-111985238D01*
X122942219Y-111985238D01*
G04 #@! TO.C,D15*
X120923171Y-116061904D02*
X120923171Y-115261904D01*
X121113647Y-115261904D01*
X121227933Y-115300000D01*
X121304123Y-115376190D01*
X121342219Y-115452380D01*
X121380314Y-115604761D01*
X121380314Y-115719047D01*
X121342219Y-115871428D01*
X121304123Y-115947619D01*
X121227933Y-116023809D01*
X121113647Y-116061904D01*
X120923171Y-116061904D01*
X122142219Y-116061904D02*
X121685076Y-116061904D01*
X121913647Y-116061904D02*
X121913647Y-115261904D01*
X121837457Y-115376190D01*
X121761266Y-115452380D01*
X121685076Y-115490476D01*
X122866028Y-115261904D02*
X122485076Y-115261904D01*
X122446980Y-115642857D01*
X122485076Y-115604761D01*
X122561266Y-115566666D01*
X122751742Y-115566666D01*
X122827933Y-115604761D01*
X122866028Y-115642857D01*
X122904123Y-115719047D01*
X122904123Y-115909523D01*
X122866028Y-115985714D01*
X122827933Y-116023809D01*
X122751742Y-116061904D01*
X122561266Y-116061904D01*
X122485076Y-116023809D01*
X122446980Y-115985714D01*
G04 #@! TO.C,D16*
X120923171Y-119871904D02*
X120923171Y-119071904D01*
X121113647Y-119071904D01*
X121227933Y-119110000D01*
X121304123Y-119186190D01*
X121342219Y-119262380D01*
X121380314Y-119414761D01*
X121380314Y-119529047D01*
X121342219Y-119681428D01*
X121304123Y-119757619D01*
X121227933Y-119833809D01*
X121113647Y-119871904D01*
X120923171Y-119871904D01*
X122142219Y-119871904D02*
X121685076Y-119871904D01*
X121913647Y-119871904D02*
X121913647Y-119071904D01*
X121837457Y-119186190D01*
X121761266Y-119262380D01*
X121685076Y-119300476D01*
X122827933Y-119071904D02*
X122675552Y-119071904D01*
X122599361Y-119110000D01*
X122561266Y-119148095D01*
X122485076Y-119262380D01*
X122446980Y-119414761D01*
X122446980Y-119719523D01*
X122485076Y-119795714D01*
X122523171Y-119833809D01*
X122599361Y-119871904D01*
X122751742Y-119871904D01*
X122827933Y-119833809D01*
X122866028Y-119795714D01*
X122904123Y-119719523D01*
X122904123Y-119529047D01*
X122866028Y-119452857D01*
X122827933Y-119414761D01*
X122751742Y-119376666D01*
X122599361Y-119376666D01*
X122523171Y-119414761D01*
X122485076Y-119452857D01*
X122446980Y-119529047D01*
G04 #@! TO.C,D17*
X164153971Y-71351904D02*
X164153971Y-70551904D01*
X164344447Y-70551904D01*
X164458733Y-70590000D01*
X164534923Y-70666190D01*
X164573019Y-70742380D01*
X164611114Y-70894761D01*
X164611114Y-71009047D01*
X164573019Y-71161428D01*
X164534923Y-71237619D01*
X164458733Y-71313809D01*
X164344447Y-71351904D01*
X164153971Y-71351904D01*
X165373019Y-71351904D02*
X164915876Y-71351904D01*
X165144447Y-71351904D02*
X165144447Y-70551904D01*
X165068257Y-70666190D01*
X164992066Y-70742380D01*
X164915876Y-70780476D01*
X165639685Y-70551904D02*
X166173019Y-70551904D01*
X165830161Y-71351904D01*
G04 #@! TO.C,D18*
X164153971Y-117071904D02*
X164153971Y-116271904D01*
X164344447Y-116271904D01*
X164458733Y-116310000D01*
X164534923Y-116386190D01*
X164573019Y-116462380D01*
X164611114Y-116614761D01*
X164611114Y-116729047D01*
X164573019Y-116881428D01*
X164534923Y-116957619D01*
X164458733Y-117033809D01*
X164344447Y-117071904D01*
X164153971Y-117071904D01*
X165373019Y-117071904D02*
X164915876Y-117071904D01*
X165144447Y-117071904D02*
X165144447Y-116271904D01*
X165068257Y-116386190D01*
X164992066Y-116462380D01*
X164915876Y-116500476D01*
X165830161Y-116614761D02*
X165753971Y-116576666D01*
X165715876Y-116538571D01*
X165677780Y-116462380D01*
X165677780Y-116424285D01*
X165715876Y-116348095D01*
X165753971Y-116310000D01*
X165830161Y-116271904D01*
X165982542Y-116271904D01*
X166058733Y-116310000D01*
X166096828Y-116348095D01*
X166134923Y-116424285D01*
X166134923Y-116462380D01*
X166096828Y-116538571D01*
X166058733Y-116576666D01*
X165982542Y-116614761D01*
X165830161Y-116614761D01*
X165753971Y-116652857D01*
X165715876Y-116690952D01*
X165677780Y-116767142D01*
X165677780Y-116919523D01*
X165715876Y-116995714D01*
X165753971Y-117033809D01*
X165830161Y-117071904D01*
X165982542Y-117071904D01*
X166058733Y-117033809D01*
X166096828Y-116995714D01*
X166134923Y-116919523D01*
X166134923Y-116767142D01*
X166096828Y-116690952D01*
X166058733Y-116652857D01*
X165982542Y-116614761D01*
G04 #@! TO.C,D19*
X164153971Y-113261904D02*
X164153971Y-112461904D01*
X164344447Y-112461904D01*
X164458733Y-112500000D01*
X164534923Y-112576190D01*
X164573019Y-112652380D01*
X164611114Y-112804761D01*
X164611114Y-112919047D01*
X164573019Y-113071428D01*
X164534923Y-113147619D01*
X164458733Y-113223809D01*
X164344447Y-113261904D01*
X164153971Y-113261904D01*
X165373019Y-113261904D02*
X164915876Y-113261904D01*
X165144447Y-113261904D02*
X165144447Y-112461904D01*
X165068257Y-112576190D01*
X164992066Y-112652380D01*
X164915876Y-112690476D01*
X165753971Y-113261904D02*
X165906352Y-113261904D01*
X165982542Y-113223809D01*
X166020638Y-113185714D01*
X166096828Y-113071428D01*
X166134923Y-112919047D01*
X166134923Y-112614285D01*
X166096828Y-112538095D01*
X166058733Y-112500000D01*
X165982542Y-112461904D01*
X165830161Y-112461904D01*
X165753971Y-112500000D01*
X165715876Y-112538095D01*
X165677780Y-112614285D01*
X165677780Y-112804761D01*
X165715876Y-112880952D01*
X165753971Y-112919047D01*
X165830161Y-112957142D01*
X165982542Y-112957142D01*
X166058733Y-112919047D01*
X166096828Y-112880952D01*
X166134923Y-112804761D01*
G04 #@! TO.C,D20*
X164153971Y-109451904D02*
X164153971Y-108651904D01*
X164344447Y-108651904D01*
X164458733Y-108690000D01*
X164534923Y-108766190D01*
X164573019Y-108842380D01*
X164611114Y-108994761D01*
X164611114Y-109109047D01*
X164573019Y-109261428D01*
X164534923Y-109337619D01*
X164458733Y-109413809D01*
X164344447Y-109451904D01*
X164153971Y-109451904D01*
X164915876Y-108728095D02*
X164953971Y-108690000D01*
X165030161Y-108651904D01*
X165220638Y-108651904D01*
X165296828Y-108690000D01*
X165334923Y-108728095D01*
X165373019Y-108804285D01*
X165373019Y-108880476D01*
X165334923Y-108994761D01*
X164877780Y-109451904D01*
X165373019Y-109451904D01*
X165868257Y-108651904D02*
X165944447Y-108651904D01*
X166020638Y-108690000D01*
X166058733Y-108728095D01*
X166096828Y-108804285D01*
X166134923Y-108956666D01*
X166134923Y-109147142D01*
X166096828Y-109299523D01*
X166058733Y-109375714D01*
X166020638Y-109413809D01*
X165944447Y-109451904D01*
X165868257Y-109451904D01*
X165792066Y-109413809D01*
X165753971Y-109375714D01*
X165715876Y-109299523D01*
X165677780Y-109147142D01*
X165677780Y-108956666D01*
X165715876Y-108804285D01*
X165753971Y-108728095D01*
X165792066Y-108690000D01*
X165868257Y-108651904D01*
G04 #@! TO.C,D21*
X164153971Y-105641904D02*
X164153971Y-104841904D01*
X164344447Y-104841904D01*
X164458733Y-104880000D01*
X164534923Y-104956190D01*
X164573019Y-105032380D01*
X164611114Y-105184761D01*
X164611114Y-105299047D01*
X164573019Y-105451428D01*
X164534923Y-105527619D01*
X164458733Y-105603809D01*
X164344447Y-105641904D01*
X164153971Y-105641904D01*
X164915876Y-104918095D02*
X164953971Y-104880000D01*
X165030161Y-104841904D01*
X165220638Y-104841904D01*
X165296828Y-104880000D01*
X165334923Y-104918095D01*
X165373019Y-104994285D01*
X165373019Y-105070476D01*
X165334923Y-105184761D01*
X164877780Y-105641904D01*
X165373019Y-105641904D01*
X166134923Y-105641904D02*
X165677780Y-105641904D01*
X165906352Y-105641904D02*
X165906352Y-104841904D01*
X165830161Y-104956190D01*
X165753971Y-105032380D01*
X165677780Y-105070476D01*
G04 #@! TO.C,D22*
X164153971Y-101831904D02*
X164153971Y-101031904D01*
X164344447Y-101031904D01*
X164458733Y-101070000D01*
X164534923Y-101146190D01*
X164573019Y-101222380D01*
X164611114Y-101374761D01*
X164611114Y-101489047D01*
X164573019Y-101641428D01*
X164534923Y-101717619D01*
X164458733Y-101793809D01*
X164344447Y-101831904D01*
X164153971Y-101831904D01*
X164915876Y-101108095D02*
X164953971Y-101070000D01*
X165030161Y-101031904D01*
X165220638Y-101031904D01*
X165296828Y-101070000D01*
X165334923Y-101108095D01*
X165373019Y-101184285D01*
X165373019Y-101260476D01*
X165334923Y-101374761D01*
X164877780Y-101831904D01*
X165373019Y-101831904D01*
X165677780Y-101108095D02*
X165715876Y-101070000D01*
X165792066Y-101031904D01*
X165982542Y-101031904D01*
X166058733Y-101070000D01*
X166096828Y-101108095D01*
X166134923Y-101184285D01*
X166134923Y-101260476D01*
X166096828Y-101374761D01*
X165639685Y-101831904D01*
X166134923Y-101831904D01*
G04 #@! TO.C,D23*
X164153971Y-98021904D02*
X164153971Y-97221904D01*
X164344447Y-97221904D01*
X164458733Y-97260000D01*
X164534923Y-97336190D01*
X164573019Y-97412380D01*
X164611114Y-97564761D01*
X164611114Y-97679047D01*
X164573019Y-97831428D01*
X164534923Y-97907619D01*
X164458733Y-97983809D01*
X164344447Y-98021904D01*
X164153971Y-98021904D01*
X164915876Y-97298095D02*
X164953971Y-97260000D01*
X165030161Y-97221904D01*
X165220638Y-97221904D01*
X165296828Y-97260000D01*
X165334923Y-97298095D01*
X165373019Y-97374285D01*
X165373019Y-97450476D01*
X165334923Y-97564761D01*
X164877780Y-98021904D01*
X165373019Y-98021904D01*
X165639685Y-97221904D02*
X166134923Y-97221904D01*
X165868257Y-97526666D01*
X165982542Y-97526666D01*
X166058733Y-97564761D01*
X166096828Y-97602857D01*
X166134923Y-97679047D01*
X166134923Y-97869523D01*
X166096828Y-97945714D01*
X166058733Y-97983809D01*
X165982542Y-98021904D01*
X165753971Y-98021904D01*
X165677780Y-97983809D01*
X165639685Y-97945714D01*
G04 #@! TO.C,D24*
X164153971Y-94211904D02*
X164153971Y-93411904D01*
X164344447Y-93411904D01*
X164458733Y-93450000D01*
X164534923Y-93526190D01*
X164573019Y-93602380D01*
X164611114Y-93754761D01*
X164611114Y-93869047D01*
X164573019Y-94021428D01*
X164534923Y-94097619D01*
X164458733Y-94173809D01*
X164344447Y-94211904D01*
X164153971Y-94211904D01*
X164915876Y-93488095D02*
X164953971Y-93450000D01*
X165030161Y-93411904D01*
X165220638Y-93411904D01*
X165296828Y-93450000D01*
X165334923Y-93488095D01*
X165373019Y-93564285D01*
X165373019Y-93640476D01*
X165334923Y-93754761D01*
X164877780Y-94211904D01*
X165373019Y-94211904D01*
X166058733Y-93678571D02*
X166058733Y-94211904D01*
X165868257Y-93373809D02*
X165677780Y-93945238D01*
X166173019Y-93945238D01*
G04 #@! TO.C,D25*
X164153971Y-90401904D02*
X164153971Y-89601904D01*
X164344447Y-89601904D01*
X164458733Y-89640000D01*
X164534923Y-89716190D01*
X164573019Y-89792380D01*
X164611114Y-89944761D01*
X164611114Y-90059047D01*
X164573019Y-90211428D01*
X164534923Y-90287619D01*
X164458733Y-90363809D01*
X164344447Y-90401904D01*
X164153971Y-90401904D01*
X164915876Y-89678095D02*
X164953971Y-89640000D01*
X165030161Y-89601904D01*
X165220638Y-89601904D01*
X165296828Y-89640000D01*
X165334923Y-89678095D01*
X165373019Y-89754285D01*
X165373019Y-89830476D01*
X165334923Y-89944761D01*
X164877780Y-90401904D01*
X165373019Y-90401904D01*
X166096828Y-89601904D02*
X165715876Y-89601904D01*
X165677780Y-89982857D01*
X165715876Y-89944761D01*
X165792066Y-89906666D01*
X165982542Y-89906666D01*
X166058733Y-89944761D01*
X166096828Y-89982857D01*
X166134923Y-90059047D01*
X166134923Y-90249523D01*
X166096828Y-90325714D01*
X166058733Y-90363809D01*
X165982542Y-90401904D01*
X165792066Y-90401904D01*
X165715876Y-90363809D01*
X165677780Y-90325714D01*
G04 #@! TO.C,D26*
X164153971Y-86591904D02*
X164153971Y-85791904D01*
X164344447Y-85791904D01*
X164458733Y-85830000D01*
X164534923Y-85906190D01*
X164573019Y-85982380D01*
X164611114Y-86134761D01*
X164611114Y-86249047D01*
X164573019Y-86401428D01*
X164534923Y-86477619D01*
X164458733Y-86553809D01*
X164344447Y-86591904D01*
X164153971Y-86591904D01*
X164915876Y-85868095D02*
X164953971Y-85830000D01*
X165030161Y-85791904D01*
X165220638Y-85791904D01*
X165296828Y-85830000D01*
X165334923Y-85868095D01*
X165373019Y-85944285D01*
X165373019Y-86020476D01*
X165334923Y-86134761D01*
X164877780Y-86591904D01*
X165373019Y-86591904D01*
X166058733Y-85791904D02*
X165906352Y-85791904D01*
X165830161Y-85830000D01*
X165792066Y-85868095D01*
X165715876Y-85982380D01*
X165677780Y-86134761D01*
X165677780Y-86439523D01*
X165715876Y-86515714D01*
X165753971Y-86553809D01*
X165830161Y-86591904D01*
X165982542Y-86591904D01*
X166058733Y-86553809D01*
X166096828Y-86515714D01*
X166134923Y-86439523D01*
X166134923Y-86249047D01*
X166096828Y-86172857D01*
X166058733Y-86134761D01*
X165982542Y-86096666D01*
X165830161Y-86096666D01*
X165753971Y-86134761D01*
X165715876Y-86172857D01*
X165677780Y-86249047D01*
G04 #@! TO.C,D27*
X164153971Y-82781904D02*
X164153971Y-81981904D01*
X164344447Y-81981904D01*
X164458733Y-82020000D01*
X164534923Y-82096190D01*
X164573019Y-82172380D01*
X164611114Y-82324761D01*
X164611114Y-82439047D01*
X164573019Y-82591428D01*
X164534923Y-82667619D01*
X164458733Y-82743809D01*
X164344447Y-82781904D01*
X164153971Y-82781904D01*
X164915876Y-82058095D02*
X164953971Y-82020000D01*
X165030161Y-81981904D01*
X165220638Y-81981904D01*
X165296828Y-82020000D01*
X165334923Y-82058095D01*
X165373019Y-82134285D01*
X165373019Y-82210476D01*
X165334923Y-82324761D01*
X164877780Y-82781904D01*
X165373019Y-82781904D01*
X165639685Y-81981904D02*
X166173019Y-81981904D01*
X165830161Y-82781904D01*
G04 #@! TO.C,D28*
X164153971Y-78971904D02*
X164153971Y-78171904D01*
X164344447Y-78171904D01*
X164458733Y-78210000D01*
X164534923Y-78286190D01*
X164573019Y-78362380D01*
X164611114Y-78514761D01*
X164611114Y-78629047D01*
X164573019Y-78781428D01*
X164534923Y-78857619D01*
X164458733Y-78933809D01*
X164344447Y-78971904D01*
X164153971Y-78971904D01*
X164915876Y-78248095D02*
X164953971Y-78210000D01*
X165030161Y-78171904D01*
X165220638Y-78171904D01*
X165296828Y-78210000D01*
X165334923Y-78248095D01*
X165373019Y-78324285D01*
X165373019Y-78400476D01*
X165334923Y-78514761D01*
X164877780Y-78971904D01*
X165373019Y-78971904D01*
X165830161Y-78514761D02*
X165753971Y-78476666D01*
X165715876Y-78438571D01*
X165677780Y-78362380D01*
X165677780Y-78324285D01*
X165715876Y-78248095D01*
X165753971Y-78210000D01*
X165830161Y-78171904D01*
X165982542Y-78171904D01*
X166058733Y-78210000D01*
X166096828Y-78248095D01*
X166134923Y-78324285D01*
X166134923Y-78362380D01*
X166096828Y-78438571D01*
X166058733Y-78476666D01*
X165982542Y-78514761D01*
X165830161Y-78514761D01*
X165753971Y-78552857D01*
X165715876Y-78590952D01*
X165677780Y-78667142D01*
X165677780Y-78819523D01*
X165715876Y-78895714D01*
X165753971Y-78933809D01*
X165830161Y-78971904D01*
X165982542Y-78971904D01*
X166058733Y-78933809D01*
X166096828Y-78895714D01*
X166134923Y-78819523D01*
X166134923Y-78667142D01*
X166096828Y-78590952D01*
X166058733Y-78552857D01*
X165982542Y-78514761D01*
G04 #@! TO.C,D29*
X164153971Y-75161904D02*
X164153971Y-74361904D01*
X164344447Y-74361904D01*
X164458733Y-74400000D01*
X164534923Y-74476190D01*
X164573019Y-74552380D01*
X164611114Y-74704761D01*
X164611114Y-74819047D01*
X164573019Y-74971428D01*
X164534923Y-75047619D01*
X164458733Y-75123809D01*
X164344447Y-75161904D01*
X164153971Y-75161904D01*
X164915876Y-74438095D02*
X164953971Y-74400000D01*
X165030161Y-74361904D01*
X165220638Y-74361904D01*
X165296828Y-74400000D01*
X165334923Y-74438095D01*
X165373019Y-74514285D01*
X165373019Y-74590476D01*
X165334923Y-74704761D01*
X164877780Y-75161904D01*
X165373019Y-75161904D01*
X165753971Y-75161904D02*
X165906352Y-75161904D01*
X165982542Y-75123809D01*
X166020638Y-75085714D01*
X166096828Y-74971428D01*
X166134923Y-74819047D01*
X166134923Y-74514285D01*
X166096828Y-74438095D01*
X166058733Y-74400000D01*
X165982542Y-74361904D01*
X165830161Y-74361904D01*
X165753971Y-74400000D01*
X165715876Y-74438095D01*
X165677780Y-74514285D01*
X165677780Y-74704761D01*
X165715876Y-74780952D01*
X165753971Y-74819047D01*
X165830161Y-74857142D01*
X165982542Y-74857142D01*
X166058733Y-74819047D01*
X166096828Y-74780952D01*
X166134923Y-74704761D01*
G04 #@! TD*
M02*
