M48
;DRILL file {KiCad (5.0.1-3-g963ef8bb5)} date Wednesday, February 13, 2019 at 12:26:11 AM
;FORMAT={-:-/ absolute / inch / decimal}
FMAT,2
INCH,TZ
T1C0.0394
T2C0.0866
T3C0.1575
%
G90
G05
M72
T1
X5.15Y-3.85
X5.15Y-2.75
X6.3465Y-4.35
X6.6535Y-4.35
X6.3465Y-3.9
X6.6535Y-3.9
X5.3508Y-2.4496
X5.3508Y-2.5496
X5.3508Y-2.6496
X5.3508Y-2.7496
X5.3508Y-2.8496
X5.3508Y-2.9496
X5.3508Y-3.0496
X5.3508Y-3.1496
X5.3508Y-3.2496
X5.3508Y-3.3496
X5.3508Y-3.4496
X5.3508Y-3.5496
X5.3508Y-3.7496
X5.3508Y-3.8496
X5.3508Y-3.9496
X5.3508Y-4.0496
X5.3508Y-4.1496
X5.3508Y-4.2496
X5.4508Y-2.6496
X5.5508Y-2.6496
X5.6508Y-2.6496
X5.8498Y-2.6496
X5.9498Y-2.4496
X5.9498Y-2.5496
X5.9498Y-2.6496
X5.9498Y-2.7496
X5.9498Y-2.8496
X5.9498Y-2.9496
X5.9498Y-3.0496
X5.9498Y-3.1496
X5.9498Y-3.2496
X5.9498Y-3.3496
X5.9498Y-3.4496
X5.9498Y-3.5496
X5.9498Y-3.7496
X5.9498Y-3.8496
X5.9498Y-3.9496
X5.9498Y-4.0496
X5.9498Y-4.1496
X5.9498Y-4.2496
X5.15Y-4.15
X6.15Y-3.55
X6.15Y-3.15
X5.15Y-3.15
X5.15Y-4.05
X6.3465Y-3.75
X6.6535Y-3.75
X5.15Y-2.45
X4.6516Y-3.45
X4.9587Y-3.45
X5.15Y-3.05
X6.15Y-4.25
X6.15Y-3.35
X6.15Y-2.95
X6.3465Y-3.6
X6.6535Y-3.6
X5.15Y-3.35
X4.6516Y-2.85
X4.9587Y-2.85
X4.6516Y-3.6
X4.9587Y-3.6
X6.15Y-3.95
X6.3465Y-2.85
X6.6535Y-2.85
X5.15Y-2.85
X6.3465Y-3.15
X6.6535Y-3.15
X6.15Y-2.65
X5.15Y-3.75
X6.15Y-4.05
X4.6516Y-3.
X4.9587Y-3.
X4.6465Y-3.75
X4.9535Y-3.75
X5.15Y-2.65
X6.3465Y-4.65
X6.6535Y-4.65
X5.15Y-3.55
X6.3465Y-3.
X6.6535Y-3.
X6.15Y-3.75
X4.6465Y-4.2
X4.9535Y-4.2
X6.15Y-2.45
X5.15Y-3.95
X4.6516Y-3.15
X4.9587Y-3.15
X4.6465Y-3.9
X4.9535Y-3.9
X6.3465Y-4.5
X6.6535Y-4.5
X4.6465Y-2.4
X4.9535Y-2.4
X4.6465Y-4.35
X4.9535Y-4.35
X5.15Y-2.95
X5.15Y-4.25
X6.15Y-3.45
X6.15Y-3.05
X4.6516Y-3.3
X4.9587Y-3.3
X4.6465Y-4.05
X4.9535Y-4.05
X5.15Y-3.25
X4.6465Y-2.55
X4.9535Y-2.55
X4.6465Y-4.5
X4.9535Y-4.5
X6.3465Y-3.45
X6.6535Y-3.45
X5.15Y-2.55
X6.15Y-2.75
X6.3465Y-4.2
X6.6535Y-4.2
X6.15Y-4.15
X6.15Y-3.25
X6.15Y-2.85
X4.6465Y-2.7
X4.9535Y-2.7
X4.6465Y-4.65
X4.9535Y-4.65
X6.3465Y-3.3
X6.6535Y-3.3
X5.15Y-3.45
X6.15Y-3.85
X6.3465Y-4.05
X6.6535Y-4.05
X6.15Y-2.55
T2
X5.3748Y-2.3384
X5.9258Y-2.3384
T3
X4.1075Y-4.35
X5.05Y-4.95
X4.1075Y-4.95
X7.1925Y-4.65
X4.1075Y-2.85
X7.1925Y-2.55
X4.45Y-4.9425
X4.1Y-3.45
X5.95Y-4.9425
X5.65Y-4.9425
X5.35Y-4.9425
X4.1075Y-2.55
X4.75Y-4.9425
X7.1925Y-3.45
X6.9Y-2.5575
X7.1925Y-3.75
X6.55Y-4.9425
X4.4Y-2.5575
X6.25Y-4.9425
X4.1075Y-4.65
X7.1925Y-4.35
X4.1Y-3.15
X7.2Y-2.85
X7.1925Y-4.95
X7.1925Y-4.05
X7.1925Y-3.15
X6.85Y-4.9425
X4.1075Y-3.75
X4.1075Y-4.05
T0
M30
