G04 #@! TF.GenerationSoftware,KiCad,Pcbnew,(5.0.1-3-g963ef8bb5)*
G04 #@! TF.CreationDate,2019-02-13T00:25:30-08:00*
G04 #@! TF.ProjectId,midi-anything,6D6964692D616E797468696E672E6B69,rev?*
G04 #@! TF.SameCoordinates,Original*
G04 #@! TF.FileFunction,Paste,Top*
G04 #@! TF.FilePolarity,Positive*
%FSLAX46Y46*%
G04 Gerber Fmt 4.6, Leading zero omitted, Abs format (unit mm)*
G04 Created by KiCad (PCBNEW (5.0.1-3-g963ef8bb5)) date Wednesday, February 13, 2019 at 12:25:30 AM*
%MOMM*%
%LPD*%
G01*
G04 APERTURE LIST*
%ADD10R,1.600000X1.200000*%
G04 APERTURE END LIST*
D10*
G04 #@! TO.C,D1*
X123320000Y-60960000D03*
X120520000Y-60960000D03*
G04 #@! TD*
G04 #@! TO.C,D2*
X123320000Y-64770000D03*
X120520000Y-64770000D03*
G04 #@! TD*
G04 #@! TO.C,D3*
X120520000Y-68580000D03*
X123320000Y-68580000D03*
G04 #@! TD*
G04 #@! TO.C,D4*
X123450000Y-72390000D03*
X120650000Y-72390000D03*
G04 #@! TD*
G04 #@! TO.C,D5*
X120650000Y-76200000D03*
X123450000Y-76200000D03*
G04 #@! TD*
G04 #@! TO.C,D6*
X123450000Y-80010000D03*
X120650000Y-80010000D03*
G04 #@! TD*
G04 #@! TO.C,D7*
X120650000Y-83820000D03*
X123450000Y-83820000D03*
G04 #@! TD*
G04 #@! TO.C,D8*
X123450000Y-87630000D03*
X120650000Y-87630000D03*
G04 #@! TD*
G04 #@! TO.C,D9*
X120650000Y-91440000D03*
X123450000Y-91440000D03*
G04 #@! TD*
G04 #@! TO.C,D10*
X123320000Y-95250000D03*
X120520000Y-95250000D03*
G04 #@! TD*
G04 #@! TO.C,D11*
X120520000Y-99060000D03*
X123320000Y-99060000D03*
G04 #@! TD*
G04 #@! TO.C,D12*
X123320000Y-102870000D03*
X120520000Y-102870000D03*
G04 #@! TD*
G04 #@! TO.C,D13*
X120520000Y-106680000D03*
X123320000Y-106680000D03*
G04 #@! TD*
G04 #@! TO.C,D14*
X120520000Y-110490000D03*
X123320000Y-110490000D03*
G04 #@! TD*
G04 #@! TO.C,D15*
X123320000Y-114300000D03*
X120520000Y-114300000D03*
G04 #@! TD*
G04 #@! TO.C,D16*
X120520000Y-118110000D03*
X123320000Y-118110000D03*
G04 #@! TD*
G04 #@! TO.C,D17*
X166500000Y-72390000D03*
X163700000Y-72390000D03*
G04 #@! TD*
G04 #@! TO.C,D18*
X163700000Y-118110000D03*
X166500000Y-118110000D03*
G04 #@! TD*
G04 #@! TO.C,D19*
X166500000Y-114300000D03*
X163700000Y-114300000D03*
G04 #@! TD*
G04 #@! TO.C,D20*
X163700000Y-110490000D03*
X166500000Y-110490000D03*
G04 #@! TD*
G04 #@! TO.C,D21*
X166500000Y-106680000D03*
X163700000Y-106680000D03*
G04 #@! TD*
G04 #@! TO.C,D22*
X163700000Y-102870000D03*
X166500000Y-102870000D03*
G04 #@! TD*
G04 #@! TO.C,D23*
X166500000Y-99060000D03*
X163700000Y-99060000D03*
G04 #@! TD*
G04 #@! TO.C,D24*
X163700000Y-95250000D03*
X166500000Y-95250000D03*
G04 #@! TD*
G04 #@! TO.C,D25*
X166500000Y-91440000D03*
X163700000Y-91440000D03*
G04 #@! TD*
G04 #@! TO.C,D26*
X163700000Y-87630000D03*
X166500000Y-87630000D03*
G04 #@! TD*
G04 #@! TO.C,D27*
X166500000Y-83820000D03*
X163700000Y-83820000D03*
G04 #@! TD*
G04 #@! TO.C,D28*
X163700000Y-80010000D03*
X166500000Y-80010000D03*
G04 #@! TD*
G04 #@! TO.C,D29*
X166500000Y-76200000D03*
X163700000Y-76200000D03*
G04 #@! TD*
M02*
